<svg version="1.1" xmlns="http://www.w3.org/2000/svg" xmlns:xlink="http://www.w3.org/1999/xlink" width="883.3662109375" height="852"><defs/><g><g><rect fill="#C0C0C0" stroke="none" x="783" y="199" width="152.12451171875" height="204" transform="matrix(1 0 0 1 -270 -134)" fill-opacity="0.2"/></g><g><rect fill="#ffffff" stroke="none" x="776" y="192" width="152.12451171875" height="204" transform="matrix(1 0 0 1 -270 -134)"/></g><g><path fill="none" stroke="#000000" paint-order="fill stroke markers" d=" M 506 58 L 658.12451171875 58 L 658.12451171875 262 L 506 262 L 506 58 Z Z" stroke-miterlimit="10" stroke-dasharray=""/></g><g><path fill="none" stroke="#000000" paint-order="fill stroke markers" d=" M 506 96 L 658.12451171875 96" stroke-miterlimit="10" stroke-dasharray=""/></g><g><path fill="none" stroke="#000000" paint-order="fill stroke markers" d=" M 506 209 L 658.12451171875 209" stroke-miterlimit="10" stroke-dasharray=""/></g><g><g><path fill="none" stroke="none"/><text fill="#000000" stroke="none" font-family="Arial" font-size="13px" font-style="normal" font-weight="normal" text-decoration="undefined" x="852.562255859375" y="203.5" text-anchor="middle" dominant-baseline="central" transform="matrix(1 0 0 1 -270 -134)">«abstract»</text></g></g><g><g><path fill="none" stroke="none"/><text fill="#000000" stroke="none" font-family="Arial" font-size="13px" font-style="normal" font-weight="bold" text-decoration="undefined" x="852.562255859375" y="218.5" text-anchor="middle" dominant-baseline="central" transform="matrix(1 0 0 1 -270 -134)">utilisateur</text></g></g><g><g><path fill="none" stroke="none"/><text fill="#000000" stroke="none" font-family="Arial" font-size="13px" font-style="normal" font-weight="normal" text-decoration="undefined" x="781" y="241.5" text-anchor="start" dominant-baseline="central" transform="matrix(1 0 0 1 -270 -134)">#nom: string</text></g></g><g><g><path fill="none" stroke="none"/><text fill="#000000" stroke="none" font-family="Arial" font-size="13px" font-style="normal" font-weight="normal" text-decoration="undefined" x="781" y="256.5" text-anchor="start" dominant-baseline="central" transform="matrix(1 0 0 1 -270 -134)">#prenom: string</text></g></g><g><g><path fill="none" stroke="none"/><text fill="#000000" stroke="none" font-family="Arial" font-size="13px" font-style="normal" font-weight="normal" text-decoration="undefined" x="781" y="271.5" text-anchor="start" dominant-baseline="central" transform="matrix(1 0 0 1 -270 -134)">#email: string</text></g></g><g><g><path fill="none" stroke="none"/><text fill="#000000" stroke="none" font-family="Arial" font-size="13px" font-style="normal" font-weight="normal" text-decoration="undefined" x="781" y="286.5" text-anchor="start" dominant-baseline="central" transform="matrix(1 0 0 1 -270 -134)">#password: string</text></g></g><g><g><path fill="none" stroke="none"/><text fill="#000000" stroke="none" font-family="Arial" font-size="13px" font-style="normal" font-weight="normal" text-decoration="undefined" x="781" y="301.5" text-anchor="start" dominant-baseline="central" transform="matrix(1 0 0 1 -270 -134)">#actif: boolean</text></g></g><g><g><path fill="none" stroke="none"/><text fill="#000000" stroke="none" font-family="Arial" font-size="13px" font-style="normal" font-weight="normal" text-decoration="undefined" x="781" y="316.5" text-anchor="start" dominant-baseline="central" transform="matrix(1 0 0 1 -270 -134)">#phone: string</text></g></g><g><g><path fill="none" stroke="none"/><text fill="#000000" stroke="none" font-family="Arial" font-size="13px" font-style="normal" font-weight="normal" text-decoration="undefined" x="781" y="331.5" text-anchor="start" dominant-baseline="central" transform="matrix(1 0 0 1 -270 -134)">#role: string</text></g></g><g><g><path fill="none" stroke="none"/><text fill="#000000" stroke="none" font-family="Arial" font-size="13px" font-style="normal" font-weight="normal" text-decoration="undefined" x="781" y="354.5" text-anchor="start" dominant-baseline="central" transform="matrix(1 0 0 1 -270 -134)">+seConnecter()</text></g></g><g><g><path fill="none" stroke="none"/><text fill="#000000" stroke="none" font-family="Arial" font-size="13px" font-style="normal" font-weight="normal" text-decoration="undefined" x="781" y="369.5" text-anchor="start" dominant-baseline="central" transform="matrix(1 0 0 1 -270 -134)">+seDeconnecter()</text></g></g><g><rect fill="#C0C0C0" stroke="none" x="479" y="335" width="160" height="118" transform="matrix(1 0 0 1 -270 -134)" fill-opacity="0.2"/></g><g><rect fill="#ffffff" stroke="none" x="472" y="328" width="160" height="118" transform="matrix(1 0 0 1 -270 -134)"/></g><g><path fill="none" stroke="#000000" paint-order="fill stroke markers" d=" M 202 194 L 362 194 L 362 312 L 202 312 L 202 194 Z Z" stroke-miterlimit="10" stroke-dasharray=""/></g><g><path fill="none" stroke="#000000" paint-order="fill stroke markers" d=" M 202 219 L 362 219" stroke-miterlimit="10" stroke-dasharray=""/></g><g><path fill="none" stroke="#000000" paint-order="fill stroke markers" d=" M 202 229 L 362 229" stroke-miterlimit="10" stroke-dasharray=""/></g><g><g><path fill="none" stroke="none"/><text fill="#000000" stroke="none" font-family="Arial" font-size="13px" font-style="normal" font-weight="bold" text-decoration="undefined" x="552.5" y="341.5" text-anchor="middle" dominant-baseline="central" transform="matrix(1 0 0 1 -270 -134)">Achteur</text></g></g><g><g><path fill="none" stroke="none"/><text fill="#000000" stroke="none" font-family="Arial" font-size="13px" font-style="normal" font-weight="normal" text-decoration="undefined" x="477" y="374.5" text-anchor="start" dominant-baseline="central" transform="matrix(1 0 0 1 -270 -134)">+acheterBilliet()</text></g></g><g><g><path fill="none" stroke="none"/><text fill="#000000" stroke="none" font-family="Arial" font-size="13px" font-style="normal" font-weight="normal" text-decoration="undefined" x="477" y="389.5" text-anchor="start" dominant-baseline="central" transform="matrix(1 0 0 1 -270 -134)">+consulterHistorique()</text></g></g><g><g><path fill="none" stroke="none"/><text fill="#000000" stroke="none" font-family="Arial" font-size="13px" font-style="normal" font-weight="normal" text-decoration="undefined" x="477" y="404.5" text-anchor="start" dominant-baseline="central" transform="matrix(1 0 0 1 -270 -134)">+laisseCommantaire()</text></g></g><g><g><path fill="none" stroke="none"/><text fill="#000000" stroke="none" font-family="Arial" font-size="13px" font-style="normal" font-weight="normal" text-decoration="undefined" x="477" y="419.5" text-anchor="start" dominant-baseline="central" transform="matrix(1 0 0 1 -270 -134)">+telechargerPdf()</text></g></g><g><g><path fill="none" stroke="none"/><text fill="#000000" stroke="none" font-family="Arial" font-size="13px" font-style="normal" font-weight="normal" text-decoration="undefined" x="477" y="434.5" text-anchor="start" dominant-baseline="central" transform="matrix(1 0 0 1 -270 -134)">+receiveEmail()</text></g></g><g><rect fill="#C0C0C0" stroke="none" x="511" y="151" width="139.70166015625" height="88" transform="matrix(1 0 0 1 -270 -134)" fill-opacity="0.2"/></g><g><rect fill="#ffffff" stroke="none" x="504" y="144" width="139.70166015625" height="88" transform="matrix(1 0 0 1 -270 -134)"/></g><g><path fill="none" stroke="#000000" paint-order="fill stroke markers" d=" M 234 10 L 373.70166015625 10 L 373.70166015625 98 L 234 98 L 234 10 Z Z" stroke-miterlimit="10" stroke-dasharray=""/></g><g><path fill="none" stroke="#000000" paint-order="fill stroke markers" d=" M 234 35 L 373.70166015625 35" stroke-miterlimit="10" stroke-dasharray=""/></g><g><path fill="none" stroke="#000000" paint-order="fill stroke markers" d=" M 234 45 L 373.70166015625 45" stroke-miterlimit="10" stroke-dasharray=""/></g><g><g><path fill="none" stroke="none"/><text fill="#000000" stroke="none" font-family="Arial" font-size="13px" font-style="normal" font-weight="bold" text-decoration="undefined" x="574.350830078125" y="157.5" text-anchor="middle" dominant-baseline="central" transform="matrix(1 0 0 1 -270 -134)">organisateur</text></g></g><g><g><path fill="none" stroke="none"/><text fill="#000000" stroke="none" font-family="Arial" font-size="13px" font-style="normal" font-weight="normal" text-decoration="undefined" x="509" y="190.5" text-anchor="start" dominant-baseline="central" transform="matrix(1 0 0 1 -270 -134)">+creerMatch()</text></g></g><g><g><path fill="none" stroke="none"/><text fill="#000000" stroke="none" font-family="Arial" font-size="13px" font-style="normal" font-weight="normal" text-decoration="undefined" x="509" y="205.5" text-anchor="start" dominant-baseline="central" transform="matrix(1 0 0 1 -270 -134)">+modiferMatch()</text></g></g><g><g><path fill="none" stroke="none"/><text fill="#000000" stroke="none" font-family="Arial" font-size="13px" font-style="normal" font-weight="normal" text-decoration="undefined" x="509" y="220.5" text-anchor="start" dominant-baseline="central" transform="matrix(1 0 0 1 -270 -134)">+consulterStatistique()</text></g></g><g><rect fill="#C0C0C0" stroke="none" x="295" y="239" width="114.72998046875" height="71" transform="matrix(1 0 0 1 -270 -134)" fill-opacity="0.2"/></g><g><rect fill="#ffffff" stroke="none" x="288" y="232" width="114.72998046875" height="71" transform="matrix(1 0 0 1 -270 -134)"/></g><g><path fill="none" stroke="#000000" paint-order="fill stroke markers" d=" M 18 98 L 132.72998046875 98 L 132.72998046875 169 L 18 169 L 18 98 Z Z" stroke-miterlimit="10" stroke-dasharray=""/></g><g><path fill="none" stroke="#000000" paint-order="fill stroke markers" d=" M 18 136 L 132.72998046875 136" stroke-miterlimit="10" stroke-dasharray=""/></g><g><path fill="none" stroke="#000000" paint-order="fill stroke markers" d=" M 18 146 L 132.72998046875 146" stroke-miterlimit="10" stroke-dasharray=""/></g><g><g><path fill="none" stroke="none"/><text fill="#000000" stroke="none" font-family="Arial" font-size="13px" font-style="normal" font-weight="normal" text-decoration="undefined" x="345.864990234375" y="243.5" text-anchor="middle" dominant-baseline="central" transform="matrix(1 0 0 1 -270 -134)">«interface»</text></g></g><g><g><path fill="none" stroke="none"/><text fill="#000000" stroke="none" font-family="Arial" font-size="13px" font-style="normal" font-weight="bold" text-decoration="undefined" x="345.864990234375" y="258.5" text-anchor="middle" dominant-baseline="central" transform="matrix(1 0 0 1 -270 -134)">ModifiableProfile</text></g></g><g><g><path fill="none" stroke="none"/><text fill="#000000" stroke="none" font-family="Arial" font-size="13px" font-style="normal" font-weight="normal" text-decoration="undefined" x="293" y="291.5" text-anchor="start" dominant-baseline="central" transform="matrix(1 0 0 1 -270 -134)">+modiferProfile()</text></g></g><g><path fill="none" stroke="#000000" paint-order="fill stroke markers" d=" M 233 78 L 134 113" stroke-miterlimit="10" stroke-dasharray="3"/></g><g><path fill="none" stroke="#000000" paint-order="fill stroke markers" d=" M 142.17840710030072 105.64380143676433 L 134 113 L 144.98462500774554 113.5813892321082" stroke-miterlimit="10" stroke-dasharray=""/></g><g><path fill="none" stroke="#000000" paint-order="fill stroke markers" d=" M 201 206 L 134 167" stroke-miterlimit="10" stroke-dasharray="3"/></g><g><path fill="none" stroke="#000000" paint-order="fill stroke markers" d=" M 144.90073189306594 168.47446403669096 L 134 167 L 140.66537792252353 175.75058496044323" stroke-miterlimit="10" stroke-dasharray=""/></g><g><path fill="none" stroke="#000000" paint-order="fill stroke markers" d=" M 363 228 L 505 184" stroke-miterlimit="10" stroke-dasharray=""/></g><g><path fill="#FFFFFF" stroke="none" paint-order="stroke fill markers" d=" M 488.0771528115687 198.0576400237381 L 505 184 L 483.09348740781195 181.97399258434115"/></g><g><path fill="none" stroke="#000000" paint-order="fill stroke markers" d=" M 488.0771528115687 198.0576400237381 L 505 184 L 483.09348740781195 181.97399258434115 L 488.0771528115687 198.0576400237381" stroke-miterlimit="10" stroke-dasharray=""/></g><g><rect fill="#ffffff" stroke="none" x="679" y="319" width="40.11083984375" height="13" transform="matrix(1 0 0 1 -270 -134)"/></g><g><g><path fill="none" stroke="none"/><text fill="#000000" stroke="none" font-family="Arial" font-size="13px" font-style="normal" font-weight="normal" text-decoration="undefined" x="699.055419921875" y="325.5" text-anchor="middle" dominant-baseline="central" transform="matrix(1 0 0 1 -270 -134)">+herite</text></g></g><g><path fill="none" stroke="#000000" paint-order="fill stroke markers" d=" M 375 81 L 505 131" stroke-miterlimit="10" stroke-dasharray=""/></g><g><path fill="#FFFFFF" stroke="none" paint-order="stroke fill markers" d=" M 483.00716653195445 131.56149447621198 L 505 131 L 489.05168176551024 115.84575486896682"/></g><g><path fill="none" stroke="#000000" paint-order="fill stroke markers" d=" M 483.00716653195445 131.56149447621198 L 505 131 L 489.05168176551024 115.84575486896682 L 483.00716653195445 131.56149447621198" stroke-miterlimit="10" stroke-dasharray=""/></g><g><rect fill="#ffffff" stroke="none" x="695" y="219" width="40.11083984375" height="13" transform="matrix(1 0 0 1 -270 -134)"/></g><g><g><path fill="none" stroke="none"/><text fill="#000000" stroke="none" font-family="Arial" font-size="13px" font-style="normal" font-weight="normal" text-decoration="undefined" x="715.055419921875" y="225.5" text-anchor="middle" dominant-baseline="central" transform="matrix(1 0 0 1 -270 -134)">+herite</text></g></g><g><rect fill="#C0C0C0" stroke="none" x="975" y="703" width="174.3662109375" height="118" transform="matrix(1 0 0 1 -270 -134)" fill-opacity="0.2"/></g><g><rect fill="#ffffff" stroke="none" x="968" y="696" width="174.3662109375" height="118" transform="matrix(1 0 0 1 -270 -134)"/></g><g><path fill="none" stroke="#000000" paint-order="fill stroke markers" d=" M 698 562 L 872.3662109375 562 L 872.3662109375 680 L 698 680 L 698 562 Z Z" stroke-miterlimit="10" stroke-dasharray=""/></g><g><path fill="none" stroke="#000000" paint-order="fill stroke markers" d=" M 698 587 L 872.3662109375 587" stroke-miterlimit="10" stroke-dasharray=""/></g><g><path fill="none" stroke="#000000" paint-order="fill stroke markers" d=" M 698 597 L 872.3662109375 597" stroke-miterlimit="10" stroke-dasharray=""/></g><g><g><path fill="none" stroke="none"/><text fill="#000000" stroke="none" font-family="Arial" font-size="13px" font-style="normal" font-weight="bold" text-decoration="undefined" x="1055.68310546875" y="709.5" text-anchor="middle" dominant-baseline="central" transform="matrix(1 0 0 1 -270 -134)">administrateur</text></g></g><g><g><path fill="none" stroke="none"/><text fill="#000000" stroke="none" font-family="Arial" font-size="13px" font-style="normal" font-weight="normal" text-decoration="undefined" x="973" y="742.5" text-anchor="start" dominant-baseline="central" transform="matrix(1 0 0 1 -270 -134)">+validerMatch()</text></g></g><g><g><path fill="none" stroke="none"/><text fill="#000000" stroke="none" font-family="Arial" font-size="13px" font-style="normal" font-weight="normal" text-decoration="undefined" x="973" y="757.5" text-anchor="start" dominant-baseline="central" transform="matrix(1 0 0 1 -270 -134)">+refuserMatch()</text></g></g><g><g><path fill="none" stroke="none"/><text fill="#000000" stroke="none" font-family="Arial" font-size="13px" font-style="normal" font-weight="normal" text-decoration="undefined" x="973" y="772.5" text-anchor="start" dominant-baseline="central" transform="matrix(1 0 0 1 -270 -134)">+gererUilisaeur()</text></g></g><g><g><path fill="none" stroke="none"/><text fill="#000000" stroke="none" font-family="Arial" font-size="13px" font-style="normal" font-weight="normal" text-decoration="undefined" x="973" y="787.5" text-anchor="start" dominant-baseline="central" transform="matrix(1 0 0 1 -270 -134)">+activerUtilisateur(): void</text></g></g><g><g><path fill="none" stroke="none"/><text fill="#000000" stroke="none" font-family="Arial" font-size="13px" font-style="normal" font-weight="normal" text-decoration="undefined" x="973" y="802.5" text-anchor="start" dominant-baseline="central" transform="matrix(1 0 0 1 -270 -134)">+desactiverUtilisateur(): void</text></g></g><g><path fill="none" stroke="#000000" paint-order="fill stroke markers" d=" M 785 561 L 786 162 L 659 161" stroke-miterlimit="10" stroke-dasharray=""/></g><g><path fill="#FFFFFF" stroke="none" paint-order="stroke fill markers" d=" M 679.3910092207008 152.74126262911244 L 659 161 L 679.2584300941883 169.57881169620163"/></g><g><path fill="none" stroke="#000000" paint-order="fill stroke markers" d=" M 679.3910092207008 152.74126262911244 L 659 161 L 679.2584300941883 169.57881169620163 L 679.3910092207008 152.74126262911244" stroke-miterlimit="10" stroke-dasharray=""/></g><g><rect fill="#ffffff" stroke="none" x="1035" y="304" width="40.11083984375" height="13" transform="matrix(1 0 0 1 -270 -134)"/></g><g><g><path fill="none" stroke="none"/><text fill="#000000" stroke="none" font-family="Arial" font-size="13px" font-style="normal" font-weight="normal" text-decoration="undefined" x="1055.055419921875" y="310.5" text-anchor="middle" dominant-baseline="central" transform="matrix(1 0 0 1 -270 -134)">+herite</text></g></g><g><rect fill="#C0C0C0" stroke="none" x="479" y="599" width="163.919921875" height="192" transform="matrix(1 0 0 1 -270 -134)" fill-opacity="0.2"/></g><g><rect fill="#ffffff" stroke="none" x="472" y="592" width="163.919921875" height="192" transform="matrix(1 0 0 1 -270 -134)"/></g><g><path fill="none" stroke="#000000" paint-order="fill stroke markers" d=" M 202 458 L 365.919921875 458 L 365.919921875 650 L 202 650 L 202 458 Z Z" stroke-miterlimit="10" stroke-dasharray=""/></g><g><path fill="none" stroke="#000000" paint-order="fill stroke markers" d=" M 202 483 L 365.919921875 483" stroke-miterlimit="10" stroke-dasharray=""/></g><g><path fill="none" stroke="#000000" paint-order="fill stroke markers" d=" M 202 596 L 365.919921875 596" stroke-miterlimit="10" stroke-dasharray=""/></g><g><g><path fill="none" stroke="none"/><text fill="#000000" stroke="none" font-family="Arial" font-size="13px" font-style="normal" font-weight="bold" text-decoration="undefined" x="554.4599609375" y="605.5" text-anchor="middle" dominant-baseline="central" transform="matrix(1 0 0 1 -270 -134)">Match</text></g></g><g><g><path fill="none" stroke="none"/><text fill="#000000" stroke="none" font-family="Arial" font-size="13px" font-style="normal" font-weight="normal" text-decoration="undefined" x="477" y="628.5" text-anchor="start" dominant-baseline="central" transform="matrix(1 0 0 1 -270 -134)">-id: int</text></g></g><g><g><path fill="none" stroke="none"/><text fill="#000000" stroke="none" font-family="Arial" font-size="13px" font-style="normal" font-weight="normal" text-decoration="undefined" x="477" y="643.5" text-anchor="start" dominant-baseline="central" transform="matrix(1 0 0 1 -270 -134)">-date: Date</text></g></g><g><g><path fill="none" stroke="none"/><text fill="#000000" stroke="none" font-family="Arial" font-size="13px" font-style="normal" font-weight="normal" text-decoration="undefined" x="477" y="658.5" text-anchor="start" dominant-baseline="central" transform="matrix(1 0 0 1 -270 -134)">-heure: Time</text></g></g><g><g><path fill="none" stroke="none"/><text fill="#000000" stroke="none" font-family="Arial" font-size="13px" font-style="normal" font-weight="normal" text-decoration="undefined" x="477" y="673.5" text-anchor="start" dominant-baseline="central" transform="matrix(1 0 0 1 -270 -134)">-duree: int</text></g></g><g><g><path fill="none" stroke="none"/><text fill="#000000" stroke="none" font-family="Arial" font-size="13px" font-style="normal" font-weight="normal" text-decoration="undefined" x="477" y="688.5" text-anchor="start" dominant-baseline="central" transform="matrix(1 0 0 1 -270 -134)">-status: string</text></g></g><g><g><path fill="none" stroke="none"/><text fill="#000000" stroke="none" font-family="Arial" font-size="13px" font-style="normal" font-weight="normal" text-decoration="undefined" x="477" y="703.5" text-anchor="start" dominant-baseline="central" transform="matrix(1 0 0 1 -270 -134)">-noteMiyenne: float</text></g></g><g><g><path fill="none" stroke="none"/><text fill="#000000" stroke="none" font-family="Arial" font-size="13px" font-style="normal" font-weight="normal" text-decoration="undefined" x="477" y="718.5" text-anchor="start" dominant-baseline="central" transform="matrix(1 0 0 1 -270 -134)">-nbTotal: int</text></g></g><g><g><path fill="none" stroke="none"/><text fill="#000000" stroke="none" font-family="Arial" font-size="13px" font-style="normal" font-weight="normal" text-decoration="undefined" x="477" y="741.5" text-anchor="start" dominant-baseline="central" transform="matrix(1 0 0 1 -270 -134)">+publier()</text></g></g><g><g><path fill="none" stroke="none"/><text fill="#000000" stroke="none" font-family="Arial" font-size="13px" font-style="normal" font-weight="normal" text-decoration="undefined" x="477" y="756.5" text-anchor="start" dominant-baseline="central" transform="matrix(1 0 0 1 -270 -134)">+statistiqueMatch()</text></g></g><g><path fill="none" stroke="#000000" paint-order="fill stroke markers" d=" M 282 313 L 283 457" stroke-miterlimit="10" stroke-dasharray=""/></g><g><rect fill="#ffffff" stroke="none" x="530" y="462" width="19.5126953125" height="13" transform="matrix(1 0 0 1 -270 -134)"/></g><g><g><path fill="none" stroke="none"/><text fill="#000000" stroke="none" font-family="Arial" font-size="13px" font-style="normal" font-weight="normal" text-decoration="undefined" x="539.75634765625" y="468.5" text-anchor="middle" dominant-baseline="central" transform="matrix(1 0 0 1 -270 -134)">0..*</text></g></g><g><rect fill="#ffffff" stroke="none" x="531" y="563" width="19.5126953125" height="13" transform="matrix(1 0 0 1 -270 -134)"/></g><g><g><path fill="none" stroke="none"/><text fill="#000000" stroke="none" font-family="Arial" font-size="13px" font-style="normal" font-weight="normal" text-decoration="undefined" x="540.75634765625" y="569.5" text-anchor="middle" dominant-baseline="central" transform="matrix(1 0 0 1 -270 -134)">0..*</text></g></g><g><rect fill="#C0C0C0" stroke="none" x="855" y="583" width="112" height="103" transform="matrix(1 0 0 1 -270 -134)" fill-opacity="0.2"/></g><g><rect fill="#ffffff" stroke="none" x="848" y="576" width="112" height="103" transform="matrix(1 0 0 1 -270 -134)"/></g><g><path fill="none" stroke="#000000" paint-order="fill stroke markers" d=" M 578 442 L 690 442 L 690 545 L 578 545 L 578 442 Z Z" stroke-miterlimit="10" stroke-dasharray=""/></g><g><path fill="none" stroke="#000000" paint-order="fill stroke markers" d=" M 578 467 L 690 467" stroke-miterlimit="10" stroke-dasharray=""/></g><g><path fill="none" stroke="#000000" paint-order="fill stroke markers" d=" M 578 535 L 690 535" stroke-miterlimit="10" stroke-dasharray=""/></g><g><g><path fill="none" stroke="none"/><text fill="#000000" stroke="none" font-family="Arial" font-size="13px" font-style="normal" font-weight="bold" text-decoration="undefined" x="904.5" y="589.5" text-anchor="middle" dominant-baseline="central" transform="matrix(1 0 0 1 -270 -134)">category</text></g></g><g><g><path fill="none" stroke="none"/><text fill="#000000" stroke="none" font-family="Arial" font-size="13px" font-style="normal" font-weight="normal" text-decoration="undefined" x="853" y="612.5" text-anchor="start" dominant-baseline="central" transform="matrix(1 0 0 1 -270 -134)">-id: int</text></g></g><g><g><path fill="none" stroke="none"/><text fill="#000000" stroke="none" font-family="Arial" font-size="13px" font-style="normal" font-weight="normal" text-decoration="undefined" x="853" y="627.5" text-anchor="start" dominant-baseline="central" transform="matrix(1 0 0 1 -270 -134)">-nom: category</text></g></g><g><g><path fill="none" stroke="none"/><text fill="#000000" stroke="none" font-family="Arial" font-size="13px" font-style="normal" font-weight="normal" text-decoration="undefined" x="853" y="642.5" text-anchor="start" dominant-baseline="central" transform="matrix(1 0 0 1 -270 -134)">-prix: float</text></g></g><g><g><path fill="none" stroke="none"/><text fill="#000000" stroke="none" font-family="Arial" font-size="13px" font-style="normal" font-weight="normal" text-decoration="undefined" x="853" y="657.5" text-anchor="start" dominant-baseline="central" transform="matrix(1 0 0 1 -270 -134)">-nbPlace: int</text></g></g><g><path fill="none" stroke="#000000" paint-order="fill stroke markers" d=" M 577 503 L 367 539" stroke-miterlimit="10" stroke-dasharray=""/></g><g><path fill="#000000" stroke="none" paint-order="stroke fill markers" d=" M 376.3053023282723 533.1338813019638 L 367 539 L 377.7278146879389 541.4318700666857 L 388.6836896058919 535.2827960675614"/></g><g><path fill="none" stroke="#000000" paint-order="fill stroke markers" d=" M 376.3053023282723 533.1338813019638 L 367 539 L 377.7278146879389 541.4318700666857 L 388.6836896058919 535.2827960675614 L 376.3053023282723 533.1338813019638" stroke-miterlimit="10" stroke-dasharray=""/></g><g><rect fill="#ffffff" stroke="none" x="720" y="663" width="49.51171875" height="13" transform="matrix(1 0 0 1 -270 -134)"/></g><g><g><path fill="none" stroke="none"/><text fill="#000000" stroke="none" font-family="Arial" font-size="13px" font-style="normal" font-weight="normal" text-decoration="undefined" x="744.755859375" y="669.5" text-anchor="middle" dominant-baseline="central" transform="matrix(1 0 0 1 -270 -134)">+conient</text></g></g><g><rect fill="#ffffff" stroke="none" x="813" y="622" width="21.68359375" height="13" transform="matrix(1 0 0 1 -270 -134)"/></g><g><g><path fill="none" stroke="none"/><text fill="#000000" stroke="none" font-family="Arial" font-size="13px" font-style="normal" font-weight="normal" text-decoration="undefined" x="823.841796875" y="628.5" text-anchor="middle" dominant-baseline="central" transform="matrix(1 0 0 1 -270 -134)">1..3</text></g></g><g><rect fill="#ffffff" stroke="none" x="653" y="651" width="7.22998046875" height="13" transform="matrix(1 0 0 1 -270 -134)"/></g><g><g><path fill="none" stroke="none"/><text fill="#000000" stroke="none" font-family="Arial" font-size="13px" font-style="normal" font-weight="normal" text-decoration="undefined" x="656.614990234375" y="657.5" text-anchor="middle" dominant-baseline="central" transform="matrix(1 0 0 1 -270 -134)">1</text></g></g><g><rect fill="#C0C0C0" stroke="none" x="447" y="895" width="144" height="88" transform="matrix(1 0 0 1 -270 -134)" fill-opacity="0.2"/></g><g><rect fill="#ffffff" stroke="none" x="440" y="888" width="144" height="88" transform="matrix(1 0 0 1 -270 -134)"/></g><g><path fill="none" stroke="#000000" paint-order="fill stroke markers" d=" M 170 754 L 314 754 L 314 842 L 170 842 L 170 754 Z Z" stroke-miterlimit="10" stroke-dasharray=""/></g><g><path fill="none" stroke="#000000" paint-order="fill stroke markers" d=" M 170 779 L 314 779" stroke-miterlimit="10" stroke-dasharray=""/></g><g><path fill="none" stroke="#000000" paint-order="fill stroke markers" d=" M 170 832 L 314 832" stroke-miterlimit="10" stroke-dasharray=""/></g><g><g><path fill="none" stroke="none"/><text fill="#000000" stroke="none" font-family="Arial" font-size="13px" font-style="normal" font-weight="bold" text-decoration="undefined" x="512.5" y="901.5" text-anchor="middle" dominant-baseline="central" transform="matrix(1 0 0 1 -270 -134)">Equipe</text></g></g><g><g><path fill="none" stroke="none"/><text fill="#000000" stroke="none" font-family="Arial" font-size="13px" font-style="normal" font-weight="normal" text-decoration="undefined" x="445" y="924.5" text-anchor="start" dominant-baseline="central" transform="matrix(1 0 0 1 -270 -134)">-nom: string</text></g></g><g><g><path fill="none" stroke="none"/><text fill="#000000" stroke="none" font-family="Arial" font-size="13px" font-style="normal" font-weight="normal" text-decoration="undefined" x="445" y="939.5" text-anchor="start" dominant-baseline="central" transform="matrix(1 0 0 1 -270 -134)">-logo: string</text></g></g><g><g><path fill="none" stroke="none"/><text fill="#000000" stroke="none" font-family="Arial" font-size="13px" font-style="normal" font-weight="normal" text-decoration="undefined" x="445" y="954.5" text-anchor="start" dominant-baseline="central" transform="matrix(1 0 0 1 -270 -134)">-id: int</text></g></g><g><path fill="none" stroke="#000000" paint-order="fill stroke markers" d=" M 250 753 L 267 651" stroke-miterlimit="10" stroke-dasharray=""/></g><g><path fill="#000000" stroke="none" paint-order="stroke fill markers" d=" M 269.4815092818907 661.7164411855751 L 267 651 L 261.1770238082953 660.3323602733092 L 263.3832222792821 672.7006663243071"/></g><g><path fill="none" stroke="#000000" paint-order="fill stroke markers" d=" M 269.4815092818907 661.7164411855751 L 267 651 L 261.1770238082953 660.3323602733092 L 263.3832222792821 672.7006663243071 L 269.4815092818907 661.7164411855751" stroke-miterlimit="10" stroke-dasharray=""/></g><g><rect fill="#ffffff" stroke="none" x="481" y="827" width="65.39990234375" height="13" transform="matrix(1 0 0 1 -270 -134)"/></g><g><g><path fill="none" stroke="none"/><text fill="#000000" stroke="none" font-family="Arial" font-size="13px" font-style="normal" font-weight="normal" text-decoration="undefined" x="513.699951171875" y="833.5" text-anchor="middle" dominant-baseline="central" transform="matrix(1 0 0 1 -270 -134)">+comprend</text></g></g><g><rect fill="#ffffff" stroke="none" x="532" y="861" width="7.22998046875" height="13" transform="matrix(1 0 0 1 -270 -134)"/></g><g><g><path fill="none" stroke="none"/><text fill="#000000" stroke="none" font-family="Arial" font-size="13px" font-style="normal" font-weight="normal" text-decoration="undefined" x="535.614990234375" y="867.5" text-anchor="middle" dominant-baseline="central" transform="matrix(1 0 0 1 -270 -134)">2</text></g></g><g><rect fill="#ffffff" stroke="none" x="542" y="802" width="7.22998046875" height="13" transform="matrix(1 0 0 1 -270 -134)"/></g><g><g><path fill="none" stroke="none"/><text fill="#000000" stroke="none" font-family="Arial" font-size="13px" font-style="normal" font-weight="normal" text-decoration="undefined" x="545.614990234375" y="808.5" text-anchor="middle" dominant-baseline="central" transform="matrix(1 0 0 1 -270 -134)">1</text></g></g><g><rect fill="#C0C0C0" stroke="none" x="655" y="455" width="136" height="146" transform="matrix(1 0 0 1 -270 -134)" fill-opacity="0.2"/></g><g><rect fill="#ffffff" stroke="none" x="648" y="448" width="136" height="146" transform="matrix(1 0 0 1 -270 -134)"/></g><g><path fill="none" stroke="#000000" paint-order="fill stroke markers" d=" M 378 314 L 514 314 L 514 460 L 378 460 L 378 314 Z Z" stroke-miterlimit="10" stroke-dasharray=""/></g><g><path fill="none" stroke="#000000" paint-order="fill stroke markers" d=" M 378 339 L 514 339" stroke-miterlimit="10" stroke-dasharray=""/></g><g><path fill="none" stroke="#000000" paint-order="fill stroke markers" d=" M 378 407 L 514 407" stroke-miterlimit="10" stroke-dasharray=""/></g><g><g><path fill="none" stroke="none"/><text fill="#000000" stroke="none" font-family="Arial" font-size="13px" font-style="normal" font-weight="bold" text-decoration="undefined" x="716.5" y="461.5" text-anchor="middle" dominant-baseline="central" transform="matrix(1 0 0 1 -270 -134)">Billet</text></g></g><g><g><path fill="none" stroke="none"/><text fill="#000000" stroke="none" font-family="Arial" font-size="13px" font-style="normal" font-weight="normal" text-decoration="undefined" x="653" y="484.5" text-anchor="start" dominant-baseline="central" transform="matrix(1 0 0 1 -270 -134)">-id: int</text></g></g><g><g><path fill="none" stroke="none"/><text fill="#000000" stroke="none" font-family="Arial" font-size="13px" font-style="normal" font-weight="normal" text-decoration="undefined" x="653" y="499.5" text-anchor="start" dominant-baseline="central" transform="matrix(1 0 0 1 -270 -134)">-dateAchat: datetime</text></g></g><g><g><path fill="none" stroke="none"/><text fill="#000000" stroke="none" font-family="Arial" font-size="13px" font-style="normal" font-weight="normal" text-decoration="undefined" x="653" y="514.5" text-anchor="start" dominant-baseline="central" transform="matrix(1 0 0 1 -270 -134)">-prix: float</text></g></g><g><g><path fill="none" stroke="none"/><text fill="#000000" stroke="none" font-family="Arial" font-size="13px" font-style="normal" font-weight="normal" text-decoration="undefined" x="653" y="529.5" text-anchor="start" dominant-baseline="central" transform="matrix(1 0 0 1 -270 -134)">-place: int</text></g></g><g><g><path fill="none" stroke="none"/><text fill="#000000" stroke="none" font-family="Arial" font-size="13px" font-style="normal" font-weight="normal" text-decoration="undefined" x="653" y="552.5" text-anchor="start" dominant-baseline="central" transform="matrix(1 0 0 1 -270 -134)">+genererPdf()</text></g></g><g><g><path fill="none" stroke="none"/><text fill="#000000" stroke="none" font-family="Arial" font-size="13px" font-style="normal" font-weight="normal" text-decoration="undefined" x="653" y="567.5" text-anchor="start" dominant-baseline="central" transform="matrix(1 0 0 1 -270 -134)">+genererQRCODE()</text></g></g><g><g><path fill="none" stroke="none"/><text fill="#000000" stroke="none" font-family="Arial" font-size="13px" font-style="normal" font-weight="normal" text-decoration="undefined" x="653" y="582.5" text-anchor="start" dominant-baseline="central" transform="matrix(1 0 0 1 -270 -134)">+envoyerEmail()</text></g></g><g><path fill="none" stroke="#000000" paint-order="fill stroke markers" d=" M 377 386 L 282 385" stroke-miterlimit="10" stroke-dasharray="3"/></g><g><rect fill="#C0C0C0" stroke="none" x="287" y="639" width="102.72021484375" height="116" transform="matrix(1 0 0 1 -270 -134)" fill-opacity="0.2"/></g><g><rect fill="#ffffff" stroke="none" x="280" y="632" width="102.72021484375" height="116" transform="matrix(1 0 0 1 -270 -134)"/></g><g><path fill="none" stroke="#000000" paint-order="fill stroke markers" d=" M 10 498 L 112.72021484375 498 L 112.72021484375 614 L 10 614 L 10 498 Z Z" stroke-miterlimit="10" stroke-dasharray=""/></g><g><path fill="none" stroke="#000000" paint-order="fill stroke markers" d=" M 10 523 L 112.72021484375 523" stroke-miterlimit="10" stroke-dasharray=""/></g><g><path fill="none" stroke="#000000" paint-order="fill stroke markers" d=" M 10 591 L 112.72021484375 591" stroke-miterlimit="10" stroke-dasharray=""/></g><g><g><path fill="none" stroke="none"/><text fill="#000000" stroke="none" font-family="Arial" font-size="13px" font-style="normal" font-weight="bold" text-decoration="undefined" x="331.860107421875" y="645.5" text-anchor="middle" dominant-baseline="central" transform="matrix(1 0 0 1 -270 -134)">Commantaire</text></g></g><g><g><path fill="none" stroke="none"/><text fill="#000000" stroke="none" font-family="Arial" font-size="13px" font-style="normal" font-weight="normal" text-decoration="undefined" x="285" y="668.5" text-anchor="start" dominant-baseline="central" transform="matrix(1 0 0 1 -270 -134)">-id: int</text></g></g><g><g><path fill="none" stroke="none"/><text fill="#000000" stroke="none" font-family="Arial" font-size="13px" font-style="normal" font-weight="normal" text-decoration="undefined" x="285" y="683.5" text-anchor="start" dominant-baseline="central" transform="matrix(1 0 0 1 -270 -134)">-contenu: string</text></g></g><g><g><path fill="none" stroke="none"/><text fill="#000000" stroke="none" font-family="Arial" font-size="13px" font-style="normal" font-weight="normal" text-decoration="undefined" x="285" y="698.5" text-anchor="start" dominant-baseline="central" transform="matrix(1 0 0 1 -270 -134)">-note: int</text></g></g><g><g><path fill="none" stroke="none"/><text fill="#000000" stroke="none" font-family="Arial" font-size="13px" font-style="normal" font-weight="normal" text-decoration="undefined" x="285" y="713.5" text-anchor="start" dominant-baseline="central" transform="matrix(1 0 0 1 -270 -134)">-date: DateTime</text></g></g><g><g><path fill="none" stroke="none"/><text fill="#000000" stroke="none" font-family="Arial" font-size="13px" font-style="normal" font-weight="normal" text-decoration="undefined" x="285" y="736.5" text-anchor="start" dominant-baseline="central" transform="matrix(1 0 0 1 -270 -134)">+publier()</text></g></g><g><path fill="none" stroke="#000000" paint-order="fill stroke markers" d=" M 515 387 L 634 386 L 634 441" stroke-miterlimit="10" stroke-dasharray=""/></g><g><rect fill="#ffffff" stroke="none" x="803" y="527" width="7.22998046875" height="13" transform="matrix(1 0 0 1 -270 -134)"/></g><g><g><path fill="none" stroke="none"/><text fill="#000000" stroke="none" font-family="Arial" font-size="13px" font-style="normal" font-weight="normal" text-decoration="undefined" x="806.614990234375" y="533.5" text-anchor="middle" dominant-baseline="central" transform="matrix(1 0 0 1 -270 -134)">1</text></g></g><g><rect fill="#ffffff" stroke="none" x="888" y="547" width="7.22998046875" height="13" transform="matrix(1 0 0 1 -270 -134)"/></g><g><g><path fill="none" stroke="none"/><text fill="#000000" stroke="none" font-family="Arial" font-size="13px" font-style="normal" font-weight="normal" text-decoration="undefined" x="891.614990234375" y="553.5" text-anchor="middle" dominant-baseline="central" transform="matrix(1 0 0 1 -270 -134)">1</text></g></g><g><path fill="none" stroke="#000000" paint-order="fill stroke markers" d=" M 201 555 L 114 556" stroke-miterlimit="10" stroke-dasharray=""/></g><g><rect fill="#ffffff" stroke="none" x="408" y="697" width="39.380859375" height="13" transform="matrix(1 0 0 1 -270 -134)"/></g><g><g><path fill="none" stroke="none"/><text fill="#000000" stroke="none" font-family="Arial" font-size="13px" font-style="normal" font-weight="normal" text-decoration="undefined" x="427.6904296875" y="703.5" text-anchor="middle" dominant-baseline="central" transform="matrix(1 0 0 1 -270 -134)">+recoit</text></g></g><g><rect fill="#ffffff" stroke="none" x="446" y="670" width="7.22998046875" height="13" transform="matrix(1 0 0 1 -270 -134)"/></g><g><g><path fill="none" stroke="none"/><text fill="#000000" stroke="none" font-family="Arial" font-size="13px" font-style="normal" font-weight="normal" text-decoration="undefined" x="449.614990234375" y="676.5" text-anchor="middle" dominant-baseline="central" transform="matrix(1 0 0 1 -270 -134)">1</text></g></g><g><rect fill="#ffffff" stroke="none" x="396" y="671" width="19.5126953125" height="13" transform="matrix(1 0 0 1 -270 -134)"/></g><g><g><path fill="none" stroke="none"/><text fill="#000000" stroke="none" font-family="Arial" font-size="13px" font-style="normal" font-weight="normal" text-decoration="undefined" x="405.75634765625" y="677.5" text-anchor="middle" dominant-baseline="central" transform="matrix(1 0 0 1 -270 -134)">1..*</text></g></g><g><rect fill="#C0C0C0" stroke="none" x="759" y="823" width="129.83740234375" height="103" transform="matrix(1 0 0 1 -270 -134)" fill-opacity="0.2"/></g><g><rect fill="#ffffff" stroke="none" x="752" y="816" width="129.83740234375" height="103" transform="matrix(1 0 0 1 -270 -134)"/></g><g><path fill="none" stroke="#000000" paint-order="fill stroke markers" d=" M 482 682 L 611.83740234375 682 L 611.83740234375 785 L 482 785 L 482 682 Z Z" stroke-miterlimit="10" stroke-dasharray=""/></g><g><path fill="none" stroke="#000000" paint-order="fill stroke markers" d=" M 482 707 L 611.83740234375 707" stroke-miterlimit="10" stroke-dasharray=""/></g><g><path fill="none" stroke="#000000" paint-order="fill stroke markers" d=" M 482 760 L 611.83740234375 760" stroke-miterlimit="10" stroke-dasharray=""/></g><g><g><path fill="none" stroke="none"/><text fill="#000000" stroke="none" font-family="Arial" font-size="13px" font-style="normal" font-weight="bold" text-decoration="undefined" x="817.418701171875" y="829.5" text-anchor="middle" dominant-baseline="central" transform="matrix(1 0 0 1 -270 -134)">statistique</text></g></g><g><g><path fill="none" stroke="none"/><text fill="#000000" stroke="none" font-family="Arial" font-size="13px" font-style="normal" font-weight="normal" text-decoration="undefined" x="757" y="852.5" text-anchor="start" dominant-baseline="central" transform="matrix(1 0 0 1 -270 -134)">-id: int</text></g></g><g><g><path fill="none" stroke="none"/><text fill="#000000" stroke="none" font-family="Arial" font-size="13px" font-style="normal" font-weight="normal" text-decoration="undefined" x="757" y="867.5" text-anchor="start" dominant-baseline="central" transform="matrix(1 0 0 1 -270 -134)">+nbBilletVendus: int</text></g></g><g><g><path fill="none" stroke="none"/><text fill="#000000" stroke="none" font-family="Arial" font-size="13px" font-style="normal" font-weight="normal" text-decoration="undefined" x="757" y="882.5" text-anchor="start" dominant-baseline="central" transform="matrix(1 0 0 1 -270 -134)">+chiffreDaffaire: float</text></g></g><g><g><path fill="none" stroke="none"/><text fill="#000000" stroke="none" font-family="Arial" font-size="13px" font-style="normal" font-weight="normal" text-decoration="undefined" x="757" y="905.5" text-anchor="start" dominant-baseline="central" transform="matrix(1 0 0 1 -270 -134)">+calculerS()</text></g></g><g><path fill="none" stroke="#000000" paint-order="fill stroke markers" d=" M 367 611 L 481 689" stroke-miterlimit="10" stroke-dasharray=""/></g><g><rect fill="#ffffff" stroke="none" x="674" y="765" width="56.74169921875" height="13" transform="matrix(1 0 0 1 -270 -134)"/></g><g><g><path fill="none" stroke="none"/><text fill="#000000" stroke="none" font-family="Arial" font-size="13px" font-style="normal" font-weight="normal" text-decoration="undefined" x="702.370849609375" y="771.5" text-anchor="middle" dominant-baseline="central" transform="matrix(1 0 0 1 -270 -134)">+possede</text></g></g><g><rect fill="#ffffff" stroke="none" x="644" y="761" width="7.22998046875" height="13" transform="matrix(1 0 0 1 -270 -134)"/></g><g><g><path fill="none" stroke="none"/><text fill="#000000" stroke="none" font-family="Arial" font-size="13px" font-style="normal" font-weight="normal" text-decoration="undefined" x="647.614990234375" y="767.5" text-anchor="middle" dominant-baseline="central" transform="matrix(1 0 0 1 -270 -134)">1</text></g></g><g><rect fill="#ffffff" stroke="none" x="723" y="815" width="7.22998046875" height="13" transform="matrix(1 0 0 1 -270 -134)"/></g><g><g><path fill="none" stroke="none"/><text fill="#000000" stroke="none" font-family="Arial" font-size="13px" font-style="normal" font-weight="normal" text-decoration="undefined" x="726.614990234375" y="821.5" text-anchor="middle" dominant-baseline="central" transform="matrix(1 0 0 1 -270 -134)">1</text></g></g><g><path fill="none" stroke="#000000" paint-order="fill stroke markers" d=" M 697 609 L 367 565" stroke-miterlimit="10" stroke-dasharray=""/></g><g><rect fill="#ffffff" stroke="none" x="780" y="729" width="41.55810546875" height="13" transform="matrix(1 0 0 1 -270 -134)"/></g><g><g><path fill="none" stroke="none"/><text fill="#000000" stroke="none" font-family="Arial" font-size="13px" font-style="normal" font-weight="normal" text-decoration="undefined" x="800.779052734375" y="735.5" text-anchor="middle" dominant-baseline="central" transform="matrix(1 0 0 1 -270 -134)">+valide</text></g></g><g><rect fill="#ffffff" stroke="none" x="944" y="721" width="7.22998046875" height="13" transform="matrix(1 0 0 1 -270 -134)"/></g><g><g><path fill="none" stroke="none"/><text fill="#000000" stroke="none" font-family="Arial" font-size="13px" font-style="normal" font-weight="normal" text-decoration="undefined" x="947.614990234375" y="727.5" text-anchor="middle" dominant-baseline="central" transform="matrix(1 0 0 1 -270 -134)">1</text></g></g><g><rect fill="#ffffff" stroke="none" x="651" y="683" width="19.5126953125" height="13" transform="matrix(1 0 0 1 -270 -134)"/></g><g><g><path fill="none" stroke="none"/><text fill="#000000" stroke="none" font-family="Arial" font-size="13px" font-style="normal" font-weight="normal" text-decoration="undefined" x="660.75634765625" y="689.5" text-anchor="middle" dominant-baseline="central" transform="matrix(1 0 0 1 -270 -134)">0..*</text></g></g><g><path fill="none" stroke="#000000" paint-order="fill stroke markers" d=" M 60 497 L 58 258 L 201 255" stroke-miterlimit="10" stroke-dasharray=""/></g><g><path fill="#FFFFFF" stroke="none" paint-order="stroke fill markers" d=" M 190.9278529331316 259.4217477837812 L 201 255 L 190.75126866530087 251.0045643505174 L 179.0048397150531 255.46143692905486"/></g><g><path fill="none" stroke="#000000" paint-order="fill stroke markers" d=" M 190.9278529331316 259.4217477837812 L 201 255 L 190.75126866530087 251.0045643505174 L 179.0048397150531 255.46143692905486 L 190.9278529331316 259.4217477837812" stroke-miterlimit="10" stroke-dasharray=""/></g><g><rect fill="#ffffff" stroke="none" x="333" y="603" width="19.5126953125" height="13" transform="matrix(1 0 0 1 -270 -134)"/></g><g><g><path fill="none" stroke="none"/><text fill="#000000" stroke="none" font-family="Arial" font-size="13px" font-style="normal" font-weight="normal" text-decoration="undefined" x="342.75634765625" y="609.5" text-anchor="middle" dominant-baseline="central" transform="matrix(1 0 0 1 -270 -134)">0..*</text></g></g><g><rect fill="#ffffff" stroke="none" x="446" y="395" width="7.22998046875" height="13" transform="matrix(1 0 0 1 -270 -134)"/></g><g><g><path fill="none" stroke="none"/><text fill="#000000" stroke="none" font-family="Arial" font-size="13px" font-style="normal" font-weight="normal" text-decoration="undefined" x="449.614990234375" y="401.5" text-anchor="middle" dominant-baseline="central" transform="matrix(1 0 0 1 -270 -134)">1</text></g></g></g></svg>