<svg version="1.1" xmlns="http://www.w3.org/2000/svg" xmlns:xlink="http://www.w3.org/1999/xlink" width="2565" height="2484"><defs/><g><g><rect fill="#C0C0C0" stroke="none" x="975" y="1047" width="2288" height="2464" transform="matrix(1 0 0 1 -702 -1030)" fill-opacity="0.2"/></g><g><rect fill="#ffffff" stroke="none" x="968" y="1040" width="2288" height="2464" transform="matrix(1 0 0 1 -702 -1030)"/></g><g><path fill="none" stroke="#000000" paint-order="fill stroke markers" d=" M 266 10 L 2554 10 L 2554 2474 L 266 2474 L 266 10 Z Z" stroke-miterlimit="10" stroke-dasharray=""/></g><g><g><path fill="none" stroke="none"/><text fill="#000000" stroke="none" font-family="Arial" font-size="13px" font-style="normal" font-weight="bold" text-decoration="undefined" x="2112.5" y="1053.5" text-anchor="middle" dominant-baseline="central" transform="matrix(1 0 0 1 -702 -1030)">gestion de colocation</text></g></g><g><path fill="#ffffff" stroke="none" paint-order="stroke fill markers" d=" M 75.15854545454545 1678.8900000000003 C 75.15854545454545 1663.4867769280004 87.17587264465453 1651 102 1651 C 116.82412735534547 1651 128.84145454545455 1663.4867769280004 128.84145454545455 1678.8900000000003 C 128.84145454545455 1694.2932230720003 116.82412735534547 1706.7800000000002 102 1706.7800000000002 C 87.17587264465453 1706.7800000000002 75.15854545454545 1694.2932230720003 75.15854545454545 1678.8900000000003 Z"/></g><g><path fill="none" stroke="#000000" paint-order="fill stroke markers" d=" M 75.15854545454545 1678.8900000000003 C 75.15854545454545 1663.4867769280004 87.17587264465453 1651 102 1651 C 116.82412735534547 1651 128.84145454545455 1663.4867769280004 128.84145454545455 1678.8900000000003 C 128.84145454545455 1694.2932230720003 116.82412735534547 1706.7800000000002 102 1706.7800000000002 C 87.17587264465453 1706.7800000000002 75.15854545454545 1694.2932230720003 75.15854545454545 1678.8900000000003 Z" stroke-miterlimit="10" stroke-dasharray=""/></g><g><path fill="none" stroke="#000000" paint-order="fill stroke markers" d=" M 102 1706.7800000000002 L 102 1760.2199999999998" stroke-miterlimit="10" stroke-dasharray=""/></g><g><path fill="none" stroke="#000000" paint-order="fill stroke markers" d=" M 73.57963636363638 1726.8200000000002 L 130.42036363636362 1726.8200000000002" stroke-miterlimit="10" stroke-dasharray=""/></g><g><path fill="none" stroke="#000000" paint-order="fill stroke markers" d=" M 102 1760.2199999999998 L 62.5272727272727 1816" stroke-miterlimit="10" stroke-dasharray=""/></g><g><path fill="none" stroke="#000000" paint-order="fill stroke markers" d=" M 102 1760.2199999999998 L 141.4727272727273 1816" stroke-miterlimit="10" stroke-dasharray=""/></g><g><g><path fill="none" stroke="none"/><text fill="#000000" stroke="none" font-family="Arial" font-size="13px" font-style="normal" font-weight="bold" text-decoration="undefined" x="804.5" y="2860.5" text-anchor="middle" dominant-baseline="central" transform="matrix(1 0 0 1 -702 -1030)">Owner</text></g></g><g><path fill="#ffffff" stroke="none" paint-order="stroke fill markers" d=" M 64.44436363636373 485.53 C 64.44436363636373 470.877884256 75.88601048203645 459 90 459 C 104.11398951796355 459 115.55563636363627 470.877884256 115.55563636363627 485.53 C 115.55563636363627 500.18211574399993 104.11398951796355 512.06 90 512.06 C 75.88601048203645 512.06 64.44436363636373 500.18211574399993 64.44436363636373 485.53 Z"/></g><g><path fill="none" stroke="#000000" paint-order="fill stroke markers" d=" M 64.44436363636373 485.53 C 64.44436363636373 470.877884256 75.88601048203645 459 90 459 C 104.11398951796355 459 115.55563636363627 470.877884256 115.55563636363627 485.53 C 115.55563636363627 500.18211574399993 104.11398951796355 512.06 90 512.06 C 75.88601048203645 512.06 64.44436363636373 500.18211574399993 64.44436363636373 485.53 Z" stroke-miterlimit="10" stroke-dasharray=""/></g><g><path fill="none" stroke="#000000" paint-order="fill stroke markers" d=" M 90 512.06 L 90 562.94" stroke-miterlimit="10" stroke-dasharray=""/></g><g><path fill="none" stroke="#000000" paint-order="fill stroke markers" d=" M 62.94109090909092 531.1400000000001 L 117.05890909090908 531.1400000000001" stroke-miterlimit="10" stroke-dasharray=""/></g><g><path fill="none" stroke="#000000" paint-order="fill stroke markers" d=" M 90 562.94 L 52.41818181818189 616" stroke-miterlimit="10" stroke-dasharray=""/></g><g><path fill="none" stroke="#000000" paint-order="fill stroke markers" d=" M 90 562.94 L 127.58181818181811 616" stroke-miterlimit="10" stroke-dasharray=""/></g><g><g><path fill="none" stroke="none"/><text fill="#000000" stroke="none" font-family="Arial" font-size="13px" font-style="normal" font-weight="bold" text-decoration="undefined" x="792.5" y="1660.5" text-anchor="middle" dominant-baseline="central" transform="matrix(1 0 0 1 -702 -1030)">Member</text></g></g><g><path fill="#ffffff" stroke="none" paint-order="stroke fill markers" d=" M 76.44436363636373 2229.5299999999997 C 76.44436363636373 2214.8778842559996 87.88601048203645 2203 102 2203 C 116.11398951796355 2203 127.55563636363627 2214.8778842559996 127.55563636363627 2229.5299999999997 C 127.55563636363627 2244.182115744 116.11398951796355 2256.06 102 2256.06 C 87.88601048203645 2256.06 76.44436363636373 2244.182115744 76.44436363636373 2229.5299999999997 Z"/></g><g><path fill="none" stroke="#000000" paint-order="fill stroke markers" d=" M 76.44436363636373 2229.5299999999997 C 76.44436363636373 2214.8778842559996 87.88601048203645 2203 102 2203 C 116.11398951796355 2203 127.55563636363627 2214.8778842559996 127.55563636363627 2229.5299999999997 C 127.55563636363627 2244.182115744 116.11398951796355 2256.06 102 2256.06 C 87.88601048203645 2256.06 76.44436363636373 2244.182115744 76.44436363636373 2229.5299999999997 Z" stroke-miterlimit="10" stroke-dasharray=""/></g><g><path fill="none" stroke="#000000" paint-order="fill stroke markers" d=" M 102 2256.06 L 102 2306.94" stroke-miterlimit="10" stroke-dasharray=""/></g><g><path fill="none" stroke="#000000" paint-order="fill stroke markers" d=" M 74.94109090909092 2275.14 L 129.05890909090908 2275.14" stroke-miterlimit="10" stroke-dasharray=""/></g><g><path fill="none" stroke="#000000" paint-order="fill stroke markers" d=" M 102 2306.94 L 64.41818181818189 2360" stroke-miterlimit="10" stroke-dasharray=""/></g><g><path fill="none" stroke="#000000" paint-order="fill stroke markers" d=" M 102 2306.94 L 139.5818181818181 2360" stroke-miterlimit="10" stroke-dasharray=""/></g><g><g><path fill="none" stroke="none"/><text fill="#000000" stroke="none" font-family="Arial" font-size="13px" font-style="normal" font-weight="bold" text-decoration="undefined" x="804.5" y="3404.5" text-anchor="middle" dominant-baseline="central" transform="matrix(1 0 0 1 -702 -1030)">Admin global</text></g></g><g><path fill="#C0C0C0" stroke="none" paint-order="stroke fill markers" d=" M 2281 1257 C 2281 1239.3268864000001 2340.0984064 1225 2413 1225 C 2485.9015936 1225 2545 1239.3268864000001 2545 1257 C 2545 1274.6731135999999 2485.9015936 1289 2413 1289 C 2340.0984064 1289 2281 1274.6731135999999 2281 1257 Z" fill-opacity="0.2"/></g><g><path fill="#ffffff" stroke="none" paint-order="stroke fill markers" d=" M 2274 1250 C 2274 1232.3268864000001 2333.0984064 1218 2406 1218 C 2478.9015936 1218 2538 1232.3268864000001 2538 1250 C 2538 1267.6731135999999 2478.9015936 1282 2406 1282 C 2333.0984064 1282 2274 1267.6731135999999 2274 1250 Z"/></g><g><path fill="none" stroke="#000000" paint-order="fill stroke markers" d=" M 2274 1250 C 2274 1232.3268864000001 2333.0984064 1218 2406 1218 C 2478.9015936 1218 2538 1232.3268864000001 2538 1250 C 2538 1267.6731135999999 2478.9015936 1282 2406 1282 C 2333.0984064 1282 2274 1267.6731135999999 2274 1250 Z" stroke-miterlimit="10" stroke-dasharray=""/></g><g><g><path fill="none" stroke="none"/><text fill="#000000" stroke="none" font-family="Arial" font-size="13px" font-style="normal" font-weight="bold" text-decoration="undefined" x="3108" y="2281" text-anchor="middle" dominant-baseline="central" transform="matrix(1 0 0 1 -702 -1030)">Se connecter</text></g></g><g><path fill="#C0C0C0" stroke="none" paint-order="stroke fill markers" d=" M 441 229 C 441 213.5360255999999 503.68012799999997 201 581 201 C 658.319872 201 721 213.5360255999999 721 229 C 721 244.4639744000001 658.319872 257 581 257 C 503.68012799999997 257 441 244.4639744000001 441 229 Z" fill-opacity="0.2"/></g><g><path fill="#ffffff" stroke="none" paint-order="stroke fill markers" d=" M 434 222 C 434 206.5360255999999 496.68012799999997 194 574 194 C 651.319872 194 714 206.5360255999999 714 222 C 714 237.4639744000001 651.319872 250 574 250 C 496.68012799999997 250 434 237.4639744000001 434 222 Z"/></g><g><path fill="none" stroke="#000000" paint-order="fill stroke markers" d=" M 434 222 C 434 206.5360255999999 496.68012799999997 194 574 194 C 651.319872 194 714 206.5360255999999 714 222 C 714 237.4639744000001 651.319872 250 574 250 C 496.68012799999997 250 434 237.4639744000001 434 222 Z" stroke-miterlimit="10" stroke-dasharray=""/></g><g><g><path fill="none" stroke="none"/><text fill="#000000" stroke="none" font-family="Arial" font-size="13px" font-style="normal" font-weight="bold" text-decoration="undefined" x="1276" y="1253" text-anchor="middle" dominant-baseline="central" transform="matrix(1 0 0 1 -702 -1030)">Gérer son profil</text></g></g><g><path fill="#C0C0C0" stroke="none" paint-order="stroke fill markers" d=" M 801 2417 C 801 2399.3268864 856.5166847999999 2385 925 2385 C 993.4833152000001 2385 1049 2399.3268864 1049 2417 C 1049 2434.6731136 993.4833152000001 2449 925 2449 C 856.5166847999999 2449 801 2434.6731136 801 2417 Z" fill-opacity="0.2"/></g><g><path fill="#ffffff" stroke="none" paint-order="stroke fill markers" d=" M 794 2410 C 794 2392.3268864 849.5166847999999 2378 918 2378 C 986.4833152000001 2378 1042 2392.3268864 1042 2410 C 1042 2427.6731136 986.4833152000001 2442 918 2442 C 849.5166847999999 2442 794 2427.6731136 794 2410 Z"/></g><g><path fill="none" stroke="#000000" paint-order="fill stroke markers" d=" M 794 2410 C 794 2392.3268864 849.5166847999999 2378 918 2378 C 986.4833152000001 2378 1042 2392.3268864 1042 2410 C 1042 2427.6731136 986.4833152000001 2442 918 2442 C 849.5166847999999 2442 794 2427.6731136 794 2410 Z" stroke-miterlimit="10" stroke-dasharray=""/></g><g><g><path fill="none" stroke="none"/><text fill="#000000" stroke="none" font-family="Arial" font-size="13px" font-style="normal" font-weight="bold" text-decoration="undefined" x="1620" y="3441" text-anchor="middle" dominant-baseline="central" transform="matrix(1 0 0 1 -702 -1030)">Débannir un utilisateur</text></g></g><g><path fill="#C0C0C0" stroke="none" paint-order="stroke fill markers" d=" M 769 2321 C 769 2303.3268864 824.5166847999999 2289 893 2289 C 961.4833152000001 2289 1017 2303.3268864 1017 2321 C 1017 2338.6731136 961.4833152000001 2353 893 2353 C 824.5166847999999 2353 769 2338.6731136 769 2321 Z" fill-opacity="0.2"/></g><g><path fill="#ffffff" stroke="none" paint-order="stroke fill markers" d=" M 762 2314 C 762 2296.3268864 817.5166847999999 2282 886 2282 C 954.4833152000001 2282 1010 2296.3268864 1010 2314 C 1010 2331.6731136 954.4833152000001 2346 886 2346 C 817.5166847999999 2346 762 2331.6731136 762 2314 Z"/></g><g><path fill="none" stroke="#000000" paint-order="fill stroke markers" d=" M 762 2314 C 762 2296.3268864 817.5166847999999 2282 886 2282 C 954.4833152000001 2282 1010 2296.3268864 1010 2314 C 1010 2331.6731136 954.4833152000001 2346 886 2346 C 817.5166847999999 2346 762 2331.6731136 762 2314 Z" stroke-miterlimit="10" stroke-dasharray=""/></g><g><g><path fill="none" stroke="none"/><text fill="#000000" stroke="none" font-family="Arial" font-size="13px" font-style="normal" font-weight="bold" text-decoration="undefined" x="1588" y="3345" text-anchor="middle" dominant-baseline="central" transform="matrix(1 0 0 1 -702 -1030)">Bannir un utilisateur</text></g></g><g><path fill="#C0C0C0" stroke="none" paint-order="stroke fill markers" d=" M 489 2349 C 489 2329.1177472 539.1441024000001 2313 601 2313 C 662.8558975999999 2313 713 2329.1177472 713 2349 C 713 2368.8822528 662.8558975999999 2385 601 2385 C 539.1441024000001 2385 489 2368.8822528 489 2349 Z" fill-opacity="0.2"/></g><g><path fill="#ffffff" stroke="none" paint-order="stroke fill markers" d=" M 482 2342 C 482 2322.1177472 532.1441024000001 2306 594 2306 C 655.8558975999999 2306 706 2322.1177472 706 2342 C 706 2361.8822528 655.8558975999999 2378 594 2378 C 532.1441024000001 2378 482 2361.8822528 482 2342 Z"/></g><g><path fill="none" stroke="#000000" paint-order="fill stroke markers" d=" M 482 2342 C 482 2322.1177472 532.1441024000001 2306 594 2306 C 655.8558975999999 2306 706 2322.1177472 706 2342 C 706 2361.8822528 655.8558975999999 2378 594 2378 C 532.1441024000001 2378 482 2361.8822528 482 2342 Z" stroke-miterlimit="10" stroke-dasharray=""/></g><g><g><path fill="none" stroke="none"/><text fill="#000000" stroke="none" font-family="Arial" font-size="13px" font-style="normal" font-weight="bold" text-decoration="undefined" x="1296" y="3373" text-anchor="middle" dominant-baseline="central" transform="matrix(1 0 0 1 -702 -1030)">Gestion des utilisateurs</text></g></g><g><path fill="#C0C0C0" stroke="none" paint-order="stroke fill markers" d=" M 1425 609 C 1425 595.7451648000001 1481.1882575999998 585 1550.5 585 C 1619.8117424000002 585 1676 595.7451648000001 1676 609 C 1676 622.2548351999999 1619.8117424000002 633 1550.5 633 C 1481.1882575999998 633 1425 622.2548351999999 1425 609 Z" fill-opacity="0.2"/></g><g><path fill="#ffffff" stroke="none" paint-order="stroke fill markers" d=" M 1418 602 C 1418 588.7451648000001 1474.1882575999998 578 1543.5 578 C 1612.8117424000002 578 1669 588.7451648000001 1669 602 C 1669 615.2548351999999 1612.8117424000002 626 1543.5 626 C 1474.1882575999998 626 1418 615.2548351999999 1418 602 Z"/></g><g><path fill="none" stroke="#000000" paint-order="fill stroke markers" d=" M 1418 602 C 1418 588.7451648000001 1474.1882575999998 578 1543.5 578 C 1612.8117424000002 578 1669 588.7451648000001 1669 602 C 1669 615.2548351999999 1612.8117424000002 626 1543.5 626 C 1474.1882575999998 626 1418 615.2548351999999 1418 602 Z" stroke-miterlimit="10" stroke-dasharray=""/></g><g><g><path fill="none" stroke="none"/><text fill="#000000" stroke="none" font-family="Arial" font-size="13px" font-style="normal" font-weight="bold" text-decoration="undefined" x="2245.5" y="1633" text-anchor="middle" dominant-baseline="central" transform="matrix(1 0 0 1 -702 -1030)">Recalculer dette et balance</text></g></g><g><path fill="#C0C0C0" stroke="none" paint-order="stroke fill markers" d=" M 993 601 C 993 587.7451648000001 1039.5623808 577 1097 577 C 1154.4376192 577 1201 587.7451648000001 1201 601 C 1201 614.2548351999999 1154.4376192 625 1097 625 C 1039.5623808 625 993 614.2548351999999 993 601 Z" fill-opacity="0.2"/></g><g><path fill="#ffffff" stroke="none" paint-order="stroke fill markers" d=" M 986 594 C 986 580.7451648000001 1032.5623808 570 1090 570 C 1147.4376192 570 1194 580.7451648000001 1194 594 C 1194 607.2548351999999 1147.4376192 618 1090 618 C 1032.5623808 618 986 607.2548351999999 986 594 Z"/></g><g><path fill="none" stroke="#000000" paint-order="fill stroke markers" d=" M 986 594 C 986 580.7451648000001 1032.5623808 570 1090 570 C 1147.4376192 570 1194 580.7451648000001 1194 594 C 1194 607.2548351999999 1147.4376192 618 1090 618 C 1032.5623808 618 986 607.2548351999999 986 594 Z" stroke-miterlimit="10" stroke-dasharray=""/></g><g><g><path fill="none" stroke="none"/><text fill="#000000" stroke="none" font-family="Arial" font-size="13px" font-style="normal" font-weight="bold" text-decoration="undefined" x="1792" y="1625" text-anchor="middle" dominant-baseline="central" transform="matrix(1 0 0 1 -702 -1030)">Ajouter une dépense</text></g></g><g><path fill="#C0C0C0" stroke="none" paint-order="stroke fill markers" d=" M 945 681 C 945 667.7451648000001 994.2486719999999 657 1055 657 C 1115.751328 657 1165 667.7451648000001 1165 681 C 1165 694.2548351999999 1115.751328 705 1055 705 C 994.2486719999999 705 945 694.2548351999999 945 681 Z" fill-opacity="0.2"/></g><g><path fill="#ffffff" stroke="none" paint-order="stroke fill markers" d=" M 938 674 C 938 660.7451648000001 987.2486719999999 650 1048 650 C 1108.751328 650 1158 660.7451648000001 1158 674 C 1158 687.2548351999999 1108.751328 698 1048 698 C 987.2486719999999 698 938 687.2548351999999 938 674 Z"/></g><g><path fill="none" stroke="#000000" paint-order="fill stroke markers" d=" M 938 674 C 938 660.7451648000001 987.2486719999999 650 1048 650 C 1108.751328 650 1158 660.7451648000001 1158 674 C 1158 687.2548351999999 1108.751328 698 1048 698 C 987.2486719999999 698 938 687.2548351999999 938 674 Z" stroke-miterlimit="10" stroke-dasharray=""/></g><g><g><path fill="none" stroke="none"/><text fill="#000000" stroke="none" font-family="Arial" font-size="13px" font-style="normal" font-weight="bold" text-decoration="undefined" x="1750" y="1705" text-anchor="middle" dominant-baseline="central" transform="matrix(1 0 0 1 -702 -1030)">Consulter les dépenses</text></g></g><g><path fill="#C0C0C0" stroke="none" paint-order="stroke fill markers" d=" M 929 761 C 929 747.7451648000001 988.9938368 737 1063 737 C 1137.0061632 737 1197 747.7451648000001 1197 761 C 1197 774.2548351999999 1137.0061632 785 1063 785 C 988.9938368 785 929 774.2548351999999 929 761 Z" fill-opacity="0.2"/></g><g><path fill="#ffffff" stroke="none" paint-order="stroke fill markers" d=" M 922 754 C 922 740.7451648000001 981.9938368 730 1056 730 C 1130.0061632 730 1190 740.7451648000001 1190 754 C 1190 767.2548351999999 1130.0061632 778 1056 778 C 981.9938368 778 922 767.2548351999999 922 754 Z"/></g><g><path fill="none" stroke="#000000" paint-order="fill stroke markers" d=" M 922 754 C 922 740.7451648000001 981.9938368 730 1056 730 C 1130.0061632 730 1190 740.7451648000001 1190 754 C 1190 767.2548351999999 1130.0061632 778 1056 778 C 981.9938368 778 922 767.2548351999999 922 754 Z" stroke-miterlimit="10" stroke-dasharray=""/></g><g><g><path fill="none" stroke="none"/><text fill="#000000" stroke="none" font-family="Arial" font-size="13px" font-style="normal" font-weight="bold" text-decoration="undefined" x="1758" y="1785" text-anchor="middle" dominant-baseline="central" transform="matrix(1 0 0 1 -702 -1030)">Filtrer les dépenses par mois</text></g></g><g><path fill="none" stroke="#000000" paint-order="fill stroke markers" d=" M 993 619 L 747 683" stroke-miterlimit="10" stroke-dasharray=""/></g><g><path fill="#FFFFFF" stroke="none" paint-order="stroke fill markers" d=" M 764.5507964729368 669.7346487733814 L 747 683 L 768.7903070084019 686.0302673940753"/></g><g><path fill="none" stroke="#000000" paint-order="fill stroke markers" d=" M 764.5507964729368 669.7346487733814 L 747 683 L 768.7903070084019 686.0302673940753 L 764.5507964729368 669.7346487733814" stroke-miterlimit="10" stroke-dasharray=""/></g><g><path fill="none" stroke="#000000" paint-order="fill stroke markers" d=" M 937 686 L 747 706" stroke-miterlimit="10" stroke-dasharray=""/></g><g><path fill="#FFFFFF" stroke="none" paint-order="stroke fill markers" d=" M 766.3323262059221 695.4994684197507 L 747 706 L 768.0950160427758 712.2450218698602"/></g><g><path fill="none" stroke="#000000" paint-order="fill stroke markers" d=" M 766.3323262059221 695.4994684197507 L 747 706 L 768.0950160427758 712.2450218698602 L 766.3323262059221 695.4994684197507" stroke-miterlimit="10" stroke-dasharray=""/></g><g><path fill="none" stroke="#000000" paint-order="fill stroke markers" d=" M 921 745 L 747 733" stroke-miterlimit="10" stroke-dasharray=""/></g><g><path fill="#FFFFFF" stroke="none" paint-order="stroke fill markers" d=" M 767.8564325643472 725.9993414103499 L 747 733 L 766.6979380591233 742.7975117360963"/></g><g><path fill="none" stroke="#000000" paint-order="fill stroke markers" d=" M 767.8564325643472 725.9993414103499 L 747 733 L 766.6979380591233 742.7975117360963 L 767.8564325643472 725.9993414103499" stroke-miterlimit="10" stroke-dasharray=""/></g><g><path fill="#C0C0C0" stroke="none" paint-order="stroke fill markers" d=" M 817 153 C 817 139.7451648000001 865.3532416 129 925 129 C 984.6467584 129 1033 139.7451648000001 1033 153 C 1033 166.2548351999999 984.6467584 177 925 177 C 865.3532416 177 817 166.2548351999999 817 153 Z" fill-opacity="0.2"/></g><g><path fill="#ffffff" stroke="none" paint-order="stroke fill markers" d=" M 810 146 C 810 132.7451648000001 858.3532416 122 918 122 C 977.6467584 122 1026 132.7451648000001 1026 146 C 1026 159.2548351999999 977.6467584 170 918 170 C 858.3532416 170 810 159.2548351999999 810 146 Z"/></g><g><path fill="none" stroke="#000000" paint-order="fill stroke markers" d=" M 810 146 C 810 132.7451648000001 858.3532416 122 918 122 C 977.6467584 122 1026 132.7451648000001 1026 146 C 1026 159.2548351999999 977.6467584 170 918 170 C 858.3532416 170 810 159.2548351999999 810 146 Z" stroke-miterlimit="10" stroke-dasharray=""/></g><g><g><path fill="none" stroke="none"/><text fill="#000000" stroke="none" font-family="Arial" font-size="13px" font-style="normal" font-weight="bold" text-decoration="undefined" x="1620" y="1177" text-anchor="middle" dominant-baseline="central" transform="matrix(1 0 0 1 -702 -1030)">Consulter son profil</text></g></g><g><path fill="none" stroke="#000000" paint-order="fill stroke markers" d=" M 809 170 L 705 193" stroke-miterlimit="10" stroke-dasharray=""/></g><g><path fill="#FFFFFF" stroke="none" paint-order="stroke fill markers" d=" M 723.027848016988 180.39061080478587 L 705 193 L 726.663798189569 196.83142897645644"/></g><g><path fill="none" stroke="#000000" paint-order="fill stroke markers" d=" M 723.027848016988 180.39061080478587 L 705 193 L 726.663798189569 196.83142897645644 L 723.027848016988 180.39061080478587" stroke-miterlimit="10" stroke-dasharray=""/></g><g><path fill="none" stroke="#000000" paint-order="fill stroke markers" d=" M 841 214 L 715 218" stroke-miterlimit="10" stroke-dasharray=""/></g><g><path fill="#FFFFFF" stroke="none" paint-order="stroke fill markers" d=" M 735.047979008436 208.9402793819395 L 715 218 L 735.5822517906367 225.76987202126452"/></g><g><path fill="none" stroke="#000000" paint-order="fill stroke markers" d=" M 735.047979008436 208.9402793819395 L 715 218 L 735.5822517906367 225.76987202126452 L 735.047979008436 208.9402793819395" stroke-miterlimit="10" stroke-dasharray=""/></g><g><path fill="none" stroke="#000000" paint-order="fill stroke markers" d=" M 817 250 L 715 238" stroke-miterlimit="10" stroke-dasharray=""/></g><g><path fill="#FFFFFF" stroke="none" paint-order="stroke fill markers" d=" M 736.1698239653126 232.013469011383 L 715 238 L 734.2024427402325 248.73620942456364"/></g><g><path fill="none" stroke="#000000" paint-order="fill stroke markers" d=" M 736.1698239653126 232.013469011383 L 715 238 L 734.2024427402325 248.73620942456364 L 736.1698239653126 232.013469011383" stroke-miterlimit="10" stroke-dasharray=""/></g><g><path fill="none" stroke="#000000" paint-order="fill stroke markers" d=" M 945 2099 L 729 2169" stroke-miterlimit="10" stroke-dasharray=""/></g><g><path fill="#FFFFFF" stroke="none" paint-order="stroke fill markers" d=" M 745.7398574486538 2154.7249457934918 L 729 2169 L 750.9308543492668 2170.7428790868116"/></g><g><path fill="none" stroke="#000000" paint-order="fill stroke markers" d=" M 745.7398574486538 2154.7249457934918 L 729 2169 L 750.9308543492668 2170.7428790868116 L 745.7398574486538 2154.7249457934918" stroke-miterlimit="10" stroke-dasharray=""/></g><g><path fill="none" stroke="#000000" paint-order="fill stroke markers" d=" M 945 2168 L 749 2191" stroke-miterlimit="10" stroke-dasharray=""/></g><g><path fill="#FFFFFF" stroke="none" paint-order="stroke fill markers" d=" M 768.2056201726407 2180.2694756053465 L 749 2191 L 770.1680508261147 2196.99279769582"/></g><g><path fill="none" stroke="#000000" paint-order="fill stroke markers" d=" M 768.2056201726407 2180.2694756053465 L 749 2191 L 770.1680508261147 2196.99279769582 L 768.2056201726407 2180.2694756053465" stroke-miterlimit="10" stroke-dasharray=""/></g><g><path fill="none" stroke="#000000" paint-order="fill stroke markers" d=" M 969 2218 L 749 2211" stroke-miterlimit="10" stroke-dasharray=""/></g><g><path fill="#FFFFFF" stroke="none" paint-order="stroke fill markers" d=" M 769.5828117683104 2203.2316115113686 L 749 2211 L 769.0473259564612 2220.061165598056"/></g><g><path fill="none" stroke="#000000" paint-order="fill stroke markers" d=" M 769.5828117683104 2203.2316115113686 L 749 2211 L 769.0473259564612 2220.061165598056 L 769.5828117683104 2203.2316115113686" stroke-miterlimit="10" stroke-dasharray=""/></g><g><path fill="none" stroke="#000000" paint-order="fill stroke markers" d=" M 969 2257 L 749 2225" stroke-miterlimit="10" stroke-dasharray=""/></g><g><path fill="#FFFFFF" stroke="none" paint-order="stroke fill markers" d=" M 770.3255251245885 2219.5942643275366 L 749 2225 L 767.9018557792615 2236.2569910766597"/></g><g><path fill="none" stroke="#000000" paint-order="fill stroke markers" d=" M 770.3255251245885 2219.5942643275366 L 749 2225 L 767.9018557792615 2236.2569910766597 L 770.3255251245885 2219.5942643275366" stroke-miterlimit="10" stroke-dasharray=""/></g><g><path fill="none" stroke="#000000" paint-order="fill stroke markers" d=" M 761 2326 L 707 2331" stroke-miterlimit="10" stroke-dasharray=""/></g><g><path fill="#FFFFFF" stroke="none" paint-order="stroke fill markers" d=" M 726.4625574170277 2320.7428630315812 L 707 2331 L 728.014997434741 2337.5092152228844"/></g><g><path fill="none" stroke="#000000" paint-order="fill stroke markers" d=" M 726.4625574170277 2320.7428630315812 L 707 2331 L 728.014997434741 2337.5092152228844 L 726.4625574170277 2320.7428630315812" stroke-miterlimit="10" stroke-dasharray=""/></g><g><path fill="none" stroke="#000000" paint-order="fill stroke markers" d=" M 793 2384 L 707 2366" stroke-miterlimit="10" stroke-dasharray=""/></g><g><path fill="#FFFFFF" stroke="none" paint-order="stroke fill markers" d=" M 728.619011925937 2361.9234422184645 L 707 2366 L 725.1695115866053 2378.4043882841606"/></g><g><path fill="none" stroke="#000000" paint-order="fill stroke markers" d=" M 728.619011925937 2361.9234422184645 L 707 2366 L 725.1695115866053 2378.4043882841606 L 728.619011925937 2361.9234422184645" stroke-miterlimit="10" stroke-dasharray=""/></g><g><path fill="none" stroke="#000000" paint-order="fill stroke markers" d=" M 171 462 L 519 83" stroke-miterlimit="10" stroke-dasharray=""/></g><g><path fill="none" stroke="#000000" paint-order="fill stroke markers" d=" M 171 495 L 531 251" stroke-miterlimit="10" stroke-dasharray=""/></g><g><path fill="none" stroke="#000000" paint-order="fill stroke markers" d=" M 171 547 L 425 539" stroke-miterlimit="10" stroke-dasharray=""/></g><g><path fill="none" stroke="#000000" paint-order="fill stroke markers" d=" M 171 578 L 474 681" stroke-miterlimit="10" stroke-dasharray=""/></g><g><path fill="none" stroke="#000000" paint-order="fill stroke markers" d=" M 171 618 L 602 977" stroke-miterlimit="10" stroke-dasharray=""/></g><g><path fill="none" stroke="#000000" paint-order="fill stroke markers" d=" M 171 594 L 591 825" stroke-miterlimit="10" stroke-dasharray=""/></g><g><path fill="none" stroke="#000000" paint-order="fill stroke markers" d=" M 171 643 L 580 1113" stroke-miterlimit="10" stroke-dasharray=""/></g><g><path fill="none" stroke="#000000" paint-order="fill stroke markers" d=" M 144 643 L 546 1337" stroke-miterlimit="10" stroke-dasharray=""/></g><g><path fill="none" stroke="#000000" paint-order="fill stroke markers" d=" M 179 1711 L 491 1571" stroke-miterlimit="10" stroke-dasharray=""/></g><g><path fill="none" stroke="#000000" paint-order="fill stroke markers" d=" M 179 1728 L 457 1663" stroke-miterlimit="10" stroke-dasharray=""/></g><g><path fill="none" stroke="#000000" paint-order="fill stroke markers" d=" M 179 1750 L 449 1766" stroke-miterlimit="10" stroke-dasharray=""/></g><g><path fill="none" stroke="#000000" paint-order="fill stroke markers" d=" M 179 1765 L 485 1841" stroke-miterlimit="10" stroke-dasharray=""/></g><g><path fill="none" stroke="#000000" paint-order="fill stroke markers" d=" M 179 1780 L 536 1937" stroke-miterlimit="10" stroke-dasharray=""/></g><g><path fill="none" stroke="#000000" paint-order="fill stroke markers" d=" M 195 2278 L 481 2229" stroke-miterlimit="10" stroke-dasharray=""/></g><g><path fill="none" stroke="#000000" paint-order="fill stroke markers" d=" M 195 2303 L 481 2331" stroke-miterlimit="10" stroke-dasharray=""/></g><g><path fill="none" stroke="#000000" paint-order="fill stroke markers" d=" M 101 1649 L 91 643" stroke-miterlimit="10" stroke-dasharray=""/></g><g><path fill="#FFFFFF" stroke="none" paint-order="stroke fill markers" d=" M 99.62065086587234 663.2406615170732 L 91 643 L 82.7834116710759 663.4080296999241"/></g><g><path fill="none" stroke="#000000" paint-order="fill stroke markers" d=" M 99.62065086587234 663.2406615170732 L 91 643 L 82.7834116710759 663.4080296999241 L 99.62065086587234 663.2406615170732" stroke-miterlimit="10" stroke-dasharray=""/></g><g><path fill="none" stroke="#000000" paint-order="fill stroke markers" d=" M 1417 600 L 1195 596" stroke-miterlimit="10" stroke-dasharray="3"/></g><g><path fill="none" stroke="#000000" paint-order="fill stroke markers" d=" M 1205.236860466124 591.9742469279515 L 1195 596 L 1205.0851907502847 600.3919161570288" stroke-miterlimit="10" stroke-dasharray=""/></g><g><rect fill="#ffffff" stroke="none" x="1981" y="1625" width="55.65625" height="13" transform="matrix(1 0 0 1 -702 -1030)"/></g><g><g><path fill="none" stroke="none"/><text fill="#000000" stroke="none" font-family="Arial" font-size="13px" font-style="normal" font-weight="normal" text-decoration="undefined" x="2008.828125" y="1631.5" text-anchor="middle" dominant-baseline="central" transform="matrix(1 0 0 1 -702 -1030)">«include»</text></g></g><g><path fill="none" stroke="#000000" paint-order="fill stroke markers" d=" M 1073 1160 L 775 1156" stroke-miterlimit="10" stroke-dasharray="3"/></g><g><path fill="none" stroke="#000000" paint-order="fill stroke markers" d=" M 785.2182579708078 1151.9272608674232 L 775 1156 L 785.1052609617207 1160.345538044423" stroke-miterlimit="10" stroke-dasharray=""/></g><g><rect fill="#ffffff" stroke="none" x="1591" y="2182" width="55.65625" height="13" transform="matrix(1 0 0 1 -702 -1030)"/></g><g><g><path fill="none" stroke="none"/><text fill="#000000" stroke="none" font-family="Arial" font-size="13px" font-style="normal" font-weight="normal" text-decoration="undefined" x="1618.828125" y="2188.5" text-anchor="middle" dominant-baseline="central" transform="matrix(1 0 0 1 -702 -1030)">«include»</text></g></g><g><path fill="none" stroke="#000000" paint-order="fill stroke markers" d=" M 993 1313 L 715 1356" stroke-miterlimit="10" stroke-dasharray="3"/></g><g><path fill="none" stroke="#000000" paint-order="fill stroke markers" d=" M 724.399783308987 1350.2865007443697 L 715 1356 L 725.6867045874294 1358.6065964515083" stroke-miterlimit="10" stroke-dasharray=""/></g><g><rect fill="#ffffff" stroke="none" x="1530" y="2358" width="55.65625" height="13" transform="matrix(1 0 0 1 -702 -1030)"/></g><g><g><path fill="none" stroke="none"/><text fill="#000000" stroke="none" font-family="Arial" font-size="13px" font-style="normal" font-weight="normal" text-decoration="undefined" x="1557.828125" y="2364.5" text-anchor="middle" dominant-baseline="central" transform="matrix(1 0 0 1 -702 -1030)">«include»</text></g></g><g><path fill="none" stroke="#000000" paint-order="fill stroke markers" d=" M 985 1441 L 715 1400" stroke-miterlimit="10" stroke-dasharray="3"/></g><g><path fill="none" stroke="#000000" paint-order="fill stroke markers" d=" M 725.6794707855227 1397.3639226602459 L 715 1400 L 724.4155143745993 1405.6875380492543" stroke-miterlimit="10" stroke-dasharray=""/></g><g><rect fill="#ffffff" stroke="none" x="1531" y="2446" width="55.65625" height="13" transform="matrix(1 0 0 1 -702 -1030)"/></g><g><g><path fill="none" stroke="none"/><text fill="#000000" stroke="none" font-family="Arial" font-size="13px" font-style="normal" font-weight="normal" text-decoration="undefined" x="1558.828125" y="2452.5" text-anchor="middle" dominant-baseline="central" transform="matrix(1 0 0 1 -702 -1030)">«include»</text></g></g><g><path fill="none" stroke="#000000" paint-order="fill stroke markers" d=" M 1009 1774 L 731 1774" stroke-miterlimit="10" stroke-dasharray="3"/></g><g><path fill="none" stroke="#000000" paint-order="fill stroke markers" d=" M 741.1626748576241 1769.7904822439841 L 731 1774 L 741.1626748576241 1778.2095177560159" stroke-miterlimit="10" stroke-dasharray=""/></g><g><rect fill="#ffffff" stroke="none" x="1560" y="2796" width="55.65625" height="13" transform="matrix(1 0 0 1 -702 -1030)"/></g><g><g><path fill="none" stroke="none"/><text fill="#000000" stroke="none" font-family="Arial" font-size="13px" font-style="normal" font-weight="normal" text-decoration="undefined" x="1587.828125" y="2802.5" text-anchor="middle" dominant-baseline="central" transform="matrix(1 0 0 1 -702 -1030)">«include»</text></g></g><g><path fill="none" stroke="#000000" paint-order="fill stroke markers" d=" M 857 352 L 667 374" stroke-miterlimit="10" stroke-dasharray=""/></g><g><path fill="#FFFFFF" stroke="none" paint-order="stroke fill markers" d=" M 686.2220858606547 363.298999338117 L 667 374 L 688.1588173941182 380.0253171271197"/></g><g><path fill="none" stroke="#000000" paint-order="fill stroke markers" d=" M 686.2220858606547 363.298999338117 L 667 374 L 688.1588173941182 380.0253171271197 L 686.2220858606547 363.298999338117" stroke-miterlimit="10" stroke-dasharray=""/></g><g><path fill="none" stroke="#000000" paint-order="fill stroke markers" d=" M 857 398 L 667 390" stroke-miterlimit="10" stroke-dasharray=""/></g><g><path fill="#FFFFFF" stroke="none" paint-order="stroke fill markers" d=" M 687.6615286028489 382.4434640347804 L 667 390 L 686.953184808041 399.26662916146756"/></g><g><path fill="none" stroke="#000000" paint-order="fill stroke markers" d=" M 687.6615286028489 382.4434640347804 L 667 390 L 686.953184808041 399.26662916146756 L 687.6615286028489 382.4434640347804" stroke-miterlimit="10" stroke-dasharray=""/></g><g><path fill="none" stroke="#000000" paint-order="fill stroke markers" d=" M 1038 315 L 1252 251" stroke-miterlimit="10" stroke-dasharray="3"/></g><g><path fill="none" stroke="#000000" paint-order="fill stroke markers" d=" M 1243.4695596127149 257.94489645703766 L 1252 251 L 1241.0572843762334 249.87885113505263" stroke-miterlimit="10" stroke-dasharray=""/></g><g><rect fill="#ffffff" stroke="none" x="1811" y="1303" width="55.65625" height="13" transform="matrix(1 0 0 1 -702 -1030)"/></g><g><g><path fill="none" stroke="none"/><text fill="#000000" stroke="none" font-family="Arial" font-size="13px" font-style="normal" font-weight="normal" text-decoration="undefined" x="1838.828125" y="1309.5" text-anchor="middle" dominant-baseline="central" transform="matrix(1 0 0 1 -702 -1030)">«include»</text></g></g><g><path fill="none" stroke="#000000" paint-order="fill stroke markers" d=" M 1038 333 L 1257 310" stroke-miterlimit="10" stroke-dasharray="3"/></g><g><path fill="none" stroke="#000000" paint-order="fill stroke markers" d=" M 1247.3325891868362 315.24796800385866 L 1257 310 L 1246.4532344945173 306.87498202047414" stroke-miterlimit="10" stroke-dasharray=""/></g><g><rect fill="#ffffff" stroke="none" x="1820" y="1345" width="55.65625" height="13" transform="matrix(1 0 0 1 -702 -1030)"/></g><g><g><path fill="none" stroke="none"/><text fill="#000000" stroke="none" font-family="Arial" font-size="13px" font-style="normal" font-weight="normal" text-decoration="undefined" x="1847.828125" y="1351.5" text-anchor="middle" dominant-baseline="central" transform="matrix(1 0 0 1 -702 -1030)">«include»</text></g></g><g><path fill="#C0C0C0" stroke="none" paint-order="stroke fill markers" d=" M 465 393 C 465 375.3268863999999 511.5623808 361 569 361 C 626.4376192 361 673 375.3268863999999 673 393 C 673 410.6731136000001 626.4376192 425 569 425 C 511.5623808 425 465 410.6731136000001 465 393 Z" fill-opacity="0.2"/></g><g><path fill="#ffffff" stroke="none" paint-order="stroke fill markers" d=" M 458 386 C 458 368.3268863999999 504.5623808 354 562 354 C 619.4376192 354 666 368.3268863999999 666 386 C 666 403.6731136000001 619.4376192 418 562 418 C 504.5623808 418 458 403.6731136000001 458 386 Z"/></g><g><path fill="none" stroke="#000000" paint-order="fill stroke markers" d=" M 458 386 C 458 368.3268863999999 504.5623808 354 562 354 C 619.4376192 354 666 368.3268863999999 666 386 C 666 403.6731136000001 619.4376192 418 562 418 C 504.5623808 418 458 403.6731136000001 458 386 Z" stroke-miterlimit="10" stroke-dasharray=""/></g><g><g><path fill="none" stroke="none"/><text fill="#000000" stroke="none" font-family="Arial" font-size="13px" font-style="normal" font-weight="bold" text-decoration="undefined" x="1264" y="1417" text-anchor="middle" dominant-baseline="central" transform="matrix(1 0 0 1 -702 -1030)">Gérer les invitations</text></g></g><g><path fill="#C0C0C0" stroke="none" paint-order="stroke fill markers" d=" M 865 349 C 865 333.5360255999999 905.0705104000001 321 954.5 321 C 1003.9294895999999 321 1044 333.5360255999999 1044 349 C 1044 364.4639744000001 1003.9294895999999 377 954.5 377 C 905.0705104000001 377 865 364.4639744000001 865 349 Z" fill-opacity="0.2"/></g><g><path fill="#ffffff" stroke="none" paint-order="stroke fill markers" d=" M 858 342 C 858 326.5360255999999 898.0705104000001 314 947.5 314 C 996.9294895999999 314 1037 326.5360255999999 1037 342 C 1037 357.4639744000001 996.9294895999999 370 947.5 370 C 898.0705104000001 370 858 357.4639744000001 858 342 Z"/></g><g><path fill="none" stroke="#000000" paint-order="fill stroke markers" d=" M 858 342 C 858 326.5360255999999 898.0705104000001 314 947.5 314 C 996.9294895999999 314 1037 326.5360255999999 1037 342 C 1037 357.4639744000001 996.9294895999999 370 947.5 370 C 898.0705104000001 370 858 357.4639744000001 858 342 Z" stroke-miterlimit="10" stroke-dasharray=""/></g><g><g><path fill="none" stroke="none"/><text fill="#000000" stroke="none" font-family="Arial" font-size="13px" font-style="normal" font-weight="bold" text-decoration="undefined" x="1649.5" y="1373" text-anchor="middle" dominant-baseline="central" transform="matrix(1 0 0 1 -702 -1030)">Accépter invitation</text></g></g><g><path fill="#C0C0C0" stroke="none" paint-order="stroke fill markers" d=" M 865 409 C 865 395.7451648000001 902.8319343999999 385 949.5 385 C 996.1680656000001 385 1034 395.7451648000001 1034 409 C 1034 422.2548351999999 996.1680656000001 433 949.5 433 C 902.8319343999999 433 865 422.2548351999999 865 409 Z" fill-opacity="0.2"/></g><g><path fill="#ffffff" stroke="none" paint-order="stroke fill markers" d=" M 858 402 C 858 388.7451648000001 895.8319343999999 378 942.5 378 C 989.1680656000001 378 1027 388.7451648000001 1027 402 C 1027 415.2548351999999 989.1680656000001 426 942.5 426 C 895.8319343999999 426 858 415.2548351999999 858 402 Z"/></g><g><path fill="none" stroke="#000000" paint-order="fill stroke markers" d=" M 858 402 C 858 388.7451648000001 895.8319343999999 378 942.5 378 C 989.1680656000001 378 1027 388.7451648000001 1027 402 C 1027 415.2548351999999 989.1680656000001 426 942.5 426 C 895.8319343999999 426 858 415.2548351999999 858 402 Z" stroke-miterlimit="10" stroke-dasharray=""/></g><g><g><path fill="none" stroke="none"/><text fill="#000000" stroke="none" font-family="Arial" font-size="13px" font-style="normal" font-weight="bold" text-decoration="undefined" x="1644.5" y="1433" text-anchor="middle" dominant-baseline="central" transform="matrix(1 0 0 1 -702 -1030)">Refuser invitation</text></g></g><g><path fill="#C0C0C0" stroke="none" paint-order="stroke fill markers" d=" M 1233 233 C 1233 219.7451648000001 1282.4725296 209 1343.5 209 C 1404.5274703999999 209 1454 219.7451648000001 1454 233 C 1454 246.2548351999999 1404.5274703999999 257 1343.5 257 C 1282.4725296 257 1233 246.2548351999999 1233 233 Z" fill-opacity="0.2"/></g><g><path fill="#ffffff" stroke="none" paint-order="stroke fill markers" d=" M 1226 226 C 1226 212.7451648000001 1275.4725296 202 1336.5 202 C 1397.5274703999999 202 1447 212.7451648000001 1447 226 C 1447 239.2548351999999 1397.5274703999999 250 1336.5 250 C 1275.4725296 250 1226 239.2548351999999 1226 226 Z"/></g><g><path fill="none" stroke="#000000" paint-order="fill stroke markers" d=" M 1226 226 C 1226 212.7451648000001 1275.4725296 202 1336.5 202 C 1397.5274703999999 202 1447 212.7451648000001 1447 226 C 1447 239.2548351999999 1397.5274703999999 250 1336.5 250 C 1275.4725296 250 1226 239.2548351999999 1226 226 Z" stroke-miterlimit="10" stroke-dasharray=""/></g><g><g><path fill="none" stroke="none"/><text fill="#000000" stroke="none" font-family="Arial" font-size="13px" font-style="normal" font-weight="bold" text-decoration="undefined" x="2038.5" y="1257" text-anchor="middle" dominant-baseline="central" transform="matrix(1 0 0 1 -702 -1030)">Vérifier invitation valide</text></g></g><g><path fill="#C0C0C0" stroke="none" paint-order="stroke fill markers" d=" M 1265 305 C 1265 291.7451648000001 1316.7111055999999 281 1380.5 281 C 1444.2888944000001 281 1496 291.7451648000001 1496 305 C 1496 318.2548351999999 1444.2888944000001 329 1380.5 329 C 1316.7111055999999 329 1265 318.2548351999999 1265 305 Z" fill-opacity="0.2"/></g><g><path fill="#ffffff" stroke="none" paint-order="stroke fill markers" d=" M 1258 298 C 1258 284.7451648000001 1309.7111055999999 274 1373.5 274 C 1437.2888944000001 274 1489 284.7451648000001 1489 298 C 1489 311.2548351999999 1437.2888944000001 322 1373.5 322 C 1309.7111055999999 322 1258 311.2548351999999 1258 298 Z"/></g><g><path fill="none" stroke="#000000" paint-order="fill stroke markers" d=" M 1258 298 C 1258 284.7451648000001 1309.7111055999999 274 1373.5 274 C 1437.2888944000001 274 1489 284.7451648000001 1489 298 C 1489 311.2548351999999 1437.2888944000001 322 1373.5 322 C 1309.7111055999999 322 1258 311.2548351999999 1258 298 Z" stroke-miterlimit="10" stroke-dasharray=""/></g><g><g><path fill="none" stroke="none"/><text fill="#000000" stroke="none" font-family="Arial" font-size="13px" font-style="normal" font-weight="bold" text-decoration="undefined" x="2075.5" y="1329" text-anchor="middle" dominant-baseline="central" transform="matrix(1 0 0 1 -702 -1030)">Vérifier colocation active</text></g></g><g><path fill="#C0C0C0" stroke="none" paint-order="stroke fill markers" d=" M 433 1385 C 433 1362.9086080000002 497.4709888 1345 577 1345 C 656.5290112 1345 721 1362.9086080000002 721 1385 C 721 1407.0913919999998 656.5290112 1425 577 1425 C 497.4709888 1425 433 1407.0913919999998 433 1385 Z" fill-opacity="0.2"/></g><g><path fill="#ffffff" stroke="none" paint-order="stroke fill markers" d=" M 426 1378 C 426 1355.9086080000002 490.4709888 1338 570 1338 C 649.5290112 1338 714 1355.9086080000002 714 1378 C 714 1400.0913919999998 649.5290112 1418 570 1418 C 490.4709888 1418 426 1400.0913919999998 426 1378 Z"/></g><g><path fill="none" stroke="#000000" paint-order="fill stroke markers" d=" M 426 1378 C 426 1355.9086080000002 490.4709888 1338 570 1338 C 649.5290112 1338 714 1355.9086080000002 714 1378 C 714 1400.0913919999998 649.5290112 1418 570 1418 C 490.4709888 1418 426 1400.0913919999998 426 1378 Z" stroke-miterlimit="10" stroke-dasharray=""/></g><g><g><path fill="none" stroke="none"/><text fill="#000000" stroke="none" font-family="Arial" font-size="13px" font-style="normal" font-weight="bold" text-decoration="undefined" x="1272" y="2409" text-anchor="middle" dominant-baseline="central" transform="matrix(1 0 0 1 -702 -1030)">Quitter la colocation</text></g></g><g><path fill="#C0C0C0" stroke="none" paint-order="stroke fill markers" d=" M 465 1161 C 465 1138.9086080000002 535.7390015999999 1121 623 1121 C 710.2609984000001 1121 781 1138.9086080000002 781 1161 C 781 1183.0913919999998 710.2609984000001 1201 623 1201 C 535.7390015999999 1201 465 1183.0913919999998 465 1161 Z" fill-opacity="0.2"/></g><g><path fill="#ffffff" stroke="none" paint-order="stroke fill markers" d=" M 458 1154 C 458 1131.9086080000002 528.7390015999999 1114 616 1114 C 703.2609984000001 1114 774 1131.9086080000002 774 1154 C 774 1176.0913919999998 703.2609984000001 1194 616 1194 C 528.7390015999999 1194 458 1176.0913919999998 458 1154 Z"/></g><g><path fill="none" stroke="#000000" paint-order="fill stroke markers" d=" M 458 1154 C 458 1131.9086080000002 528.7390015999999 1114 616 1114 C 703.2609984000001 1114 774 1131.9086080000002 774 1154 C 774 1176.0913919999998 703.2609984000001 1194 616 1194 C 528.7390015999999 1194 458 1176.0913919999998 458 1154 Z" stroke-miterlimit="10" stroke-dasharray=""/></g><g><g><path fill="none" stroke="none"/><text fill="#000000" stroke="none" font-family="Arial" font-size="13px" font-style="normal" font-weight="bold" text-decoration="undefined" x="1318" y="2185" text-anchor="middle" dominant-baseline="central" transform="matrix(1 0 0 1 -702 -1030)">Marquer un paiement comme payé</text></g></g><g><path fill="#C0C0C0" stroke="none" paint-order="stroke fill markers" d=" M 521 1021 C 521 1001.1177471999999 580.0984063999999 985 653 985 C 725.9015936000001 985 785 1001.1177471999999 785 1021 C 785 1040.8822528 725.9015936000001 1057 653 1057 C 580.0984063999999 1057 521 1040.8822528 521 1021 Z" fill-opacity="0.2"/></g><g><path fill="#ffffff" stroke="none" paint-order="stroke fill markers" d=" M 514 1014 C 514 994.1177471999999 573.0984063999999 978 646 978 C 718.9015936000001 978 778 994.1177471999999 778 1014 C 778 1033.8822528 718.9015936000001 1050 646 1050 C 573.0984063999999 1050 514 1033.8822528 514 1014 Z"/></g><g><path fill="none" stroke="#000000" paint-order="fill stroke markers" d=" M 514 1014 C 514 994.1177471999999 573.0984063999999 978 646 978 C 718.9015936000001 978 778 994.1177471999999 778 1014 C 778 1033.8822528 718.9015936000001 1050 646 1050 C 573.0984063999999 1050 514 1033.8822528 514 1014 Z" stroke-miterlimit="10" stroke-dasharray=""/></g><g><g><path fill="none" stroke="none"/><text fill="#000000" stroke="none" font-family="Arial" font-size="13px" font-style="normal" font-weight="bold" text-decoration="undefined" x="1348" y="2045" text-anchor="middle" dominant-baseline="central" transform="matrix(1 0 0 1 -702 -1030)">Voir son solde</text></g></g><g><path fill="#C0C0C0" stroke="none" paint-order="stroke fill markers" d=" M 993 1465 C 993 1451.7451648 1042.0248144 1441 1102.5 1441 C 1162.9751856 1441 1212 1451.7451648 1212 1465 C 1212 1478.2548352 1162.9751856 1489 1102.5 1489 C 1042.0248144 1489 993 1478.2548352 993 1465 Z" fill-opacity="0.2"/></g><g><path fill="#ffffff" stroke="none" paint-order="stroke fill markers" d=" M 986 1458 C 986 1444.7451648 1035.0248144 1434 1095.5 1434 C 1155.9751856 1434 1205 1444.7451648 1205 1458 C 1205 1471.2548352 1155.9751856 1482 1095.5 1482 C 1035.0248144 1482 986 1471.2548352 986 1458 Z"/></g><g><path fill="none" stroke="#000000" paint-order="fill stroke markers" d=" M 986 1458 C 986 1444.7451648 1035.0248144 1434 1095.5 1434 C 1155.9751856 1434 1205 1444.7451648 1205 1458 C 1205 1471.2548352 1155.9751856 1482 1095.5 1482 C 1035.0248144 1482 986 1471.2548352 986 1458 Z" stroke-miterlimit="10" stroke-dasharray=""/></g><g><g><path fill="none" stroke="none"/><text fill="#000000" stroke="none" font-family="Arial" font-size="13px" font-style="normal" font-weight="bold" text-decoration="undefined" x="1797.5" y="2489" text-anchor="middle" dominant-baseline="central" transform="matrix(1 0 0 1 -702 -1030)">Mettre à jour réputation</text></g></g><g><path fill="#C0C0C0" stroke="none" paint-order="stroke fill markers" d=" M 1001 1305 C 1001 1291.7451648 1045.77152 1281 1101 1281 C 1156.22848 1281 1201 1291.7451648 1201 1305 C 1201 1318.2548352 1156.22848 1329 1101 1329 C 1045.77152 1329 1001 1318.2548352 1001 1305 Z" fill-opacity="0.2"/></g><g><path fill="#ffffff" stroke="none" paint-order="stroke fill markers" d=" M 994 1298 C 994 1284.7451648 1038.77152 1274 1094 1274 C 1149.22848 1274 1194 1284.7451648 1194 1298 C 1194 1311.2548352 1149.22848 1322 1094 1322 C 1038.77152 1322 994 1311.2548352 994 1298 Z"/></g><g><path fill="none" stroke="#000000" paint-order="fill stroke markers" d=" M 994 1298 C 994 1284.7451648 1038.77152 1274 1094 1274 C 1149.22848 1274 1194 1284.7451648 1194 1298 C 1194 1311.2548352 1149.22848 1322 1094 1322 C 1038.77152 1322 994 1311.2548352 994 1298 Z" stroke-miterlimit="10" stroke-dasharray=""/></g><g><g><path fill="none" stroke="none"/><text fill="#000000" stroke="none" font-family="Arial" font-size="13px" font-style="normal" font-weight="bold" text-decoration="undefined" x="1796" y="2329" text-anchor="middle" dominant-baseline="central" transform="matrix(1 0 0 1 -702 -1030)">Verifier dette</text></g></g><g><path fill="#C0C0C0" stroke="none" paint-order="stroke fill markers" d=" M 1081 1169 C 1081 1155.7451648 1131.1441024 1145 1193 1145 C 1254.8558976 1145 1305 1155.7451648 1305 1169 C 1305 1182.2548352 1254.8558976 1193 1193 1193 C 1131.1441024 1193 1081 1182.2548352 1081 1169 Z" fill-opacity="0.2"/></g><g><path fill="#ffffff" stroke="none" paint-order="stroke fill markers" d=" M 1074 1162 C 1074 1148.7451648 1124.1441024 1138 1186 1138 C 1247.8558976 1138 1298 1148.7451648 1298 1162 C 1298 1175.2548352 1247.8558976 1186 1186 1186 C 1124.1441024 1186 1074 1175.2548352 1074 1162 Z"/></g><g><path fill="none" stroke="#000000" paint-order="fill stroke markers" d=" M 1074 1162 C 1074 1148.7451648 1124.1441024 1138 1186 1138 C 1247.8558976 1138 1298 1148.7451648 1298 1162 C 1298 1175.2548352 1247.8558976 1186 1186 1186 C 1124.1441024 1186 1074 1175.2548352 1074 1162 Z" stroke-miterlimit="10" stroke-dasharray=""/></g><g><g><path fill="none" stroke="none"/><text fill="#000000" stroke="none" font-family="Arial" font-size="13px" font-style="normal" font-weight="bold" text-decoration="undefined" x="1888" y="2193" text-anchor="middle" dominant-baseline="central" transform="matrix(1 0 0 1 -702 -1030)">Mettre à jour soldes</text></g></g><g><path fill="#C0C0C0" stroke="none" paint-order="stroke fill markers" d=" M 417 61 C 417 45.5360255999999 477.88926719999995 33 553 33 C 628.1107328 33 689 45.5360255999999 689 61 C 689 76.4639744000001 628.1107328 89 553 89 C 477.88926719999995 89 417 76.4639744000001 417 61 Z" fill-opacity="0.2"/></g><g><path fill="#ffffff" stroke="none" paint-order="stroke fill markers" d=" M 410 54 C 410 38.5360255999999 470.88926719999995 26 546 26 C 621.1107328 26 682 38.5360255999999 682 54 C 682 69.4639744000001 621.1107328 82 546 82 C 470.88926719999995 82 410 69.4639744000001 410 54 Z"/></g><g><path fill="none" stroke="#000000" paint-order="fill stroke markers" d=" M 410 54 C 410 38.5360255999999 470.88926719999995 26 546 26 C 621.1107328 26 682 38.5360255999999 682 54 C 682 69.4639744000001 621.1107328 82 546 82 C 470.88926719999995 82 410 69.4639744000001 410 54 Z" stroke-miterlimit="10" stroke-dasharray=""/></g><g><g><path fill="none" stroke="none"/><text fill="#000000" stroke="none" font-family="Arial" font-size="13px" font-style="normal" font-weight="bold" text-decoration="undefined" x="1248" y="1085" text-anchor="middle" dominant-baseline="central" transform="matrix(1 0 0 1 -702 -1030)">s'inscrir</text></g></g><g><path fill="#C0C0C0" stroke="none" paint-order="stroke fill markers" d=" M 849 217 C 849 203.7451648000001 900.9349632000001 193 965 193 C 1029.0650368 193 1081 203.7451648000001 1081 217 C 1081 230.2548351999999 1029.0650368 241 965 241 C 900.9349632000001 241 849 230.2548351999999 849 217 Z" fill-opacity="0.2"/></g><g><path fill="#ffffff" stroke="none" paint-order="stroke fill markers" d=" M 842 210 C 842 196.7451648000001 893.9349632000001 186 958 186 C 1022.0650367999999 186 1074 196.7451648000001 1074 210 C 1074 223.2548351999999 1022.0650367999999 234 958 234 C 893.9349632000001 234 842 223.2548351999999 842 210 Z"/></g><g><path fill="none" stroke="#000000" paint-order="fill stroke markers" d=" M 842 210 C 842 196.7451648000001 893.9349632000001 186 958 186 C 1022.0650367999999 186 1074 196.7451648000001 1074 210 C 1074 223.2548351999999 1022.0650367999999 234 958 234 C 893.9349632000001 234 842 223.2548351999999 842 210 Z" stroke-miterlimit="10" stroke-dasharray=""/></g><g><g><path fill="none" stroke="none"/><text fill="#000000" stroke="none" font-family="Arial" font-size="13px" font-style="normal" font-weight="bold" text-decoration="undefined" x="1660" y="1241" text-anchor="middle" dominant-baseline="central" transform="matrix(1 0 0 1 -702 -1030)">Modifier les informations</text></g></g><g><path fill="#C0C0C0" stroke="none" paint-order="stroke fill markers" d=" M 825 269 C 825 257.9543040000001 869.77152 249 925 249 C 980.22848 249 1025 257.9543040000001 1025 269 C 1025 280.0456959999999 980.22848 289 925 289 C 869.77152 289 825 280.0456959999999 825 269 Z" fill-opacity="0.2"/></g><g><path fill="#ffffff" stroke="none" paint-order="stroke fill markers" d=" M 818 262 C 818 250.9543040000001 862.77152 242 918 242 C 973.22848 242 1018 250.9543040000001 1018 262 C 1018 273.0456959999999 973.22848 282 918 282 C 862.77152 282 818 273.0456959999999 818 262 Z"/></g><g><path fill="none" stroke="#000000" paint-order="fill stroke markers" d=" M 818 262 C 818 250.9543040000001 862.77152 242 918 242 C 973.22848 242 1018 250.9543040000001 1018 262 C 1018 273.0456959999999 973.22848 282 918 282 C 862.77152 282 818 273.0456959999999 818 262 Z" stroke-miterlimit="10" stroke-dasharray=""/></g><g><g><path fill="none" stroke="none"/><text fill="#000000" stroke="none" font-family="Arial" font-size="13px" font-style="normal" font-weight="bold" text-decoration="undefined" x="1620" y="1293" text-anchor="middle" dominant-baseline="central" transform="matrix(1 0 0 1 -702 -1030)">Supprimer le compte</text></g></g><g><path fill="#C0C0C0" stroke="none" paint-order="stroke fill markers" d=" M 433 541 C 433 521.1177471999999 504.85828960000003 505 593.5 505 C 682.1417104 505 754 521.1177471999999 754 541 C 754 560.8822528000001 682.1417104 577 593.5 577 C 504.85828960000003 577 433 560.8822528000001 433 541 Z" fill-opacity="0.2"/></g><g><path fill="#ffffff" stroke="none" paint-order="stroke fill markers" d=" M 426 534 C 426 514.1177471999999 497.85828960000003 498 586.5 498 C 675.1417104 498 747 514.1177471999999 747 534 C 747 553.8822528000001 675.1417104 570 586.5 570 C 497.85828960000003 570 426 553.8822528000001 426 534 Z"/></g><g><path fill="none" stroke="#000000" paint-order="fill stroke markers" d=" M 426 534 C 426 514.1177471999999 497.85828960000003 498 586.5 498 C 675.1417104 498 747 514.1177471999999 747 534 C 747 553.8822528000001 675.1417104 570 586.5 570 C 497.85828960000003 570 426 553.8822528000001 426 534 Z" stroke-miterlimit="10" stroke-dasharray=""/></g><g><g><path fill="none" stroke="none"/><text fill="#000000" stroke="none" font-family="Arial" font-size="13px" font-style="normal" font-weight="bold" text-decoration="undefined" x="1288.5" y="1565" text-anchor="middle" dominant-baseline="central" transform="matrix(1 0 0 1 -702 -1030)">Voir les membres et leur réputation</text></g></g><g><path fill="none" stroke="#000000" paint-order="fill stroke markers" d=" M 171 522 L 467 419" stroke-miterlimit="10" stroke-dasharray=""/></g><g><path fill="#C0C0C0" stroke="none" paint-order="stroke fill markers" d=" M 449 729 C 449 706.908608 517.0527104 689 601 689 C 684.9472896 689 753 706.908608 753 729 C 753 751.091392 684.9472896 769 601 769 C 517.0527104 769 449 751.091392 449 729 Z" fill-opacity="0.2"/></g><g><path fill="#ffffff" stroke="none" paint-order="stroke fill markers" d=" M 442 722 C 442 699.908608 510.0527104 682 594 682 C 677.9472896 682 746 699.908608 746 722 C 746 744.091392 677.9472896 762 594 762 C 510.0527104 762 442 744.091392 442 722 Z"/></g><g><path fill="none" stroke="#000000" paint-order="fill stroke markers" d=" M 442 722 C 442 699.908608 510.0527104 682 594 682 C 677.9472896 682 746 699.908608 746 722 C 746 744.091392 677.9472896 762 594 762 C 510.0527104 762 442 744.091392 442 722 Z" stroke-miterlimit="10" stroke-dasharray=""/></g><g><g><path fill="none" stroke="none"/><text fill="#000000" stroke="none" font-family="Arial" font-size="13px" font-style="normal" font-weight="bold" text-decoration="undefined" x="1296" y="1753" text-anchor="middle" dominant-baseline="central" transform="matrix(1 0 0 1 -702 -1030)">Gérer les dépenses</text></g></g><g><path fill="#C0C0C0" stroke="none" paint-order="stroke fill markers" d=" M 529 873 C 529 850.908608 593.4709888 833 673 833 C 752.5290112 833 817 850.908608 817 873 C 817 895.091392 752.5290112 913 673 913 C 593.4709888 913 529 895.091392 529 873 Z" fill-opacity="0.2"/></g><g><path fill="#ffffff" stroke="none" paint-order="stroke fill markers" d=" M 522 866 C 522 843.908608 586.4709888 826 666 826 C 745.5290112 826 810 843.908608 810 866 C 810 888.091392 745.5290112 906 666 906 C 586.4709888 906 522 888.091392 522 866 Z"/></g><g><path fill="none" stroke="#000000" paint-order="fill stroke markers" d=" M 522 866 C 522 843.908608 586.4709888 826 666 826 C 745.5290112 826 810 843.908608 810 866 C 810 888.091392 745.5290112 906 666 906 C 586.4709888 906 522 888.091392 522 866 Z" stroke-miterlimit="10" stroke-dasharray=""/></g><g><g><path fill="none" stroke="none"/><text fill="#000000" stroke="none" font-family="Arial" font-size="13px" font-style="normal" font-weight="bold" text-decoration="undefined" x="1368" y="1897" text-anchor="middle" dominant-baseline="central" transform="matrix(1 0 0 1 -702 -1030)">Voir la vue « Qui doit à qui »</text></g></g><g><path fill="#C0C0C0" stroke="none" paint-order="stroke fill markers" d=" M 489 2213 C 489 2193.1177472 548.5461215999999 2177 622 2177 C 695.4538784000001 2177 755 2193.1177472 755 2213 C 755 2232.8822528 695.4538784000001 2249 622 2249 C 548.5461215999999 2249 489 2232.8822528 489 2213 Z" fill-opacity="0.2"/></g><g><path fill="#ffffff" stroke="none" paint-order="stroke fill markers" d=" M 482 2206 C 482 2186.1177472 541.5461215999999 2170 615 2170 C 688.4538784000001 2170 748 2186.1177472 748 2206 C 748 2225.8822528 688.4538784000001 2242 615 2242 C 541.5461215999999 2242 482 2225.8822528 482 2206 Z"/></g><g><path fill="none" stroke="#000000" paint-order="fill stroke markers" d=" M 482 2206 C 482 2186.1177472 541.5461215999999 2170 615 2170 C 688.4538784000001 2170 748 2186.1177472 748 2206 C 748 2225.8822528 688.4538784000001 2242 615 2242 C 541.5461215999999 2242 482 2225.8822528 482 2206 Z" stroke-miterlimit="10" stroke-dasharray=""/></g><g><g><path fill="none" stroke="none"/><text fill="#000000" stroke="none" font-family="Arial" font-size="13px" font-style="normal" font-weight="bold" text-decoration="undefined" x="1317" y="3237" text-anchor="middle" dominant-baseline="central" transform="matrix(1 0 0 1 -702 -1030)">Voir les statistiques globales</text></g></g><g><path fill="#C0C0C0" stroke="none" paint-order="stroke fill markers" d=" M 977 2281 C 977 2267.7451648 1030.725824 2257 1097 2257 C 1163.274176 2257 1217 2267.7451648 1217 2281 C 1217 2294.2548352 1163.274176 2305 1097 2305 C 1030.725824 2305 977 2294.2548352 977 2281 Z" fill-opacity="0.2"/></g><g><path fill="#ffffff" stroke="none" paint-order="stroke fill markers" d=" M 970 2274 C 970 2260.7451648 1023.7258240000001 2250 1090 2250 C 1156.274176 2250 1210 2260.7451648 1210 2274 C 1210 2287.2548352 1156.274176 2298 1090 2298 C 1023.7258240000001 2298 970 2287.2548352 970 2274 Z"/></g><g><path fill="none" stroke="#000000" paint-order="fill stroke markers" d=" M 970 2274 C 970 2260.7451648 1023.7258240000001 2250 1090 2250 C 1156.274176 2250 1210 2260.7451648 1210 2274 C 1210 2287.2548352 1156.274176 2298 1090 2298 C 1023.7258240000001 2298 970 2287.2548352 970 2274 Z" stroke-miterlimit="10" stroke-dasharray=""/></g><g><g><path fill="none" stroke="none"/><text fill="#000000" stroke="none" font-family="Arial" font-size="13px" font-style="normal" font-weight="bold" text-decoration="undefined" x="1792" y="3305" text-anchor="middle" dominant-baseline="central" transform="matrix(1 0 0 1 -702 -1030)">Utilisateurs bannis</text></g></g><g><path fill="#C0C0C0" stroke="none" paint-order="stroke fill markers" d=" M 977 2229 C 977 2217.954304 1030.725824 2209 1097 2209 C 1163.274176 2209 1217 2217.954304 1217 2229 C 1217 2240.045696 1163.274176 2249 1097 2249 C 1030.725824 2249 977 2240.045696 977 2229 Z" fill-opacity="0.2"/></g><g><path fill="#ffffff" stroke="none" paint-order="stroke fill markers" d=" M 970 2222 C 970 2210.954304 1023.7258240000001 2202 1090 2202 C 1156.274176 2202 1210 2210.954304 1210 2222 C 1210 2233.045696 1156.274176 2242 1090 2242 C 1023.7258240000001 2242 970 2233.045696 970 2222 Z"/></g><g><path fill="none" stroke="#000000" paint-order="fill stroke markers" d=" M 970 2222 C 970 2210.954304 1023.7258240000001 2202 1090 2202 C 1156.274176 2202 1210 2210.954304 1210 2222 C 1210 2233.045696 1156.274176 2242 1090 2242 C 1023.7258240000001 2242 970 2233.045696 970 2222 Z" stroke-miterlimit="10" stroke-dasharray=""/></g><g><g><path fill="none" stroke="none"/><text fill="#000000" stroke="none" font-family="Arial" font-size="13px" font-style="normal" font-weight="bold" text-decoration="undefined" x="1792" y="3253" text-anchor="middle" dominant-baseline="central" transform="matrix(1 0 0 1 -702 -1030)">Dépenses totales</text></g></g><g><path fill="#C0C0C0" stroke="none" paint-order="stroke fill markers" d=" M 953 2161 C 953 2147.7451648 1008.5166847999999 2137 1077 2137 C 1145.4833152 2137 1201 2147.7451648 1201 2161 C 1201 2174.2548352 1145.4833152 2185 1077 2185 C 1008.5166847999999 2185 953 2174.2548352 953 2161 Z" fill-opacity="0.2"/></g><g><path fill="#ffffff" stroke="none" paint-order="stroke fill markers" d=" M 946 2154 C 946 2140.7451648 1001.5166847999999 2130 1070 2130 C 1138.4833152 2130 1194 2140.7451648 1194 2154 C 1194 2167.2548352 1138.4833152 2178 1070 2178 C 1001.5166847999999 2178 946 2167.2548352 946 2154 Z"/></g><g><path fill="none" stroke="#000000" paint-order="fill stroke markers" d=" M 946 2154 C 946 2140.7451648 1001.5166847999999 2130 1070 2130 C 1138.4833152 2130 1194 2140.7451648 1194 2154 C 1194 2167.2548352 1138.4833152 2178 1070 2178 C 1001.5166847999999 2178 946 2167.2548352 946 2154 Z" stroke-miterlimit="10" stroke-dasharray=""/></g><g><g><path fill="none" stroke="none"/><text fill="#000000" stroke="none" font-family="Arial" font-size="13px" font-style="normal" font-weight="bold" text-decoration="undefined" x="1772" y="3185" text-anchor="middle" dominant-baseline="central" transform="matrix(1 0 0 1 -702 -1030)">Nombre de colocations</text></g></g><g><path fill="#C0C0C0" stroke="none" paint-order="stroke fill markers" d=" M 921 2077 C 921 2061.5360256 974.7258240000001 2049 1041 2049 C 1107.274176 2049 1161 2061.5360256 1161 2077 C 1161 2092.4639744 1107.274176 2105 1041 2105 C 974.7258240000001 2105 921 2092.4639744 921 2077 Z" fill-opacity="0.2"/></g><g><path fill="#ffffff" stroke="none" paint-order="stroke fill markers" d=" M 914 2070 C 914 2054.5360256 967.7258240000001 2042 1034 2042 C 1100.274176 2042 1154 2054.5360256 1154 2070 C 1154 2085.4639744 1100.274176 2098 1034 2098 C 967.7258240000001 2098 914 2085.4639744 914 2070 Z"/></g><g><path fill="none" stroke="#000000" paint-order="fill stroke markers" d=" M 914 2070 C 914 2054.5360256 967.7258240000001 2042 1034 2042 C 1100.274176 2042 1154 2054.5360256 1154 2070 C 1154 2085.4639744 1100.274176 2098 1034 2098 C 967.7258240000001 2098 914 2085.4639744 914 2070 Z" stroke-miterlimit="10" stroke-dasharray=""/></g><g><g><path fill="none" stroke="none"/><text fill="#000000" stroke="none" font-family="Arial" font-size="13px" font-style="normal" font-weight="bold" text-decoration="undefined" x="1736" y="3101" text-anchor="middle" dominant-baseline="central" transform="matrix(1 0 0 1 -702 -1030)">Nombre d'utilisateurs</text></g></g><g><path fill="#C0C0C0" stroke="none" paint-order="stroke fill markers" d=" M 473 1973 C 473 1957.5360256 533.8892672 1945 609 1945 C 684.1107328 1945 745 1957.5360256 745 1973 C 745 1988.4639744 684.1107328 2001 609 2001 C 533.8892672 2001 473 1988.4639744 473 1973 Z" fill-opacity="0.2"/></g><g><path fill="#ffffff" stroke="none" paint-order="stroke fill markers" d=" M 466 1966 C 466 1950.5360256 526.8892672 1938 602 1938 C 677.1107328 1938 738 1950.5360256 738 1966 C 738 1981.4639744 677.1107328 1994 602 1994 C 526.8892672 1994 466 1981.4639744 466 1966 Z"/></g><g><path fill="none" stroke="#000000" paint-order="fill stroke markers" d=" M 466 1966 C 466 1950.5360256 526.8892672 1938 602 1938 C 677.1107328 1938 738 1950.5360256 738 1966 C 738 1981.4639744 677.1107328 1994 602 1994 C 526.8892672 1994 466 1981.4639744 466 1966 Z" stroke-miterlimit="10" stroke-dasharray=""/></g><g><g><path fill="none" stroke="none"/><text fill="#000000" stroke="none" font-family="Arial" font-size="13px" font-style="normal" font-weight="bold" text-decoration="undefined" x="1304" y="2997" text-anchor="middle" dominant-baseline="central" transform="matrix(1 0 0 1 -702 -1030)">Annuler la colocation</text></g></g><g><path fill="#C0C0C0" stroke="none" paint-order="stroke fill markers" d=" M 457 1873 C 457 1859.7451648 517.8892672 1849 593 1849 C 668.1107328 1849 729 1859.7451648 729 1873 C 729 1886.2548352 668.1107328 1897 593 1897 C 517.8892672 1897 457 1886.2548352 457 1873 Z" fill-opacity="0.2"/></g><g><path fill="#ffffff" stroke="none" paint-order="stroke fill markers" d=" M 450 1866 C 450 1852.7451648 510.88926719999995 1842 586 1842 C 661.1107328 1842 722 1852.7451648 722 1866 C 722 1879.2548352 661.1107328 1890 586 1890 C 510.88926719999995 1890 450 1879.2548352 450 1866 Z"/></g><g><path fill="none" stroke="#000000" paint-order="fill stroke markers" d=" M 450 1866 C 450 1852.7451648 510.88926719999995 1842 586 1842 C 661.1107328 1842 722 1852.7451648 722 1866 C 722 1879.2548352 661.1107328 1890 586 1890 C 510.88926719999995 1890 450 1879.2548352 450 1866 Z" stroke-miterlimit="10" stroke-dasharray=""/></g><g><g><path fill="none" stroke="none"/><text fill="#000000" stroke="none" font-family="Arial" font-size="13px" font-style="normal" font-weight="bold" text-decoration="undefined" x="1288" y="2897" text-anchor="middle" dominant-baseline="central" transform="matrix(1 0 0 1 -702 -1030)">ajouter Category</text></g></g><g><path fill="#C0C0C0" stroke="none" paint-order="stroke fill markers" d=" M 457 1781 C 457 1765.5360256 519.680128 1753 597 1753 C 674.319872 1753 737 1765.5360256 737 1781 C 737 1796.4639744 674.319872 1809 597 1809 C 519.680128 1809 457 1796.4639744 457 1781 Z" fill-opacity="0.2"/></g><g><path fill="#ffffff" stroke="none" paint-order="stroke fill markers" d=" M 450 1774 C 450 1758.5360256 512.680128 1746 590 1746 C 667.319872 1746 730 1758.5360256 730 1774 C 730 1789.4639744 667.319872 1802 590 1802 C 512.680128 1802 450 1789.4639744 450 1774 Z"/></g><g><path fill="none" stroke="#000000" paint-order="fill stroke markers" d=" M 450 1774 C 450 1758.5360256 512.680128 1746 590 1746 C 667.319872 1746 730 1758.5360256 730 1774 C 730 1789.4639744 667.319872 1802 590 1802 C 512.680128 1802 450 1789.4639744 450 1774 Z" stroke-miterlimit="10" stroke-dasharray=""/></g><g><g><path fill="none" stroke="none"/><text fill="#000000" stroke="none" font-family="Arial" font-size="13px" font-style="normal" font-weight="bold" text-decoration="undefined" x="1292" y="2805" text-anchor="middle" dominant-baseline="central" transform="matrix(1 0 0 1 -702 -1030)">Retirer un membre</text></g></g><g><path fill="#C0C0C0" stroke="none" paint-order="stroke fill markers" d=" M 1017 1781 C 1017 1765.5360256 1076.322264 1753 1149.5 1753 C 1222.677736 1753 1282 1765.5360256 1282 1781 C 1282 1796.4639744 1222.677736 1809 1149.5 1809 C 1076.322264 1809 1017 1796.4639744 1017 1781 Z" fill-opacity="0.2"/></g><g><path fill="#ffffff" stroke="none" paint-order="stroke fill markers" d=" M 1010 1774 C 1010 1758.5360256 1069.322264 1746 1142.5 1746 C 1215.677736 1746 1275 1758.5360256 1275 1774 C 1275 1789.4639744 1215.677736 1802 1142.5 1802 C 1069.322264 1802 1010 1789.4639744 1010 1774 Z"/></g><g><path fill="none" stroke="#000000" paint-order="fill stroke markers" d=" M 1010 1774 C 1010 1758.5360256 1069.322264 1746 1142.5 1746 C 1215.677736 1746 1275 1758.5360256 1275 1774 C 1275 1789.4639744 1215.677736 1802 1142.5 1802 C 1069.322264 1802 1010 1789.4639744 1010 1774 Z" stroke-miterlimit="10" stroke-dasharray=""/></g><g><g><path fill="none" stroke="none"/><text fill="#000000" stroke="none" font-family="Arial" font-size="13px" font-style="normal" font-weight="bold" text-decoration="undefined" x="1844.5" y="2805" text-anchor="middle" dominant-baseline="central" transform="matrix(1 0 0 1 -702 -1030)">Ajustement dette vers owner</text></g></g><g><path fill="#C0C0C0" stroke="none" paint-order="stroke fill markers" d=" M 465 1637 C 465 1617.1177472 527.680128 1601 605 1601 C 682.319872 1601 745 1617.1177472 745 1637 C 745 1656.8822528 682.319872 1673 605 1673 C 527.680128 1673 465 1656.8822528 465 1637 Z" fill-opacity="0.2"/></g><g><path fill="#ffffff" stroke="none" paint-order="stroke fill markers" d=" M 458 1630 C 458 1610.1177472 520.680128 1594 598 1594 C 675.319872 1594 738 1610.1177472 738 1630 C 738 1649.8822528 675.319872 1666 598 1666 C 520.680128 1666 458 1649.8822528 458 1630 Z"/></g><g><path fill="none" stroke="#000000" paint-order="fill stroke markers" d=" M 458 1630 C 458 1610.1177472 520.680128 1594 598 1594 C 675.319872 1594 738 1610.1177472 738 1630 C 738 1649.8822528 675.319872 1666 598 1666 C 520.680128 1666 458 1649.8822528 458 1630 Z" stroke-miterlimit="10" stroke-dasharray=""/></g><g><g><path fill="none" stroke="none"/><text fill="#000000" stroke="none" font-family="Arial" font-size="13px" font-style="normal" font-weight="bold" text-decoration="undefined" x="1300" y="2661" text-anchor="middle" dominant-baseline="central" transform="matrix(1 0 0 1 -702 -1030)">Inviter un membre</text></g></g><g><path fill="#C0C0C0" stroke="none" paint-order="stroke fill markers" d=" M 449 1537 C 449 1514.9086080000002 511.68012799999997 1497 589 1497 C 666.319872 1497 729 1514.9086080000002 729 1537 C 729 1559.0913919999998 666.319872 1577 589 1577 C 511.68012799999997 1577 449 1559.0913919999998 449 1537 Z" fill-opacity="0.2"/></g><g><path fill="#ffffff" stroke="none" paint-order="stroke fill markers" d=" M 442 1530 C 442 1507.9086080000002 504.68012799999997 1490 582 1490 C 659.319872 1490 722 1507.9086080000002 722 1530 C 722 1552.0913919999998 659.319872 1570 582 1570 C 504.68012799999997 1570 442 1552.0913919999998 442 1530 Z"/></g><g><path fill="none" stroke="#000000" paint-order="fill stroke markers" d=" M 442 1530 C 442 1507.9086080000002 504.68012799999997 1490 582 1490 C 659.319872 1490 722 1507.9086080000002 722 1530 C 722 1552.0913919999998 659.319872 1570 582 1570 C 504.68012799999997 1570 442 1552.0913919999998 442 1530 Z" stroke-miterlimit="10" stroke-dasharray=""/></g><g><g><path fill="none" stroke="none"/><text fill="#000000" stroke="none" font-family="Arial" font-size="13px" font-style="normal" font-weight="bold" text-decoration="undefined" x="1284" y="2561" text-anchor="middle" dominant-baseline="central" transform="matrix(1 0 0 1 -702 -1030)">Creer une colocation</text></g></g><g><path fill="none" stroke="#000000" paint-order="fill stroke markers" d=" M 626 251 L 2347 1217" stroke-miterlimit="10" stroke-dasharray="3"/></g><g><path fill="none" stroke="#000000" paint-order="fill stroke markers" d=" M 2336.0775059848197 1215.696495305588 L 2347 1217 L 2340.198347423124 1208.3549134056693" stroke-miterlimit="10" stroke-dasharray=""/></g><g><rect fill="#ffffff" stroke="none" x="2944" y="2191" width="55.65625" height="13" transform="matrix(1 0 0 1 -702 -1030)"/></g><g><g><path fill="none" stroke="none"/><text fill="#000000" stroke="none" font-family="Arial" font-size="13px" font-style="normal" font-weight="normal" text-decoration="undefined" x="2971.828125" y="2197.5" text-anchor="middle" dominant-baseline="central" transform="matrix(1 0 0 1 -702 -1030)">«include»</text></g></g><g><path fill="none" stroke="#000000" paint-order="fill stroke markers" d=" M 632 419 L 2336 1217" stroke-miterlimit="10" stroke-dasharray="3"/></g><g><path fill="none" stroke="#000000" paint-order="fill stroke markers" d=" M 2325.0112728944396 1216.5021279285606 L 2336 1217 L 2328.581845264928 1208.8777478291713" stroke-miterlimit="10" stroke-dasharray=""/></g><g><rect fill="#ffffff" stroke="none" x="2704" y="2095" width="55.65625" height="13" transform="matrix(1 0 0 1 -702 -1030)"/></g><g><g><path fill="none" stroke="none"/><text fill="#000000" stroke="none" font-family="Arial" font-size="13px" font-style="normal" font-weight="normal" text-decoration="undefined" x="2731.828125" y="2101.5" text-anchor="middle" dominant-baseline="central" transform="matrix(1 0 0 1 -702 -1030)">«include»</text></g></g><g><path fill="none" stroke="#000000" paint-order="fill stroke markers" d=" M 680 571 L 2322 1217" stroke-miterlimit="10" stroke-dasharray="3"/></g><g><path fill="none" stroke="#000000" paint-order="fill stroke markers" d=" M 2311.001757418425 1217.1966217608183 L 2322 1217 L 2314.08403550903 1209.3621006698372" stroke-miterlimit="10" stroke-dasharray=""/></g><g><rect fill="#ffffff" stroke="none" x="2592" y="2087" width="55.65625" height="13" transform="matrix(1 0 0 1 -702 -1030)"/></g><g><g><path fill="none" stroke="none"/><text fill="#000000" stroke="none" font-family="Arial" font-size="13px" font-style="normal" font-weight="normal" text-decoration="undefined" x="2619.828125" y="2093.5" text-anchor="middle" dominant-baseline="central" transform="matrix(1 0 0 1 -702 -1030)">«include»</text></g></g><g><path fill="none" stroke="#000000" paint-order="fill stroke markers" d=" M 102 2201 L 102 1843" stroke-miterlimit="10" stroke-dasharray=""/></g><g><path fill="#FFFFFF" stroke="none" paint-order="stroke fill markers" d=" M 110.419035512032 1863.3253497152482 L 102 1843 L 93.580964487968 1863.3253497152482"/></g><g><path fill="none" stroke="#000000" paint-order="fill stroke markers" d=" M 110.419035512032 1863.3253497152482 L 102 1843 L 93.580964487968 1863.3253497152482 L 110.419035512032 1863.3253497152482" stroke-miterlimit="10" stroke-dasharray=""/></g><g><path fill="none" stroke="#000000" paint-order="fill stroke markers" d=" M 735 763 L 2293 1217" stroke-miterlimit="10" stroke-dasharray="3"/></g><g><path fill="none" stroke="#000000" paint-order="fill stroke markers" d=" M 2282.0654621947474 1218.1982833494203 L 2293 1217 L 2284.4207998866073 1210.115428450923" stroke-miterlimit="10" stroke-dasharray=""/></g><g><rect fill="#ffffff" stroke="none" x="2200" y="2015" width="55.65625" height="13" transform="matrix(1 0 0 1 -702 -1030)"/></g><g><g><path fill="none" stroke="none"/><text fill="#000000" stroke="none" font-family="Arial" font-size="13px" font-style="normal" font-weight="normal" text-decoration="undefined" x="2227.828125" y="2021.5" text-anchor="middle" dominant-baseline="central" transform="matrix(1 0 0 1 -702 -1030)">«include»</text></g></g><g><path fill="none" stroke="#000000" paint-order="fill stroke markers" d=" M 811 898 L 2273 1221" stroke-miterlimit="10" stroke-dasharray="3"/></g><g><path fill="none" stroke="#000000" paint-order="fill stroke markers" d=" M 2262.168509575743 1222.9180237718092 L 2273 1221 L 2263.9847320551276 1214.697227286174" stroke-miterlimit="10" stroke-dasharray=""/></g><g><rect fill="#ffffff" stroke="none" x="2223" y="2080" width="55.65625" height="13" transform="matrix(1 0 0 1 -702 -1030)"/></g><g><g><path fill="none" stroke="none"/><text fill="#000000" stroke="none" font-family="Arial" font-size="13px" font-style="normal" font-weight="normal" text-decoration="undefined" x="2250.828125" y="2086.5" text-anchor="middle" dominant-baseline="central" transform="matrix(1 0 0 1 -702 -1030)">«include»</text></g></g><g><path fill="none" stroke="#000000" paint-order="fill stroke markers" d=" M 779 1032 L 2273 1232" stroke-miterlimit="10" stroke-dasharray="3"/></g><g><path fill="none" stroke="#000000" paint-order="fill stroke markers" d=" M 2262.3686405465987 1234.8238619251965 L 2273 1232 L 2263.4857217208273 1226.4792655537094" stroke-miterlimit="10" stroke-dasharray=""/></g><g><rect fill="#ffffff" stroke="none" x="2204" y="2152" width="55.65625" height="13" transform="matrix(1 0 0 1 -702 -1030)"/></g><g><g><path fill="none" stroke="none"/><text fill="#000000" stroke="none" font-family="Arial" font-size="13px" font-style="normal" font-weight="normal" text-decoration="undefined" x="2231.828125" y="2158.5" text-anchor="middle" dominant-baseline="central" transform="matrix(1 0 0 1 -702 -1030)">«include»</text></g></g><g><path fill="none" stroke="#000000" paint-order="fill stroke markers" d=" M 775 1163 L 2273 1243" stroke-miterlimit="10" stroke-dasharray="3"/></g><g><path fill="none" stroke="#000000" paint-order="fill stroke markers" d=" M 2262.6272989581157 1246.6615670273386 L 2273 1243 L 2263.0762738792628 1238.254511628863" stroke-miterlimit="10" stroke-dasharray=""/></g><g><rect fill="#ffffff" stroke="none" x="2200" y="2224" width="55.65625" height="13" transform="matrix(1 0 0 1 -702 -1030)"/></g><g><g><path fill="none" stroke="none"/><text fill="#000000" stroke="none" font-family="Arial" font-size="13px" font-style="normal" font-weight="normal" text-decoration="undefined" x="2227.828125" y="2230.5" text-anchor="middle" dominant-baseline="central" transform="matrix(1 0 0 1 -702 -1030)">«include»</text></g></g><g><path fill="none" stroke="#000000" paint-order="fill stroke markers" d=" M 715 1368 L 2273 1259" stroke-miterlimit="10" stroke-dasharray="3"/></g><g><path fill="none" stroke="#000000" paint-order="fill stroke markers" d=" M 2263.155891401165 1263.9085156508195 L 2273 1259 L 2262.568319352772 1255.5100087572814" stroke-miterlimit="10" stroke-dasharray=""/></g><g><rect fill="#ffffff" stroke="none" x="2152" y="2335" width="55.65625" height="13" transform="matrix(1 0 0 1 -702 -1030)"/></g><g><g><path fill="none" stroke="none"/><text fill="#000000" stroke="none" font-family="Arial" font-size="13px" font-style="normal" font-weight="normal" text-decoration="undefined" x="2179.828125" y="2341.5" text-anchor="middle" dominant-baseline="central" transform="matrix(1 0 0 1 -702 -1030)">«include»</text></g></g><g><path fill="none" stroke="#000000" paint-order="fill stroke markers" d=" M 723 1526 L 1602 1498 L 2299 1283" stroke-miterlimit="10" stroke-dasharray="3"/></g><g><path fill="none" stroke="#000000" paint-order="fill stroke markers" d=" M 2290.5296379423194 1290.0180457829656 L 2299 1283 L 2288.048041786096 1281.9730573137213" stroke-miterlimit="10" stroke-dasharray=""/></g><g><rect fill="#ffffff" stroke="none" x="2272" y="2519" width="55.65625" height="13" transform="matrix(1 0 0 1 -702 -1030)"/></g><g><g><path fill="none" stroke="none"/><text fill="#000000" stroke="none" font-family="Arial" font-size="13px" font-style="normal" font-weight="normal" text-decoration="undefined" x="2299.828125" y="2525.5" text-anchor="middle" dominant-baseline="central" transform="matrix(1 0 0 1 -702 -1030)">«include»</text></g></g><g><path fill="none" stroke="#000000" paint-order="fill stroke markers" d=" M 739 1621 L 1618 1562 L 2323 1283" stroke-miterlimit="10" stroke-dasharray="3"/></g><g><path fill="none" stroke="#000000" paint-order="fill stroke markers" d=" M 2315.0993975451997 1290.6537886599517 L 2323 1283 L 2312.001384565531 1282.8254762919719" stroke-miterlimit="10" stroke-dasharray=""/></g><g><rect fill="#ffffff" stroke="none" x="2281" y="2592" width="55.65625" height="13" transform="matrix(1 0 0 1 -702 -1030)"/></g><g><g><path fill="none" stroke="none"/><text fill="#000000" stroke="none" font-family="Arial" font-size="13px" font-style="normal" font-weight="normal" text-decoration="undefined" x="2308.828125" y="2598.5" text-anchor="middle" dominant-baseline="central" transform="matrix(1 0 0 1 -702 -1030)">«include»</text></g></g><g><path fill="none" stroke="#000000" paint-order="fill stroke markers" d=" M 2335 1283 L 1626 1610 L 731 1752" stroke-miterlimit="10" stroke-dasharray="3"/></g><g><path fill="none" stroke="#000000" paint-order="fill stroke markers" d=" M 740.3775009045091 1746.2500020186149 L 731 1752 L 741.6967570446077 1754.5650319157153" stroke-miterlimit="10" stroke-dasharray=""/></g><g><rect fill="#ffffff" stroke="none" x="2296" y="2631" width="55.65625" height="13" transform="matrix(1 0 0 1 -702 -1030)"/></g><g><g><path fill="none" stroke="none"/><text fill="#000000" stroke="none" font-family="Arial" font-size="13px" font-style="normal" font-weight="normal" text-decoration="undefined" x="2323.828125" y="2637.5" text-anchor="middle" dominant-baseline="central" transform="matrix(1 0 0 1 -702 -1030)">«include»</text></g></g><g><path fill="#C0C0C0" stroke="none" paint-order="stroke fill markers" d=" M 1289 370.5 C 1289 360.835016 1332.8760896 353 1387 353 C 1441.1239104 353 1485 360.835016 1485 370.5 C 1485 380.164984 1441.1239104 388 1387 388 C 1332.8760896 388 1289 380.164984 1289 370.5 Z" fill-opacity="0.2"/></g><g><path fill="#ffffff" stroke="none" paint-order="stroke fill markers" d=" M 1282 363.5 C 1282 353.835016 1325.8760896 346 1380 346 C 1434.1239104 346 1478 353.835016 1478 363.5 C 1478 373.164984 1434.1239104 381 1380 381 C 1325.8760896 381 1282 373.164984 1282 363.5 Z"/></g><g><path fill="none" stroke="#000000" paint-order="fill stroke markers" d=" M 1282 363.5 C 1282 353.835016 1325.8760896 346 1380 346 C 1434.1239104 346 1478 353.835016 1478 363.5 C 1478 373.164984 1434.1239104 381 1380 381 C 1325.8760896 381 1282 373.164984 1282 363.5 Z" stroke-miterlimit="10" stroke-dasharray=""/></g><g><g><path fill="none" stroke="none"/><text fill="#000000" stroke="none" font-family="Arial" font-size="13px" font-style="normal" font-weight="bold" text-decoration="undefined" x="2082" y="1394.5" text-anchor="middle" dominant-baseline="central" transform="matrix(1 0 0 1 -702 -1030)">verifier token expirer</text></g></g><g><path fill="none" stroke="#000000" paint-order="fill stroke markers" d=" M 1038 346 L 1281 358" stroke-miterlimit="10" stroke-dasharray="3"/></g><g><path fill="none" stroke="#000000" paint-order="fill stroke markers" d=" M 1270.6420697288622 361.7031446769263 L 1281 358 L 1271.0573185534515 353.29435597899055" stroke-miterlimit="10" stroke-dasharray=""/></g><g><rect fill="#ffffff" stroke="none" x="1832" y="1375" width="55.65625" height="13" transform="matrix(1 0 0 1 -702 -1030)"/></g><g><g><path fill="none" stroke="none"/><text fill="#000000" stroke="none" font-family="Arial" font-size="13px" font-style="normal" font-weight="normal" text-decoration="undefined" x="1859.828125" y="1381.5" text-anchor="middle" dominant-baseline="central" transform="matrix(1 0 0 1 -702 -1030)">«include»</text></g></g><g><path fill="none" stroke="#000000" paint-order="fill stroke markers" d=" M 1028 394 L 1281 372" stroke-miterlimit="10" stroke-dasharray="3"/></g><g><path fill="none" stroke="#000000" paint-order="fill stroke markers" d=" M 1271.2401997304837 377.0740810694301 L 1281 372 L 1270.5108619139144 368.68669617888304" stroke-miterlimit="10" stroke-dasharray=""/></g><g><rect fill="#ffffff" stroke="none" x="1826" y="1408" width="55.65625" height="13" transform="matrix(1 0 0 1 -702 -1030)"/></g><g><g><path fill="none" stroke="none"/><text fill="#000000" stroke="none" font-family="Arial" font-size="13px" font-style="normal" font-weight="normal" text-decoration="undefined" x="1853.828125" y="1414.5" text-anchor="middle" dominant-baseline="central" transform="matrix(1 0 0 1 -702 -1030)">«include»</text></g></g><g><path fill="none" stroke="#000000" paint-order="fill stroke markers" d=" M 723 1865 L 1538 1858 L 2359 1283" stroke-miterlimit="10" stroke-dasharray="3"/></g><g><path fill="none" stroke="#000000" paint-order="fill stroke markers" d=" M 2353.0906870342915 1292.2779318963499 L 2359 1283 L 2348.260996170498 1285.3819732890897" stroke-miterlimit="10" stroke-dasharray=""/></g><g><rect fill="#ffffff" stroke="none" x="2199" y="2880" width="55.65625" height="13" transform="matrix(1 0 0 1 -702 -1030)"/></g><g><g><path fill="none" stroke="none"/><text fill="#000000" stroke="none" font-family="Arial" font-size="13px" font-style="normal" font-weight="normal" text-decoration="undefined" x="2226.828125" y="2886.5" text-anchor="middle" dominant-baseline="central" transform="matrix(1 0 0 1 -702 -1030)">«include»</text></g></g><g><path fill="none" stroke="#000000" paint-order="fill stroke markers" d=" M 739 1956 L 1538 1898 L 2362 1283" stroke-miterlimit="10" stroke-dasharray="3"/></g><g><path fill="none" stroke="#000000" paint-order="fill stroke markers" d=" M 2356.3734926056777 1292.4521116445817 L 2362 1283 L 2351.3378062266625 1285.7051107074944" stroke-miterlimit="10" stroke-dasharray=""/></g><g><rect fill="#ffffff" stroke="none" x="2200" y="2919" width="55.65625" height="13" transform="matrix(1 0 0 1 -702 -1030)"/></g><g><g><path fill="none" stroke="none"/><text fill="#000000" stroke="none" font-family="Arial" font-size="13px" font-style="normal" font-weight="normal" text-decoration="undefined" x="2227.828125" y="2925.5" text-anchor="middle" dominant-baseline="central" transform="matrix(1 0 0 1 -702 -1030)">«include»</text></g></g><g><path fill="none" stroke="#000000" paint-order="fill stroke markers" d=" M 707 2347 L 1266 2370 L 2372 1283" stroke-miterlimit="10" stroke-dasharray="3"/></g><g><path fill="none" stroke="#000000" paint-order="fill stroke markers" d=" M 2367.7025948199366 1293.125823853809 L 2372 1283 L 2361.8012369435423 1287.1213143677996" stroke-miterlimit="10" stroke-dasharray=""/></g><g><rect fill="#ffffff" stroke="none" x="1921" y="3387" width="55.65625" height="13" transform="matrix(1 0 0 1 -702 -1030)"/></g><g><g><path fill="none" stroke="none"/><text fill="#000000" stroke="none" font-family="Arial" font-size="13px" font-style="normal" font-weight="normal" text-decoration="undefined" x="1948.828125" y="3393.5" text-anchor="middle" dominant-baseline="central" transform="matrix(1 0 0 1 -702 -1030)">«include»</text></g></g><g><path fill="none" stroke="#000000" paint-order="fill stroke markers" d=" M 749 2202 L 1338 2186 L 2368 1283" stroke-miterlimit="10" stroke-dasharray="3"/></g><g><path fill="none" stroke="#000000" paint-order="fill stroke markers" d=" M 2363.1332771003827 1292.864836958528 L 2368 1283 L 2357.5832141268497 1286.5342003441992" stroke-miterlimit="10" stroke-dasharray=""/></g><g><rect fill="#ffffff" stroke="none" x="2000" y="3207" width="55.65625" height="13" transform="matrix(1 0 0 1 -702 -1030)"/></g><g><g><path fill="none" stroke="none"/><text fill="#000000" stroke="none" font-family="Arial" font-size="13px" font-style="normal" font-weight="normal" text-decoration="undefined" x="2027.828125" y="3213.5" text-anchor="middle" dominant-baseline="central" transform="matrix(1 0 0 1 -702 -1030)">«include»</text></g></g></g></svg>