<svg version="1.1" xmlns="http://www.w3.org/2000/svg" xmlns:xlink="http://www.w3.org/1999/xlink" width="1229" height="959"><defs/><g><g><rect fill="#C0C0C0" stroke="none" x="1167" y="599" width="310.23779296875" height="281" transform="matrix(1 0 0 1 -590 -582)" fill-opacity="0.2"/></g><g><rect fill="#ffffff" stroke="none" x="1160" y="592" width="310.23779296875" height="281" transform="matrix(1 0 0 1 -590 -582)"/></g><g><path fill="none" stroke="#000000" paint-order="fill stroke markers" d=" M 570 10 L 880.23779296875 10 L 880.23779296875 291 L 570 291 L 570 10 Z Z" stroke-miterlimit="10" stroke-dasharray=""/></g><g><path fill="none" stroke="#000000" paint-order="fill stroke markers" d=" M 570 35 L 880.23779296875 35" stroke-miterlimit="10" stroke-dasharray=""/></g><g><path fill="none" stroke="#000000" paint-order="fill stroke markers" d=" M 570 178 L 880.23779296875 178" stroke-miterlimit="10" stroke-dasharray=""/></g><g><g><path fill="none" stroke="none"/><text fill="#000000" stroke="none" font-family="Arial" font-size="13px" font-style="normal" font-weight="bold" text-decoration="undefined" x="1315.618896484375" y="605.5" text-anchor="middle" dominant-baseline="central" transform="matrix(1 0 0 1 -590 -582)">User</text></g></g><g><g><path fill="none" stroke="none"/><text fill="#000000" stroke="none" font-family="Arial" font-size="13px" font-style="normal" font-weight="normal" text-decoration="undefined" x="1165" y="628.5" text-anchor="start" dominant-baseline="central" transform="matrix(1 0 0 1 -590 -582)">-id: int</text></g></g><g><g><path fill="none" stroke="none"/><text fill="#000000" stroke="none" font-family="Arial" font-size="13px" font-style="normal" font-weight="normal" text-decoration="undefined" x="1165" y="643.5" text-anchor="start" dominant-baseline="central" transform="matrix(1 0 0 1 -590 -582)">-name: string</text></g></g><g><g><path fill="none" stroke="none"/><text fill="#000000" stroke="none" font-family="Arial" font-size="13px" font-style="normal" font-weight="normal" text-decoration="undefined" x="1165" y="658.5" text-anchor="start" dominant-baseline="central" transform="matrix(1 0 0 1 -590 -582)">-email: string</text></g></g><g><g><path fill="none" stroke="none"/><text fill="#000000" stroke="none" font-family="Arial" font-size="13px" font-style="normal" font-weight="normal" text-decoration="undefined" x="1165" y="673.5" text-anchor="start" dominant-baseline="central" transform="matrix(1 0 0 1 -590 -582)">-password: string</text></g></g><g><g><path fill="none" stroke="none"/><text fill="#000000" stroke="none" font-family="Arial" font-size="13px" font-style="normal" font-weight="normal" text-decoration="undefined" x="1165" y="688.5" text-anchor="start" dominant-baseline="central" transform="matrix(1 0 0 1 -590 -582)">-is_banned: string</text></g></g><g><g><path fill="none" stroke="none"/><text fill="#000000" stroke="none" font-family="Arial" font-size="13px" font-style="normal" font-weight="normal" text-decoration="undefined" x="1165" y="703.5" text-anchor="start" dominant-baseline="central" transform="matrix(1 0 0 1 -590 -582)">-banned_at: datetime</text></g></g><g><g><path fill="none" stroke="none"/><text fill="#000000" stroke="none" font-family="Arial" font-size="13px" font-style="normal" font-weight="normal" text-decoration="undefined" x="1165" y="718.5" text-anchor="start" dominant-baseline="central" transform="matrix(1 0 0 1 -590 -582)">-reputation_score: int</text></g></g><g><g><path fill="none" stroke="none"/><text fill="#000000" stroke="none" font-family="Arial" font-size="13px" font-style="normal" font-weight="normal" text-decoration="undefined" x="1165" y="733.5" text-anchor="start" dominant-baseline="central" transform="matrix(1 0 0 1 -590 -582)">-created_at: datetime</text></g></g><g><g><path fill="none" stroke="none"/><text fill="#000000" stroke="none" font-family="Arial" font-size="13px" font-style="normal" font-weight="normal" text-decoration="undefined" x="1165" y="748.5" text-anchor="start" dominant-baseline="central" transform="matrix(1 0 0 1 -590 -582)">-updated_at: datetime</text></g></g><g><g><path fill="none" stroke="none"/><text fill="#000000" stroke="none" font-family="Arial" font-size="13px" font-style="normal" font-weight="normal" text-decoration="undefined" x="1165" y="771.5" text-anchor="start" dominant-baseline="central" transform="matrix(1 0 0 1 -590 -582)">+sendInvitaion(email: sltring, colocation: Colocation)</text></g></g><g><g><path fill="none" stroke="none"/><text fill="#000000" stroke="none" font-family="Arial" font-size="13px" font-style="normal" font-weight="normal" text-decoration="undefined" x="1165" y="786.5" text-anchor="start" dominant-baseline="central" transform="matrix(1 0 0 1 -590 -582)">+accepteInvitaion(invitation: Invitation)</text></g></g><g><g><path fill="none" stroke="none"/><text fill="#000000" stroke="none" font-family="Arial" font-size="13px" font-style="normal" font-weight="normal" text-decoration="undefined" x="1165" y="801.5" text-anchor="start" dominant-baseline="central" transform="matrix(1 0 0 1 -590 -582)">+markDeptAsPaid(dept: Dept, amount: float)</text></g></g><g><g><path fill="none" stroke="none"/><text fill="#000000" stroke="none" font-family="Arial" font-size="13px" font-style="normal" font-weight="normal" text-decoration="undefined" x="1165" y="816.5" text-anchor="start" dominant-baseline="central" transform="matrix(1 0 0 1 -590 -582)">+createColocation(name: string, description: string)</text></g></g><g><g><path fill="none" stroke="none"/><text fill="#000000" stroke="none" font-family="Arial" font-size="13px" font-style="normal" font-weight="normal" text-decoration="undefined" x="1165" y="831.5" text-anchor="start" dominant-baseline="central" transform="matrix(1 0 0 1 -590 -582)">+leaveColocation(c: Colocation): void</text></g></g><g><g><path fill="none" stroke="none"/><text fill="#000000" stroke="none" font-family="Arial" font-size="13px" font-style="normal" font-weight="normal" text-decoration="undefined" x="1165" y="846.5" text-anchor="start" dominant-baseline="central" transform="matrix(1 0 0 1 -590 -582)">+ban(): void</text></g></g><g><g><path fill="none" stroke="none"/><text fill="#000000" stroke="none" font-family="Arial" font-size="13px" font-style="normal" font-weight="normal" text-decoration="undefined" x="1165" y="861.5" text-anchor="start" dominant-baseline="central" transform="matrix(1 0 0 1 -590 -582)">+unban(): void</text></g></g><g><rect fill="#C0C0C0" stroke="none" x="1199" y="1079" width="235.7861328125" height="236" transform="matrix(1 0 0 1 -590 -582)" fill-opacity="0.2"/></g><g><rect fill="#ffffff" stroke="none" x="1192" y="1072" width="235.7861328125" height="236" transform="matrix(1 0 0 1 -590 -582)"/></g><g><path fill="none" stroke="#000000" paint-order="fill stroke markers" d=" M 602 490 L 837.7861328125 490 L 837.7861328125 726 L 602 726 L 602 490 Z Z" stroke-miterlimit="10" stroke-dasharray=""/></g><g><path fill="none" stroke="#000000" paint-order="fill stroke markers" d=" M 602 515 L 837.7861328125 515" stroke-miterlimit="10" stroke-dasharray=""/></g><g><path fill="none" stroke="#000000" paint-order="fill stroke markers" d=" M 602 643 L 837.7861328125 643" stroke-miterlimit="10" stroke-dasharray=""/></g><g><g><path fill="none" stroke="none"/><text fill="#000000" stroke="none" font-family="Arial" font-size="13px" font-style="normal" font-weight="bold" text-decoration="undefined" x="1310.39306640625" y="1085.5" text-anchor="middle" dominant-baseline="central" transform="matrix(1 0 0 1 -590 -582)">Colocation</text></g></g><g><g><path fill="none" stroke="none"/><text fill="#000000" stroke="none" font-family="Arial" font-size="13px" font-style="normal" font-weight="normal" text-decoration="undefined" x="1197" y="1108.5" text-anchor="start" dominant-baseline="central" transform="matrix(1 0 0 1 -590 -582)">-id: int</text></g></g><g><g><path fill="none" stroke="none"/><text fill="#000000" stroke="none" font-family="Arial" font-size="13px" font-style="normal" font-weight="normal" text-decoration="undefined" x="1197" y="1123.5" text-anchor="start" dominant-baseline="central" transform="matrix(1 0 0 1 -590 -582)">-name: string</text></g></g><g><g><path fill="none" stroke="none"/><text fill="#000000" stroke="none" font-family="Arial" font-size="13px" font-style="normal" font-weight="normal" text-decoration="undefined" x="1197" y="1138.5" text-anchor="start" dominant-baseline="central" transform="matrix(1 0 0 1 -590 -582)">-description: string</text></g></g><g><g><path fill="none" stroke="none"/><text fill="#000000" stroke="none" font-family="Arial" font-size="13px" font-style="normal" font-weight="normal" text-decoration="undefined" x="1197" y="1153.5" text-anchor="start" dominant-baseline="central" transform="matrix(1 0 0 1 -590 -582)">-status: string</text></g></g><g><g><path fill="none" stroke="none"/><text fill="#000000" stroke="none" font-family="Arial" font-size="13px" font-style="normal" font-weight="normal" text-decoration="undefined" x="1197" y="1168.5" text-anchor="start" dominant-baseline="central" transform="matrix(1 0 0 1 -590 -582)">-image: string</text></g></g><g><g><path fill="none" stroke="none"/><text fill="#000000" stroke="none" font-family="Arial" font-size="13px" font-style="normal" font-weight="normal" text-decoration="undefined" x="1197" y="1183.5" text-anchor="start" dominant-baseline="central" transform="matrix(1 0 0 1 -590 -582)">-canceled_at: datetime</text></g></g><g><g><path fill="none" stroke="none"/><text fill="#000000" stroke="none" font-family="Arial" font-size="13px" font-style="normal" font-weight="normal" text-decoration="undefined" x="1197" y="1198.5" text-anchor="start" dominant-baseline="central" transform="matrix(1 0 0 1 -590 -582)">-created_at: datetime</text></g></g><g><g><path fill="none" stroke="none"/><text fill="#000000" stroke="none" font-family="Arial" font-size="13px" font-style="normal" font-weight="normal" text-decoration="undefined" x="1197" y="1213.5" text-anchor="start" dominant-baseline="central" transform="matrix(1 0 0 1 -590 -582)">-updated_at: datetime</text></g></g><g><g><path fill="none" stroke="none"/><text fill="#000000" stroke="none" font-family="Arial" font-size="13px" font-style="normal" font-weight="normal" text-decoration="undefined" x="1197" y="1236.5" text-anchor="start" dominant-baseline="central" transform="matrix(1 0 0 1 -590 -582)">+addMember(u: User, role: string): void</text></g></g><g><g><path fill="none" stroke="none"/><text fill="#000000" stroke="none" font-family="Arial" font-size="13px" font-style="normal" font-weight="normal" text-decoration="undefined" x="1197" y="1251.5" text-anchor="start" dominant-baseline="central" transform="matrix(1 0 0 1 -590 -582)">+removeMember(u: User): void</text></g></g><g><g><path fill="none" stroke="none"/><text fill="#000000" stroke="none" font-family="Arial" font-size="13px" font-style="normal" font-weight="normal" text-decoration="undefined" x="1197" y="1266.5" text-anchor="start" dominant-baseline="central" transform="matrix(1 0 0 1 -590 -582)">+transferOwnerShip(u: User): voif</text></g></g><g><g><path fill="none" stroke="none"/><text fill="#000000" stroke="none" font-family="Arial" font-size="13px" font-style="normal" font-weight="normal" text-decoration="undefined" x="1197" y="1281.5" text-anchor="start" dominant-baseline="central" transform="matrix(1 0 0 1 -590 -582)">+cancel(): void</text></g></g><g><g><path fill="none" stroke="none"/><text fill="#000000" stroke="none" font-family="Arial" font-size="13px" font-style="normal" font-weight="normal" text-decoration="undefined" x="1197" y="1296.5" text-anchor="start" dominant-baseline="central" transform="matrix(1 0 0 1 -590 -582)">+isActive(): boolean</text></g></g><g><rect fill="#C0C0C0" stroke="none" x="935" y="895" width="192" height="168" transform="matrix(1 0 0 1 -590 -582)" fill-opacity="0.2"/></g><g><rect fill="#ffffff" stroke="none" x="928" y="888" width="192" height="168" transform="matrix(1 0 0 1 -590 -582)"/></g><g><path fill="none" stroke="#000000" paint-order="fill stroke markers" d=" M 338 306 L 530 306 L 530 474 L 338 474 L 338 306 Z Z" stroke-miterlimit="10" stroke-dasharray=""/></g><g><path fill="none" stroke="#000000" paint-order="fill stroke markers" d=" M 338 331 L 530 331" stroke-miterlimit="10" stroke-dasharray=""/></g><g><path fill="none" stroke="#000000" paint-order="fill stroke markers" d=" M 338 414 L 530 414" stroke-miterlimit="10" stroke-dasharray=""/></g><g><g><path fill="none" stroke="none"/><text fill="#000000" stroke="none" font-family="Arial" font-size="13px" font-style="normal" font-weight="bold" text-decoration="undefined" x="1024.5" y="901.5" text-anchor="middle" dominant-baseline="central" transform="matrix(1 0 0 1 -590 -582)">ColocationMemeberShip</text></g></g><g><g><path fill="none" stroke="none"/><text fill="#000000" stroke="none" font-family="Arial" font-size="13px" font-style="normal" font-weight="normal" text-decoration="undefined" x="933" y="924.5" text-anchor="start" dominant-baseline="central" transform="matrix(1 0 0 1 -590 -582)">-role_in_colocation: string</text></g></g><g><g><path fill="none" stroke="none"/><text fill="#000000" stroke="none" font-family="Arial" font-size="13px" font-style="normal" font-weight="normal" text-decoration="undefined" x="933" y="939.5" text-anchor="start" dominant-baseline="central" transform="matrix(1 0 0 1 -590 -582)">-joined_at: datetime</text></g></g><g><g><path fill="none" stroke="none"/><text fill="#000000" stroke="none" font-family="Arial" font-size="13px" font-style="normal" font-weight="normal" text-decoration="undefined" x="933" y="954.5" text-anchor="start" dominant-baseline="central" transform="matrix(1 0 0 1 -590 -582)">-left_at: datetime</text></g></g><g><g><path fill="none" stroke="none"/><text fill="#000000" stroke="none" font-family="Arial" font-size="13px" font-style="normal" font-weight="normal" text-decoration="undefined" x="933" y="969.5" text-anchor="start" dominant-baseline="central" transform="matrix(1 0 0 1 -590 -582)">-created_at: datetime</text></g></g><g><g><path fill="none" stroke="none"/><text fill="#000000" stroke="none" font-family="Arial" font-size="13px" font-style="normal" font-weight="normal" text-decoration="undefined" x="933" y="984.5" text-anchor="start" dominant-baseline="central" transform="matrix(1 0 0 1 -590 -582)">-updated_at: datetime</text></g></g><g><g><path fill="none" stroke="none"/><text fill="#000000" stroke="none" font-family="Arial" font-size="13px" font-style="normal" font-weight="normal" text-decoration="undefined" x="933" y="1007.5" text-anchor="start" dominant-baseline="central" transform="matrix(1 0 0 1 -590 -582)">+leave(): void</text></g></g><g><g><path fill="none" stroke="none"/><text fill="#000000" stroke="none" font-family="Arial" font-size="13px" font-style="normal" font-weight="normal" text-decoration="undefined" x="933" y="1022.5" text-anchor="start" dominant-baseline="central" transform="matrix(1 0 0 1 -590 -582)">+isMember(): boolean</text></g></g><g><g><path fill="none" stroke="none"/><text fill="#000000" stroke="none" font-family="Arial" font-size="13px" font-style="normal" font-weight="normal" text-decoration="undefined" x="933" y="1037.5" text-anchor="start" dominant-baseline="central" transform="matrix(1 0 0 1 -590 -582)">+isOwner(): boolean</text></g></g><g><rect fill="#C0C0C0" stroke="none" x="1615" y="1103" width="200" height="206" transform="matrix(1 0 0 1 -590 -582)" fill-opacity="0.2"/></g><g><rect fill="#ffffff" stroke="none" x="1608" y="1096" width="200" height="206" transform="matrix(1 0 0 1 -590 -582)"/></g><g><path fill="none" stroke="#000000" paint-order="fill stroke markers" d=" M 1018 514 L 1218 514 L 1218 720 L 1018 720 L 1018 514 Z Z" stroke-miterlimit="10" stroke-dasharray=""/></g><g><path fill="none" stroke="#000000" paint-order="fill stroke markers" d=" M 1018 539 L 1218 539" stroke-miterlimit="10" stroke-dasharray=""/></g><g><path fill="none" stroke="#000000" paint-order="fill stroke markers" d=" M 1018 652 L 1218 652" stroke-miterlimit="10" stroke-dasharray=""/></g><g><g><path fill="none" stroke="none"/><text fill="#000000" stroke="none" font-family="Arial" font-size="13px" font-style="normal" font-weight="bold" text-decoration="undefined" x="1708.5" y="1109.5" text-anchor="middle" dominant-baseline="central" transform="matrix(1 0 0 1 -590 -582)">Invitation</text></g></g><g><g><path fill="none" stroke="none"/><text fill="#000000" stroke="none" font-family="Arial" font-size="13px" font-style="normal" font-weight="normal" text-decoration="undefined" x="1613" y="1132.5" text-anchor="start" dominant-baseline="central" transform="matrix(1 0 0 1 -590 -582)">-id: int</text></g></g><g><g><path fill="none" stroke="none"/><text fill="#000000" stroke="none" font-family="Arial" font-size="13px" font-style="normal" font-weight="normal" text-decoration="undefined" x="1613" y="1147.5" text-anchor="start" dominant-baseline="central" transform="matrix(1 0 0 1 -590 -582)">-invited_email: string</text></g></g><g><g><path fill="none" stroke="none"/><text fill="#000000" stroke="none" font-family="Arial" font-size="13px" font-style="normal" font-weight="normal" text-decoration="undefined" x="1613" y="1162.5" text-anchor="start" dominant-baseline="central" transform="matrix(1 0 0 1 -590 -582)">-token: string</text></g></g><g><g><path fill="none" stroke="none"/><text fill="#000000" stroke="none" font-family="Arial" font-size="13px" font-style="normal" font-weight="normal" text-decoration="undefined" x="1613" y="1177.5" text-anchor="start" dominant-baseline="central" transform="matrix(1 0 0 1 -590 -582)">-status: string</text></g></g><g><g><path fill="none" stroke="none"/><text fill="#000000" stroke="none" font-family="Arial" font-size="13px" font-style="normal" font-weight="normal" text-decoration="undefined" x="1613" y="1192.5" text-anchor="start" dominant-baseline="central" transform="matrix(1 0 0 1 -590 -582)">-expired_at: datetime</text></g></g><g><g><path fill="none" stroke="none"/><text fill="#000000" stroke="none" font-family="Arial" font-size="13px" font-style="normal" font-weight="normal" text-decoration="undefined" x="1613" y="1207.5" text-anchor="start" dominant-baseline="central" transform="matrix(1 0 0 1 -590 -582)">-created_at: datetime</text></g></g><g><g><path fill="none" stroke="none"/><text fill="#000000" stroke="none" font-family="Arial" font-size="13px" font-style="normal" font-weight="normal" text-decoration="undefined" x="1613" y="1222.5" text-anchor="start" dominant-baseline="central" transform="matrix(1 0 0 1 -590 -582)">-updated_at: datetime</text></g></g><g><g><path fill="none" stroke="none"/><text fill="#000000" stroke="none" font-family="Arial" font-size="13px" font-style="normal" font-weight="normal" text-decoration="undefined" x="1613" y="1245.5" text-anchor="start" dominant-baseline="central" transform="matrix(1 0 0 1 -590 -582)">+isExpired(): boolean</text></g></g><g><g><path fill="none" stroke="none"/><text fill="#000000" stroke="none" font-family="Arial" font-size="13px" font-style="normal" font-weight="normal" text-decoration="undefined" x="1613" y="1260.5" text-anchor="start" dominant-baseline="central" transform="matrix(1 0 0 1 -590 -582)">+acceptByUser(u: User): void</text></g></g><g><g><path fill="none" stroke="none"/><text fill="#000000" stroke="none" font-family="Arial" font-size="13px" font-style="normal" font-weight="normal" text-decoration="undefined" x="1613" y="1275.5" text-anchor="start" dominant-baseline="central" transform="matrix(1 0 0 1 -590 -582)">+refuse(): void</text></g></g><g><g><path fill="none" stroke="none"/><text fill="#000000" stroke="none" font-family="Arial" font-size="13px" font-style="normal" font-weight="normal" text-decoration="undefined" x="1613" y="1290.5" text-anchor="start" dominant-baseline="central" transform="matrix(1 0 0 1 -590 -582)">+isPending(): void</text></g></g><g><rect fill="#C0C0C0" stroke="none" x="927" y="1135" width="136.47705078125" height="118" transform="matrix(1 0 0 1 -590 -582)" fill-opacity="0.2"/></g><g><rect fill="#ffffff" stroke="none" x="920" y="1128" width="136.47705078125" height="118" transform="matrix(1 0 0 1 -590 -582)"/></g><g><path fill="none" stroke="#000000" paint-order="fill stroke markers" d=" M 330 546 L 466.47705078125 546 L 466.47705078125 664 L 330 664 L 330 546 Z Z" stroke-miterlimit="10" stroke-dasharray=""/></g><g><path fill="none" stroke="#000000" paint-order="fill stroke markers" d=" M 330 571 L 466.47705078125 571" stroke-miterlimit="10" stroke-dasharray=""/></g><g><path fill="none" stroke="#000000" paint-order="fill stroke markers" d=" M 330 654 L 466.47705078125 654" stroke-miterlimit="10" stroke-dasharray=""/></g><g><g><path fill="none" stroke="none"/><text fill="#000000" stroke="none" font-family="Arial" font-size="13px" font-style="normal" font-weight="bold" text-decoration="undefined" x="988.738525390625" y="1141.5" text-anchor="middle" dominant-baseline="central" transform="matrix(1 0 0 1 -590 -582)">Category</text></g></g><g><g><path fill="none" stroke="none"/><text fill="#000000" stroke="none" font-family="Arial" font-size="13px" font-style="normal" font-weight="normal" text-decoration="undefined" x="925" y="1164.5" text-anchor="start" dominant-baseline="central" transform="matrix(1 0 0 1 -590 -582)">-id: int</text></g></g><g><g><path fill="none" stroke="none"/><text fill="#000000" stroke="none" font-family="Arial" font-size="13px" font-style="normal" font-weight="normal" text-decoration="undefined" x="925" y="1179.5" text-anchor="start" dominant-baseline="central" transform="matrix(1 0 0 1 -590 -582)">-name: string</text></g></g><g><g><path fill="none" stroke="none"/><text fill="#000000" stroke="none" font-family="Arial" font-size="13px" font-style="normal" font-weight="normal" text-decoration="undefined" x="925" y="1194.5" text-anchor="start" dominant-baseline="central" transform="matrix(1 0 0 1 -590 -582)">-color: string</text></g></g><g><g><path fill="none" stroke="none"/><text fill="#000000" stroke="none" font-family="Arial" font-size="13px" font-style="normal" font-weight="normal" text-decoration="undefined" x="925" y="1209.5" text-anchor="start" dominant-baseline="central" transform="matrix(1 0 0 1 -590 -582)">-created_at: datetime</text></g></g><g><g><path fill="none" stroke="none"/><text fill="#000000" stroke="none" font-family="Arial" font-size="13px" font-style="normal" font-weight="normal" text-decoration="undefined" x="925" y="1224.5" text-anchor="start" dominant-baseline="central" transform="matrix(1 0 0 1 -590 -582)">-updated_at: datetime</text></g></g><g><rect fill="#C0C0C0" stroke="none" x="911" y="1351" width="176" height="161" transform="matrix(1 0 0 1 -590 -582)" fill-opacity="0.2"/></g><g><rect fill="#ffffff" stroke="none" x="904" y="1344" width="176" height="161" transform="matrix(1 0 0 1 -590 -582)"/></g><g><path fill="none" stroke="#000000" paint-order="fill stroke markers" d=" M 314 762 L 490 762 L 490 923 L 314 923 L 314 762 Z Z" stroke-miterlimit="10" stroke-dasharray=""/></g><g><path fill="none" stroke="#000000" paint-order="fill stroke markers" d=" M 314 787 L 490 787" stroke-miterlimit="10" stroke-dasharray=""/></g><g><path fill="none" stroke="#000000" paint-order="fill stroke markers" d=" M 314 900 L 490 900" stroke-miterlimit="10" stroke-dasharray=""/></g><g><g><path fill="none" stroke="none"/><text fill="#000000" stroke="none" font-family="Arial" font-size="13px" font-style="normal" font-weight="bold" text-decoration="undefined" x="992.5" y="1357.5" text-anchor="middle" dominant-baseline="central" transform="matrix(1 0 0 1 -590 -582)">Expense</text></g></g><g><g><path fill="none" stroke="none"/><text fill="#000000" stroke="none" font-family="Arial" font-size="13px" font-style="normal" font-weight="normal" text-decoration="undefined" x="909" y="1380.5" text-anchor="start" dominant-baseline="central" transform="matrix(1 0 0 1 -590 -582)">-id: int</text></g></g><g><g><path fill="none" stroke="none"/><text fill="#000000" stroke="none" font-family="Arial" font-size="13px" font-style="normal" font-weight="normal" text-decoration="undefined" x="909" y="1395.5" text-anchor="start" dominant-baseline="central" transform="matrix(1 0 0 1 -590 -582)">-titile: string</text></g></g><g><g><path fill="none" stroke="none"/><text fill="#000000" stroke="none" font-family="Arial" font-size="13px" font-style="normal" font-weight="normal" text-decoration="undefined" x="909" y="1410.5" text-anchor="start" dominant-baseline="central" transform="matrix(1 0 0 1 -590 -582)">-amount: float</text></g></g><g><g><path fill="none" stroke="none"/><text fill="#000000" stroke="none" font-family="Arial" font-size="13px" font-style="normal" font-weight="normal" text-decoration="undefined" x="909" y="1425.5" text-anchor="start" dominant-baseline="central" transform="matrix(1 0 0 1 -590 -582)">-spent_at: date</text></g></g><g><g><path fill="none" stroke="none"/><text fill="#000000" stroke="none" font-family="Arial" font-size="13px" font-style="normal" font-weight="normal" text-decoration="undefined" x="909" y="1440.5" text-anchor="start" dominant-baseline="central" transform="matrix(1 0 0 1 -590 -582)">-note;string</text></g></g><g><g><path fill="none" stroke="none"/><text fill="#000000" stroke="none" font-family="Arial" font-size="13px" font-style="normal" font-weight="normal" text-decoration="undefined" x="909" y="1455.5" text-anchor="start" dominant-baseline="central" transform="matrix(1 0 0 1 -590 -582)">-created_at: datetime</text></g></g><g><g><path fill="none" stroke="none"/><text fill="#000000" stroke="none" font-family="Arial" font-size="13px" font-style="normal" font-weight="normal" text-decoration="undefined" x="909" y="1470.5" text-anchor="start" dominant-baseline="central" transform="matrix(1 0 0 1 -590 -582)">-updated_at: datetime</text></g></g><g><g><path fill="none" stroke="none"/><text fill="#000000" stroke="none" font-family="Arial" font-size="13px" font-style="normal" font-weight="normal" text-decoration="undefined" x="909" y="1493.5" text-anchor="start" dominant-baseline="central" transform="matrix(1 0 0 1 -590 -582)">+splitEqual(users)</text></g></g><g><rect fill="#C0C0C0" stroke="none" x="607" y="1367" width="168" height="128" transform="matrix(1 0 0 1 -590 -582)" fill-opacity="0.2"/></g><g><rect fill="#ffffff" stroke="none" x="600" y="1360" width="168" height="128" transform="matrix(1 0 0 1 -590 -582)"/></g><g><path fill="none" stroke="#000000" paint-order="fill stroke markers" d=" M 10 778 L 178 778 L 178 906 L 10 906 L 10 778 Z Z" stroke-miterlimit="10" stroke-dasharray=""/></g><g><path fill="none" stroke="#000000" paint-order="fill stroke markers" d=" M 10 803 L 178 803" stroke-miterlimit="10" stroke-dasharray=""/></g><g><path fill="none" stroke="#000000" paint-order="fill stroke markers" d=" M 10 871 L 178 871" stroke-miterlimit="10" stroke-dasharray=""/></g><g><g><path fill="none" stroke="none"/><text fill="#000000" stroke="none" font-family="Arial" font-size="13px" font-style="normal" font-weight="bold" text-decoration="undefined" x="684.5" y="1373.5" text-anchor="middle" dominant-baseline="central" transform="matrix(1 0 0 1 -590 -582)">ExpenseSplit</text></g></g><g><g><path fill="none" stroke="none"/><text fill="#000000" stroke="none" font-family="Arial" font-size="13px" font-style="normal" font-weight="normal" text-decoration="undefined" x="605" y="1396.5" text-anchor="start" dominant-baseline="central" transform="matrix(1 0 0 1 -590 -582)">-id: int</text></g></g><g><g><path fill="none" stroke="none"/><text fill="#000000" stroke="none" font-family="Arial" font-size="13px" font-style="normal" font-weight="normal" text-decoration="undefined" x="605" y="1411.5" text-anchor="start" dominant-baseline="central" transform="matrix(1 0 0 1 -590 -582)">-share_amount: float</text></g></g><g><g><path fill="none" stroke="none"/><text fill="#000000" stroke="none" font-family="Arial" font-size="13px" font-style="normal" font-weight="normal" text-decoration="undefined" x="605" y="1426.5" text-anchor="start" dominant-baseline="central" transform="matrix(1 0 0 1 -590 -582)">-created_at: datetime</text></g></g><g><g><path fill="none" stroke="none"/><text fill="#000000" stroke="none" font-family="Arial" font-size="13px" font-style="normal" font-weight="normal" text-decoration="undefined" x="605" y="1441.5" text-anchor="start" dominant-baseline="central" transform="matrix(1 0 0 1 -590 -582)">-updated_at: datetime</text></g></g><g><rect fill="#C0C0C0" stroke="none" x="1119" y="1383" width="168" height="120" transform="matrix(1 0 0 1 -590 -582)" fill-opacity="0.2"/></g><g><rect fill="#ffffff" stroke="none" x="1112" y="1376" width="168" height="120" transform="matrix(1 0 0 1 -590 -582)"/></g><g><path fill="none" stroke="#000000" paint-order="fill stroke markers" d=" M 522 794 L 690 794 L 690 914 L 522 914 L 522 794 Z Z" stroke-miterlimit="10" stroke-dasharray=""/></g><g><path fill="none" stroke="#000000" paint-order="fill stroke markers" d=" M 522 819 L 690 819" stroke-miterlimit="10" stroke-dasharray=""/></g><g><path fill="none" stroke="#000000" paint-order="fill stroke markers" d=" M 522 887 L 690 887" stroke-miterlimit="10" stroke-dasharray=""/></g><g><g><path fill="none" stroke="none"/><text fill="#000000" stroke="none" font-family="Arial" font-size="13px" font-style="normal" font-weight="bold" text-decoration="undefined" x="1196.5" y="1389.5" text-anchor="middle" dominant-baseline="central" transform="matrix(1 0 0 1 -590 -582)">Dette</text></g></g><g><g><path fill="none" stroke="none"/><text fill="#000000" stroke="none" font-family="Arial" font-size="13px" font-style="normal" font-weight="normal" text-decoration="undefined" x="1117" y="1412.5" text-anchor="start" dominant-baseline="central" transform="matrix(1 0 0 1 -590 -582)">-id: int</text></g></g><g><g><path fill="none" stroke="none"/><text fill="#000000" stroke="none" font-family="Arial" font-size="13px" font-style="normal" font-weight="normal" text-decoration="undefined" x="1117" y="1427.5" text-anchor="start" dominant-baseline="central" transform="matrix(1 0 0 1 -590 -582)">-amount: float</text></g></g><g><g><path fill="none" stroke="none"/><text fill="#000000" stroke="none" font-family="Arial" font-size="13px" font-style="normal" font-weight="normal" text-decoration="undefined" x="1117" y="1442.5" text-anchor="start" dominant-baseline="central" transform="matrix(1 0 0 1 -590 -582)">-created_at: datetime</text></g></g><g><g><path fill="none" stroke="none"/><text fill="#000000" stroke="none" font-family="Arial" font-size="13px" font-style="normal" font-weight="normal" text-decoration="undefined" x="1117" y="1457.5" text-anchor="start" dominant-baseline="central" transform="matrix(1 0 0 1 -590 -582)">-updated_at: datetime</text></g></g><g><rect fill="#C0C0C0" stroke="none" x="1335" y="1407" width="196.7861328125" height="131" transform="matrix(1 0 0 1 -590 -582)" fill-opacity="0.2"/></g><g><rect fill="#ffffff" stroke="none" x="1328" y="1400" width="196.7861328125" height="131" transform="matrix(1 0 0 1 -590 -582)"/></g><g><path fill="none" stroke="#000000" paint-order="fill stroke markers" d=" M 738 818 L 934.7861328125 818 L 934.7861328125 949 L 738 949 L 738 818 Z Z" stroke-miterlimit="10" stroke-dasharray=""/></g><g><path fill="none" stroke="#000000" paint-order="fill stroke markers" d=" M 738 843 L 934.7861328125 843" stroke-miterlimit="10" stroke-dasharray=""/></g><g><path fill="none" stroke="#000000" paint-order="fill stroke markers" d=" M 738 926 L 934.7861328125 926" stroke-miterlimit="10" stroke-dasharray=""/></g><g><g><path fill="none" stroke="none"/><text fill="#000000" stroke="none" font-family="Arial" font-size="13px" font-style="normal" font-weight="bold" text-decoration="undefined" x="1426.89306640625" y="1413.5" text-anchor="middle" dominant-baseline="central" transform="matrix(1 0 0 1 -590 -582)">Payment</text></g></g><g><g><path fill="none" stroke="none"/><text fill="#000000" stroke="none" font-family="Arial" font-size="13px" font-style="normal" font-weight="normal" text-decoration="undefined" x="1333" y="1436.5" text-anchor="start" dominant-baseline="central" transform="matrix(1 0 0 1 -590 -582)">-id: int</text></g></g><g><g><path fill="none" stroke="none"/><text fill="#000000" stroke="none" font-family="Arial" font-size="13px" font-style="normal" font-weight="normal" text-decoration="undefined" x="1333" y="1451.5" text-anchor="start" dominant-baseline="central" transform="matrix(1 0 0 1 -590 -582)">-amount: string</text></g></g><g><g><path fill="none" stroke="none"/><text fill="#000000" stroke="none" font-family="Arial" font-size="13px" font-style="normal" font-weight="normal" text-decoration="undefined" x="1333" y="1466.5" text-anchor="start" dominant-baseline="central" transform="matrix(1 0 0 1 -590 -582)">-paid_at: datetime</text></g></g><g><g><path fill="none" stroke="none"/><text fill="#000000" stroke="none" font-family="Arial" font-size="13px" font-style="normal" font-weight="normal" text-decoration="undefined" x="1333" y="1481.5" text-anchor="start" dominant-baseline="central" transform="matrix(1 0 0 1 -590 -582)">-created_at: datetime</text></g></g><g><g><path fill="none" stroke="none"/><text fill="#000000" stroke="none" font-family="Arial" font-size="13px" font-style="normal" font-weight="normal" text-decoration="undefined" x="1333" y="1496.5" text-anchor="start" dominant-baseline="central" transform="matrix(1 0 0 1 -590 -582)">-updated_at: datetime</text></g></g><g><g><path fill="none" stroke="none"/><text fill="#000000" stroke="none" font-family="Arial" font-size="13px" font-style="normal" font-weight="normal" text-decoration="undefined" x="1333" y="1519.5" text-anchor="start" dominant-baseline="central" transform="matrix(1 0 0 1 -590 -582)">+ApplyToDept(Dept: Dette): void</text></g></g><g><rect fill="#C0C0C0" stroke="none" x="1583" y="1375" width="171.47802734375" height="161" transform="matrix(1 0 0 1 -590 -582)" fill-opacity="0.2"/></g><g><rect fill="#ffffff" stroke="none" x="1576" y="1368" width="171.47802734375" height="161" transform="matrix(1 0 0 1 -590 -582)"/></g><g><path fill="none" stroke="#000000" paint-order="fill stroke markers" d=" M 986 786 L 1157.47802734375 786 L 1157.47802734375 947 L 986 947 L 986 786 Z Z" stroke-miterlimit="10" stroke-dasharray=""/></g><g><path fill="none" stroke="#000000" paint-order="fill stroke markers" d=" M 986 811 L 1157.47802734375 811" stroke-miterlimit="10" stroke-dasharray=""/></g><g><path fill="none" stroke="#000000" paint-order="fill stroke markers" d=" M 986 894 L 1157.47802734375 894" stroke-miterlimit="10" stroke-dasharray=""/></g><g><g><path fill="none" stroke="none"/><text fill="#000000" stroke="none" font-family="Arial" font-size="13px" font-style="normal" font-weight="bold" text-decoration="undefined" x="1662.239013671875" y="1381.5" text-anchor="middle" dominant-baseline="central" transform="matrix(1 0 0 1 -590 -582)">ReputationEvent</text></g></g><g><g><path fill="none" stroke="none"/><text fill="#000000" stroke="none" font-family="Arial" font-size="13px" font-style="normal" font-weight="normal" text-decoration="undefined" x="1581" y="1404.5" text-anchor="start" dominant-baseline="central" transform="matrix(1 0 0 1 -590 -582)">-id: int</text></g></g><g><g><path fill="none" stroke="none"/><text fill="#000000" stroke="none" font-family="Arial" font-size="13px" font-style="normal" font-weight="normal" text-decoration="undefined" x="1581" y="1419.5" text-anchor="start" dominant-baseline="central" transform="matrix(1 0 0 1 -590 -582)">-type: string</text></g></g><g><g><path fill="none" stroke="none"/><text fill="#000000" stroke="none" font-family="Arial" font-size="13px" font-style="normal" font-weight="normal" text-decoration="undefined" x="1581" y="1434.5" text-anchor="start" dominant-baseline="central" transform="matrix(1 0 0 1 -590 -582)">-delta: string</text></g></g><g><g><path fill="none" stroke="none"/><text fill="#000000" stroke="none" font-family="Arial" font-size="13px" font-style="normal" font-weight="normal" text-decoration="undefined" x="1581" y="1449.5" text-anchor="start" dominant-baseline="central" transform="matrix(1 0 0 1 -590 -582)">-created_at: datetime</text></g></g><g><g><path fill="none" stroke="none"/><text fill="#000000" stroke="none" font-family="Arial" font-size="13px" font-style="normal" font-weight="normal" text-decoration="undefined" x="1581" y="1464.5" text-anchor="start" dominant-baseline="central" transform="matrix(1 0 0 1 -590 -582)">-updated_at: datetime</text></g></g><g><g><path fill="none" stroke="none"/><text fill="#000000" stroke="none" font-family="Arial" font-size="13px" font-style="normal" font-weight="normal" text-decoration="undefined" x="1581" y="1487.5" text-anchor="start" dominant-baseline="central" transform="matrix(1 0 0 1 -590 -582)">+applyToUser(u: User): void</text></g></g><g><g><path fill="none" stroke="none"/><text fill="#000000" stroke="none" font-family="Arial" font-size="13px" font-style="normal" font-weight="normal" text-decoration="undefined" x="1581" y="1502.5" text-anchor="start" dominant-baseline="central" transform="matrix(1 0 0 1 -590 -582)">+isPositife(): boolean</text></g></g><g><g><path fill="none" stroke="none"/><text fill="#000000" stroke="none" font-family="Arial" font-size="13px" font-style="normal" font-weight="normal" text-decoration="undefined" x="1581" y="1517.5" text-anchor="start" dominant-baseline="central" transform="matrix(1 0 0 1 -590 -582)">+isNegative(): boolean</text></g></g><g><path fill="none" stroke="#000000" paint-order="fill stroke markers" d=" M 723 292 L 721 489" stroke-miterlimit="10" stroke-dasharray=""/></g><g><rect fill="#ffffff" stroke="none" x="1291" y="889" width="19.5126953125" height="13" transform="matrix(1 0 0 1 -590 -582)"/></g><g><g><path fill="none" stroke="none"/><text fill="#000000" stroke="none" font-family="Arial" font-size="13px" font-style="normal" font-weight="normal" text-decoration="undefined" x="1300.75634765625" y="895.5" text-anchor="middle" dominant-baseline="central" transform="matrix(1 0 0 1 -590 -582)">0..*</text></g></g><g><rect fill="#ffffff" stroke="none" x="1289" y="1043" width="19.5126953125" height="13" transform="matrix(1 0 0 1 -590 -582)"/></g><g><g><path fill="none" stroke="none"/><text fill="#000000" stroke="none" font-family="Arial" font-size="13px" font-style="normal" font-weight="normal" text-decoration="undefined" x="1298.75634765625" y="1049.5" text-anchor="middle" dominant-baseline="central" transform="matrix(1 0 0 1 -590 -582)">0..*</text></g></g><g><path fill="none" stroke="#000000" paint-order="fill stroke markers" d=" M 531 390 L 722 390" stroke-miterlimit="10" stroke-dasharray="3"/></g><g><path fill="none" stroke="#000000" paint-order="fill stroke markers" d=" M 601 607 L 467 606" stroke-miterlimit="10" stroke-dasharray=""/></g><g><rect fill="#ffffff" stroke="none" x="1166" y="1170" width="7.22998046875" height="13" transform="matrix(1 0 0 1 -590 -582)"/></g><g><g><path fill="none" stroke="none"/><text fill="#000000" stroke="none" font-family="Arial" font-size="13px" font-style="normal" font-weight="normal" text-decoration="undefined" x="1169.614990234375" y="1176.5" text-anchor="middle" dominant-baseline="central" transform="matrix(1 0 0 1 -590 -582)">1</text></g></g><g><rect fill="#ffffff" stroke="none" x="1069" y="1169" width="19.5126953125" height="13" transform="matrix(1 0 0 1 -590 -582)"/></g><g><g><path fill="none" stroke="none"/><text fill="#000000" stroke="none" font-family="Arial" font-size="13px" font-style="normal" font-weight="normal" text-decoration="undefined" x="1078.75634765625" y="1175.5" text-anchor="middle" dominant-baseline="central" transform="matrix(1 0 0 1 -590 -582)">0..*</text></g></g><g><path fill="none" stroke="#000000" paint-order="fill stroke markers" d=" M 399 665 L 401 761" stroke-miterlimit="10" stroke-dasharray=""/></g><g><rect fill="#ffffff" stroke="none" x="973" y="1262" width="7.22998046875" height="13" transform="matrix(1 0 0 1 -590 -582)"/></g><g><g><path fill="none" stroke="none"/><text fill="#000000" stroke="none" font-family="Arial" font-size="13px" font-style="normal" font-weight="normal" text-decoration="undefined" x="976.614990234375" y="1268.5" text-anchor="middle" dominant-baseline="central" transform="matrix(1 0 0 1 -590 -582)">1</text></g></g><g><rect fill="#ffffff" stroke="none" x="969" y="1315" width="19.5126953125" height="13" transform="matrix(1 0 0 1 -590 -582)"/></g><g><g><path fill="none" stroke="none"/><text fill="#000000" stroke="none" font-family="Arial" font-size="13px" font-style="normal" font-weight="normal" text-decoration="undefined" x="978.75634765625" y="1321.5" text-anchor="middle" dominant-baseline="central" transform="matrix(1 0 0 1 -590 -582)">0..*</text></g></g><g><path fill="none" stroke="#000000" paint-order="fill stroke markers" d=" M 313 842 L 179 842" stroke-miterlimit="10" stroke-dasharray=""/></g><g><rect fill="#ffffff" stroke="none" x="878" y="1405" width="7.22998046875" height="13" transform="matrix(1 0 0 1 -590 -582)"/></g><g><g><path fill="none" stroke="none"/><text fill="#000000" stroke="none" font-family="Arial" font-size="13px" font-style="normal" font-weight="normal" text-decoration="undefined" x="881.614990234375" y="1411.5" text-anchor="middle" dominant-baseline="central" transform="matrix(1 0 0 1 -590 -582)">1</text></g></g><g><rect fill="#ffffff" stroke="none" x="779" y="1405" width="23.12451171875" height="13" transform="matrix(1 0 0 1 -590 -582)"/></g><g><g><path fill="none" stroke="none"/><text fill="#000000" stroke="none" font-family="Arial" font-size="13px" font-style="normal" font-weight="normal" text-decoration="undefined" x="790.562255859375" y="1411.5" text-anchor="middle" dominant-baseline="central" transform="matrix(1 0 0 1 -590 -582)">0..* </text></g></g><g><path fill="none" stroke="#000000" paint-order="fill stroke markers" d=" M 839 611 L 1017 615" stroke-miterlimit="10" stroke-dasharray=""/></g><g><rect fill="#ffffff" stroke="none" x="1447" y="1199" width="7.22998046875" height="13" transform="matrix(1 0 0 1 -590 -582)"/></g><g><g><path fill="none" stroke="none"/><text fill="#000000" stroke="none" font-family="Arial" font-size="13px" font-style="normal" font-weight="normal" text-decoration="undefined" x="1450.614990234375" y="1205.5" text-anchor="middle" dominant-baseline="central" transform="matrix(1 0 0 1 -590 -582)">1</text></g></g><g><rect fill="#ffffff" stroke="none" x="1574" y="1203" width="23.12451171875" height="13" transform="matrix(1 0 0 1 -590 -582)"/></g><g><g><path fill="none" stroke="none"/><text fill="#000000" stroke="none" font-family="Arial" font-size="13px" font-style="normal" font-weight="normal" text-decoration="undefined" x="1585.562255859375" y="1209.5" text-anchor="middle" dominant-baseline="central" transform="matrix(1 0 0 1 -590 -582)">0..* </text></g></g><g><path fill="none" stroke="#000000" paint-order="fill stroke markers" d=" M 664 727 L 634 793" stroke-miterlimit="10" stroke-dasharray=""/></g><g><rect fill="#ffffff" stroke="none" x="1230" y="1317" width="7.22998046875" height="13" transform="matrix(1 0 0 1 -590 -582)"/></g><g><g><path fill="none" stroke="none"/><text fill="#000000" stroke="none" font-family="Arial" font-size="13px" font-style="normal" font-weight="normal" text-decoration="undefined" x="1233.614990234375" y="1323.5" text-anchor="middle" dominant-baseline="central" transform="matrix(1 0 0 1 -590 -582)">1</text></g></g><g><rect fill="#ffffff" stroke="none" x="1212" y="1344" width="19.5126953125" height="13" transform="matrix(1 0 0 1 -590 -582)"/></g><g><g><path fill="none" stroke="none"/><text fill="#000000" stroke="none" font-family="Arial" font-size="13px" font-style="normal" font-weight="normal" text-decoration="undefined" x="1221.75634765625" y="1350.5" text-anchor="middle" dominant-baseline="central" transform="matrix(1 0 0 1 -590 -582)">0..*</text></g></g><g><path fill="none" stroke="#000000" paint-order="fill stroke markers" d=" M 770 727 L 808 817" stroke-miterlimit="10" stroke-dasharray=""/></g><g><rect fill="#ffffff" stroke="none" x="1353" y="1327" width="7.22998046875" height="13" transform="matrix(1 0 0 1 -590 -582)"/></g><g><g><path fill="none" stroke="none"/><text fill="#000000" stroke="none" font-family="Arial" font-size="13px" font-style="normal" font-weight="normal" text-decoration="undefined" x="1356.614990234375" y="1333.5" text-anchor="middle" dominant-baseline="central" transform="matrix(1 0 0 1 -590 -582)">1</text></g></g><g><rect fill="#ffffff" stroke="none" x="1369" y="1377" width="19.5126953125" height="13" transform="matrix(1 0 0 1 -590 -582)"/></g><g><g><path fill="none" stroke="none"/><text fill="#000000" stroke="none" font-family="Arial" font-size="13px" font-style="normal" font-weight="normal" text-decoration="undefined" x="1378.75634765625" y="1383.5" text-anchor="middle" dominant-baseline="central" transform="matrix(1 0 0 1 -590 -582)">0..*</text></g></g><g><path fill="none" stroke="#000000" paint-order="fill stroke markers" d=" M 839 696 L 985 803" stroke-miterlimit="10" stroke-dasharray=""/></g><g><rect fill="#ffffff" stroke="none" x="1436" y="1294" width="7.22998046875" height="13" transform="matrix(1 0 0 1 -590 -582)"/></g><g><g><path fill="none" stroke="none"/><text fill="#000000" stroke="none" font-family="Arial" font-size="13px" font-style="normal" font-weight="normal" text-decoration="undefined" x="1439.614990234375" y="1300.5" text-anchor="middle" dominant-baseline="central" transform="matrix(1 0 0 1 -590 -582)">1</text></g></g><g><rect fill="#ffffff" stroke="none" x="1541" y="1376" width="19.5126953125" height="13" transform="matrix(1 0 0 1 -590 -582)"/></g><g><g><path fill="none" stroke="none"/><text fill="#000000" stroke="none" font-family="Arial" font-size="13px" font-style="normal" font-weight="normal" text-decoration="undefined" x="1550.75634765625" y="1382.5" text-anchor="middle" dominant-baseline="central" transform="matrix(1 0 0 1 -590 -582)">0..*</text></g></g></g></svg>