<svg version="1.1" xmlns="http://www.w3.org/2000/svg" xmlns:xlink="http://www.w3.org/1999/xlink" width="1661" height="1180"><defs/><g><g><rect fill="#C0C0C0" stroke="none" x="319" y="31" width="1416" height="1160" transform="matrix(1 0 0 1 -78 -14)" fill-opacity="0.2"/></g><g><rect fill="#ffffff" stroke="none" x="312" y="24" width="1416" height="1160" transform="matrix(1 0 0 1 -78 -14)"/></g><g><path fill="none" stroke="#000000" paint-order="fill stroke markers" d=" M 234 10 L 1650 10 L 1650 1170 L 234 1170 L 234 10 Z Z" stroke-miterlimit="10" stroke-dasharray=""/></g><g><g><path fill="none" stroke="none"/><text fill="#000000" stroke="none" font-family="Arial" font-size="13px" font-style="normal" font-weight="bold" text-decoration="undefined" x="1020.5" y="37.5" text-anchor="middle" dominant-baseline="central" transform="matrix(1 0 0 1 -78 -14)">BuyMatch – Plateforme de réservation de billets sportifs</text></g></g><g><path fill="#ffffff" stroke="none" paint-order="stroke fill markers" d=" M 53.281337890625 371.85 C 53.281337890625 366.96227952000004 57.239140258624985 363 62.121337890625 363 C 67.00353552262501 363 70.961337890625 366.96227952000004 70.961337890625 371.85 C 70.961337890625 376.73772048 67.00353552262501 380.7 62.121337890625 380.7 C 57.239140258624985 380.7 53.281337890625 376.73772048 53.281337890625 371.85 Z"/></g><g><path fill="none" stroke="#000000" paint-order="fill stroke markers" d=" M 53.281337890625 371.85 C 53.281337890625 366.96227952000004 57.239140258624985 363 62.121337890625 363 C 67.00353552262501 363 70.961337890625 366.96227952000004 70.961337890625 371.85 C 70.961337890625 376.73772048 67.00353552262501 380.7 62.121337890625 380.7 C 57.239140258624985 380.7 53.281337890625 376.73772048 53.281337890625 371.85 Z" stroke-miterlimit="10" stroke-dasharray=""/></g><g><path fill="none" stroke="#000000" paint-order="fill stroke markers" d=" M 62.121337890625 380.7 L 62.121337890625 398.3" stroke-miterlimit="10" stroke-dasharray=""/></g><g><path fill="none" stroke="#000000" paint-order="fill stroke markers" d=" M 52.761337890624986 387.3 L 71.48133789062501 387.3" stroke-miterlimit="10" stroke-dasharray=""/></g><g><path fill="none" stroke="#000000" paint-order="fill stroke markers" d=" M 62.121337890625 398.3 L 49.121337890625 416" stroke-miterlimit="10" stroke-dasharray=""/></g><g><path fill="none" stroke="#000000" paint-order="fill stroke markers" d=" M 62.121337890625 398.3 L 75.121337890625 416" stroke-miterlimit="10" stroke-dasharray=""/></g><g><g><path fill="none" stroke="none"/><text fill="#000000" stroke="none" font-family="Arial" font-size="13px" font-style="normal" font-weight="bold" text-decoration="undefined" x="140.621337890625" y="444.5" text-anchor="middle" dominant-baseline="central" transform="matrix(1 0 0 1 -78 -14)">visiteur</text></g></g><g><path fill="#ffffff" stroke="none" paint-order="stroke fill markers" d=" M 45.531337890625 179.85 C 45.531337890625 174.96227952 49.489140258625 171 54.371337890625 171 C 59.253535522625015 171 63.211337890625 174.96227952 63.211337890625 179.85 C 63.211337890625 184.73772047999998 59.253535522625015 188.7 54.371337890625 188.7 C 49.489140258625 188.7 45.531337890625 184.73772047999998 45.531337890625 179.85 Z"/></g><g><path fill="none" stroke="#000000" paint-order="fill stroke markers" d=" M 45.531337890625 179.85 C 45.531337890625 174.96227952 49.489140258625 171 54.371337890625 171 C 59.253535522625015 171 63.211337890625 174.96227952 63.211337890625 179.85 C 63.211337890625 184.73772047999998 59.253535522625015 188.7 54.371337890625 188.7 C 49.489140258625 188.7 45.531337890625 184.73772047999998 45.531337890625 179.85 Z" stroke-miterlimit="10" stroke-dasharray=""/></g><g><path fill="none" stroke="#000000" paint-order="fill stroke markers" d=" M 54.371337890625 188.7 L 54.371337890625 206.3" stroke-miterlimit="10" stroke-dasharray=""/></g><g><path fill="none" stroke="#000000" paint-order="fill stroke markers" d=" M 45.011337890625 195.3 L 63.731337890625014 195.3" stroke-miterlimit="10" stroke-dasharray=""/></g><g><path fill="none" stroke="#000000" paint-order="fill stroke markers" d=" M 54.371337890625 206.3 L 41.371337890625 224" stroke-miterlimit="10" stroke-dasharray=""/></g><g><path fill="none" stroke="#000000" paint-order="fill stroke markers" d=" M 54.371337890625 206.3 L 67.371337890625 224" stroke-miterlimit="10" stroke-dasharray=""/></g><g><g><path fill="none" stroke="none"/><text fill="#000000" stroke="none" font-family="Arial" font-size="13px" font-style="normal" font-weight="bold" text-decoration="undefined" x="132.871337890625" y="252.5" text-anchor="middle" dominant-baseline="central" transform="matrix(1 0 0 1 -78 -14)">organisateur</text></g></g><g><path fill="#C0C0C0" stroke="none" paint-order="stroke fill markers" d=" M 297 546.5 C 297 536.835016 360.3517008 529 438.5 529 C 516.6482992 529 580 536.835016 580 546.5 C 580 556.164984 516.6482992 564 438.5 564 C 360.3517008 564 297 556.164984 297 546.5 Z" fill-opacity="0.2"/></g><g><path fill="#ffffff" stroke="none" paint-order="stroke fill markers" d=" M 290 539.5 C 290 529.835016 353.3517008 522 431.5 522 C 509.6482992 522 573 529.835016 573 539.5 C 573 549.164984 509.6482992 557 431.5 557 C 353.3517008 557 290 549.164984 290 539.5 Z"/></g><g><path fill="none" stroke="#000000" paint-order="fill stroke markers" d=" M 290 539.5 C 290 529.835016 353.3517008 522 431.5 522 C 509.6482992 522 573 529.835016 573 539.5 C 573 549.164984 509.6482992 557 431.5 557 C 353.3517008 557 290 549.164984 290 539.5 Z" stroke-miterlimit="10" stroke-dasharray=""/></g><g><g><path fill="none" stroke="none"/><text fill="#000000" stroke="none" font-family="Arial" font-size="13px" font-style="normal" font-weight="bold" text-decoration="undefined" x="509.5" y="554.5" text-anchor="middle" dominant-baseline="central" transform="matrix(1 0 0 1 -78 -14)">consulter les statistique global</text></g></g><g><path fill="#C0C0C0" stroke="none" paint-order="stroke fill markers" d=" M 337 594.5 C 337 584.835016 373.4887888 577 418.5 577 C 463.51121120000005 577 500 584.835016 500 594.5 C 500 604.164984 463.51121120000005 612 418.5 612 C 373.4887888 612 337 604.164984 337 594.5 Z" fill-opacity="0.2"/></g><g><path fill="#ffffff" stroke="none" paint-order="stroke fill markers" d=" M 330 587.5 C 330 577.835016 366.4887888 570 411.5 570 C 456.51121120000005 570 493 577.835016 493 587.5 C 493 597.164984 456.51121120000005 605 411.5 605 C 366.4887888 605 330 597.164984 330 587.5 Z"/></g><g><path fill="none" stroke="#000000" paint-order="fill stroke markers" d=" M 330 587.5 C 330 577.835016 366.4887888 570 411.5 570 C 456.51121120000005 570 493 577.835016 493 587.5 C 493 597.164984 456.51121120000005 605 411.5 605 C 366.4887888 605 330 597.164984 330 587.5 Z" stroke-miterlimit="10" stroke-dasharray=""/></g><g><g><path fill="none" stroke="none"/><text fill="#000000" stroke="none" font-family="Arial" font-size="13px" font-style="normal" font-weight="bold" text-decoration="undefined" x="489.5" y="602.5" text-anchor="middle" dominant-baseline="central" transform="matrix(1 0 0 1 -78 -14)">refuser un match</text></g></g><g><path fill="none" stroke="#000000" paint-order="fill stroke markers" d=" M 84 561 L 122 482 L 297 477" stroke-miterlimit="10" stroke-dasharray=""/></g><g><path fill="none" stroke="#000000" paint-order="fill stroke markers" d=" M 115 600 L 329 591" stroke-miterlimit="10" stroke-dasharray=""/></g><g><path fill="none" stroke="#000000" paint-order="fill stroke markers" d=" M 115 639 L 130 650 L 305 646" stroke-miterlimit="10" stroke-dasharray=""/></g><g><path fill="none" stroke="#000000" paint-order="fill stroke markers" d=" M 87 643 L 122 706 L 281 707" stroke-miterlimit="10" stroke-dasharray=""/></g><g><path fill="#C0C0C0" stroke="none" paint-order="stroke fill markers" d=" M 305 482.5 C 305 472.835016 344.3989376 465 393 465 C 441.60106240000005 465 481 472.835016 481 482.5 C 481 492.164984 441.60106240000005 500 393 500 C 344.3989376 500 305 492.164984 305 482.5 Z" fill-opacity="0.2"/></g><g><path fill="#ffffff" stroke="none" paint-order="stroke fill markers" d=" M 298 475.5 C 298 465.835016 337.3989376 458 386 458 C 434.60106240000005 458 474 465.835016 474 475.5 C 474 485.164984 434.60106240000005 493 386 493 C 337.3989376 493 298 485.164984 298 475.5 Z"/></g><g><path fill="none" stroke="#000000" paint-order="fill stroke markers" d=" M 298 475.5 C 298 465.835016 337.3989376 458 386 458 C 434.60106240000005 458 474 465.835016 474 475.5 C 474 485.164984 434.60106240000005 493 386 493 C 337.3989376 493 298 485.164984 298 475.5 Z" stroke-miterlimit="10" stroke-dasharray=""/></g><g><g><path fill="none" stroke="none"/><text fill="#000000" stroke="none" font-family="Arial" font-size="13px" font-style="normal" font-weight="bold" text-decoration="undefined" x="464" y="490.5" text-anchor="middle" dominant-baseline="central" transform="matrix(1 0 0 1 -78 -14)">accepter un match</text></g></g><g><path fill="#C0C0C0" stroke="none" paint-order="stroke fill markers" d=" M 313 650.5 C 313 640.835016 365.38267840000003 633 430 633 C 494.61732159999997 633 547 640.835016 547 650.5 C 547 660.164984 494.61732159999997 668 430 668 C 365.38267840000003 668 313 660.164984 313 650.5 Z" fill-opacity="0.2"/></g><g><path fill="#ffffff" stroke="none" paint-order="stroke fill markers" d=" M 306 643.5 C 306 633.835016 358.38267840000003 626 423 626 C 487.61732159999997 626 540 633.835016 540 643.5 C 540 653.164984 487.61732159999997 661 423 661 C 358.38267840000003 661 306 653.164984 306 643.5 Z"/></g><g><path fill="none" stroke="#000000" paint-order="fill stroke markers" d=" M 306 643.5 C 306 633.835016 358.38267840000003 626 423 626 C 487.61732159999997 626 540 633.835016 540 643.5 C 540 653.164984 487.61732159999997 661 423 661 C 358.38267840000003 661 306 653.164984 306 643.5 Z" stroke-miterlimit="10" stroke-dasharray=""/></g><g><g><path fill="none" stroke="none"/><text fill="#000000" stroke="none" font-family="Arial" font-size="13px" font-style="normal" font-weight="bold" text-decoration="undefined" x="501" y="658.5" text-anchor="middle" dominant-baseline="central" transform="matrix(1 0 0 1 -78 -14)">gerer les profil utilisateur</text></g></g><g><path fill="#C0C0C0" stroke="none" paint-order="stroke fill markers" d=" M 289 714.5 C 289 704.835016 346.9791184 697 418.5 697 C 490.02088159999994 697 548 704.835016 548 714.5 C 548 724.164984 490.02088159999994 732 418.5 732 C 346.9791184 732 289 724.164984 289 714.5 Z" fill-opacity="0.2"/></g><g><path fill="#ffffff" stroke="none" paint-order="stroke fill markers" d=" M 282 707.5 C 282 697.835016 339.9791184 690 411.5 690 C 483.02088159999994 690 541 697.835016 541 707.5 C 541 717.164984 483.02088159999994 725 411.5 725 C 339.9791184 725 282 717.164984 282 707.5 Z"/></g><g><path fill="none" stroke="#000000" paint-order="fill stroke markers" d=" M 282 707.5 C 282 697.835016 339.9791184 690 411.5 690 C 483.02088159999994 690 541 697.835016 541 707.5 C 541 717.164984 483.02088159999994 725 411.5 725 C 339.9791184 725 282 717.164984 282 707.5 Z" stroke-miterlimit="10" stroke-dasharray=""/></g><g><g><path fill="none" stroke="none"/><text fill="#000000" stroke="none" font-family="Arial" font-size="13px" font-style="normal" font-weight="bold" text-decoration="undefined" x="489.5" y="722.5" text-anchor="middle" dominant-baseline="central" transform="matrix(1 0 0 1 -78 -14)">acceder a les commantaires</text></g></g><g><path fill="none" stroke="#000000" paint-order="fill stroke markers" d=" M 91 390 L 178 354 L 345 336" stroke-miterlimit="10" stroke-dasharray=""/></g><g><path fill="#C0C0C0" stroke="none" paint-order="stroke fill markers" d=" M 1001 586.5 C 1001 576.835016 1045.0999472 569 1099.5 569 C 1153.9000528 569 1198 576.835016 1198 586.5 C 1198 596.164984 1153.9000528 604 1099.5 604 C 1045.0999472 604 1001 596.164984 1001 586.5 Z" fill-opacity="0.2"/></g><g><path fill="#ffffff" stroke="none" paint-order="stroke fill markers" d=" M 994 579.5 C 994 569.835016 1038.0999472 562 1092.5 562 C 1146.9000528 562 1191 569.835016 1191 579.5 C 1191 589.164984 1146.9000528 597 1092.5 597 C 1038.0999472 597 994 589.164984 994 579.5 Z"/></g><g><path fill="none" stroke="#000000" paint-order="fill stroke markers" d=" M 994 579.5 C 994 569.835016 1038.0999472 562 1092.5 562 C 1146.9000528 562 1191 569.835016 1191 579.5 C 1191 589.164984 1146.9000528 597 1092.5 597 C 1038.0999472 597 994 589.164984 994 579.5 Z" stroke-miterlimit="10" stroke-dasharray=""/></g><g><g><path fill="none" stroke="none"/><text fill="#000000" stroke="none" font-family="Arial" font-size="13px" font-style="normal" font-weight="bold" text-decoration="undefined" x="1170.5" y="594.5" text-anchor="middle" dominant-baseline="central" transform="matrix(1 0 0 1 -78 -14)">consulter les matchs</text></g></g><g><path fill="#C0C0C0" stroke="none" paint-order="stroke fill markers" d=" M 1041 690.5 C 1041 680.835016 1085.0999472 673 1139.5 673 C 1193.9000528 673 1238 680.835016 1238 690.5 C 1238 700.164984 1193.9000528 708 1139.5 708 C 1085.0999472 708 1041 700.164984 1041 690.5 Z" fill-opacity="0.2"/></g><g><path fill="#ffffff" stroke="none" paint-order="stroke fill markers" d=" M 1034 683.5 C 1034 673.835016 1078.0999472 666 1132.5 666 C 1186.9000528 666 1231 673.835016 1231 683.5 C 1231 693.164984 1186.9000528 701 1132.5 701 C 1078.0999472 701 1034 693.164984 1034 683.5 Z"/></g><g><path fill="none" stroke="#000000" paint-order="fill stroke markers" d=" M 1034 683.5 C 1034 673.835016 1078.0999472 666 1132.5 666 C 1186.9000528 666 1231 673.835016 1231 683.5 C 1231 693.164984 1186.9000528 701 1132.5 701 C 1078.0999472 701 1034 693.164984 1034 683.5 Z" stroke-miterlimit="10" stroke-dasharray=""/></g><g><g><path fill="none" stroke="none"/><text fill="#000000" stroke="none" font-family="Arial" font-size="13px" font-style="normal" font-weight="bold" text-decoration="undefined" x="1210.5" y="698.5" text-anchor="middle" dominant-baseline="central" transform="matrix(1 0 0 1 -78 -14)">voir details de match</text></g></g><g><path fill="#C0C0C0" stroke="none" paint-order="stroke fill markers" d=" M 353 338.5 C 353 328.835016 375.8334752 321 404 321 C 432.1665248 321 455 328.835016 455 338.5 C 455 348.164984 432.1665248 356 404 356 C 375.8334752 356 353 348.164984 353 338.5 Z" fill-opacity="0.2"/></g><g><path fill="#ffffff" stroke="none" paint-order="stroke fill markers" d=" M 346 331.5 C 346 321.835016 368.8334752 314 397 314 C 425.1665248 314 448 321.835016 448 331.5 C 448 341.164984 425.1665248 349 397 349 C 368.8334752 349 346 341.164984 346 331.5 Z"/></g><g><path fill="none" stroke="#000000" paint-order="fill stroke markers" d=" M 346 331.5 C 346 321.835016 368.8334752 314 397 314 C 425.1665248 314 448 321.835016 448 331.5 C 448 341.164984 425.1665248 349 397 349 C 368.8334752 349 346 341.164984 346 331.5 Z" stroke-miterlimit="10" stroke-dasharray=""/></g><g><g><path fill="none" stroke="none"/><text fill="#000000" stroke="none" font-family="Arial" font-size="13px" font-style="normal" font-weight="bold" text-decoration="undefined" x="475" y="346.5" text-anchor="middle" dominant-baseline="central" transform="matrix(1 0 0 1 -78 -14)">s'inscrire</text></g></g><g><path fill="#C0C0C0" stroke="none" paint-order="stroke fill markers" d=" M 1041 458.5 C 1041 448.835016 1069.4299152 441 1104.5 441 C 1139.5700848 441 1168 448.835016 1168 458.5 C 1168 468.164984 1139.5700848 476 1104.5 476 C 1069.4299152 476 1041 468.164984 1041 458.5 Z" fill-opacity="0.2"/></g><g><path fill="#ffffff" stroke="none" paint-order="stroke fill markers" d=" M 1034 451.5 C 1034 441.835016 1062.4299152 434 1097.5 434 C 1132.5700848 434 1161 441.835016 1161 451.5 C 1161 461.164984 1132.5700848 469 1097.5 469 C 1062.4299152 469 1034 461.164984 1034 451.5 Z"/></g><g><path fill="none" stroke="#000000" paint-order="fill stroke markers" d=" M 1034 451.5 C 1034 441.835016 1062.4299152 434 1097.5 434 C 1132.5700848 434 1161 441.835016 1161 451.5 C 1161 461.164984 1132.5700848 469 1097.5 469 C 1062.4299152 469 1034 461.164984 1034 451.5 Z" stroke-miterlimit="10" stroke-dasharray=""/></g><g><g><path fill="none" stroke="none"/><text fill="#000000" stroke="none" font-family="Arial" font-size="13px" font-style="normal" font-weight="bold" text-decoration="undefined" x="1175.5" y="466.5" text-anchor="middle" dominant-baseline="central" transform="matrix(1 0 0 1 -78 -14)">se connecter</text></g></g><g><path fill="none" stroke="#000000" paint-order="fill stroke markers" d=" M 100 238 L 146 266 L 225 272" stroke-miterlimit="10" stroke-dasharray=""/></g><g><path fill="none" stroke="#000000" paint-order="fill stroke markers" d=" M 82 169 L 114 122 L 217 122" stroke-miterlimit="10" stroke-dasharray=""/></g><g><path fill="#C0C0C0" stroke="none" paint-order="stroke fill markers" d=" M 225 130.5 C 225 120.835016 283.202976 113 355 113 C 426.797024 113 485 120.835016 485 130.5 C 485 140.164984 426.797024 148 355 148 C 283.202976 148 225 140.164984 225 130.5 Z" fill-opacity="0.2"/></g><g><path fill="#ffffff" stroke="none" paint-order="stroke fill markers" d=" M 218 123.5 C 218 113.835016 276.202976 106 348 106 C 419.797024 106 478 113.835016 478 123.5 C 478 133.164984 419.797024 141 348 141 C 276.202976 141 218 133.164984 218 123.5 Z"/></g><g><path fill="none" stroke="#000000" paint-order="fill stroke markers" d=" M 218 123.5 C 218 113.835016 276.202976 106 348 106 C 419.797024 106 478 113.835016 478 123.5 C 478 133.164984 419.797024 141 348 141 C 276.202976 141 218 133.164984 218 123.5 Z" stroke-miterlimit="10" stroke-dasharray=""/></g><g><g><path fill="none" stroke="none"/><text fill="#000000" stroke="none" font-family="Arial" font-size="13px" font-style="normal" font-weight="bold" text-decoration="undefined" x="426" y="138.5" text-anchor="middle" dominant-baseline="central" transform="matrix(1 0 0 1 -78 -14)">voir les commantaire et avis</text></g></g><g><path fill="#C0C0C0" stroke="none" paint-order="stroke fill markers" d=" M 233 290.5 C 233 280.835016 306.42529279999997 273 397 273 C 487.57470720000003 273 561 280.835016 561 290.5 C 561 300.164984 487.57470720000003 308 397 308 C 306.42529279999997 308 233 300.164984 233 290.5 Z" fill-opacity="0.2"/></g><g><path fill="#ffffff" stroke="none" paint-order="stroke fill markers" d=" M 226 283.5 C 226 273.835016 299.42529279999997 266 390 266 C 480.57470720000003 266 554 273.835016 554 283.5 C 554 293.164984 480.57470720000003 301 390 301 C 299.42529279999997 301 226 293.164984 226 283.5 Z"/></g><g><path fill="none" stroke="#000000" paint-order="fill stroke markers" d=" M 226 283.5 C 226 273.835016 299.42529279999997 266 390 266 C 480.57470720000003 266 554 273.835016 554 283.5 C 554 293.164984 480.57470720000003 301 390 301 C 299.42529279999997 301 226 293.164984 226 283.5 Z" stroke-miterlimit="10" stroke-dasharray=""/></g><g><g><path fill="none" stroke="none"/><text fill="#000000" stroke="none" font-family="Arial" font-size="13px" font-style="normal" font-weight="bold" text-decoration="undefined" x="468" y="298.5" text-anchor="middle" dominant-baseline="central" transform="matrix(1 0 0 1 -78 -14)">consuler les staistiques des matchs</text></g></g><g><path fill="none" stroke="#000000" paint-order="fill stroke markers" d=" M 100 180 L 114 170 L 225 170" stroke-miterlimit="10" stroke-dasharray=""/></g><g><path fill="none" stroke="#000000" paint-order="fill stroke markers" d=" M 100 210 L 225 211" stroke-miterlimit="10" stroke-dasharray=""/></g><g><path fill="none" stroke="#000000" paint-order="fill stroke markers" d=" M 139 965 L 361 938" stroke-miterlimit="10" stroke-dasharray=""/></g><g><path fill="none" stroke="#000000" paint-order="fill stroke markers" d=" M 139 972 L 385 983" stroke-miterlimit="10" stroke-dasharray=""/></g><g><path fill="none" stroke="#000000" paint-order="fill stroke markers" d=" M 139 985 L 350 1073" stroke-miterlimit="10" stroke-dasharray=""/></g><g><path fill="none" stroke="#000000" paint-order="fill stroke markers" d=" M 458 1080 L 1025 981" stroke-miterlimit="10" stroke-dasharray="3"/></g><g><path fill="none" stroke="#000000" paint-order="fill stroke markers" d=" M 1015.7128231770382 986.894772825058 L 1025 981 L 1014.2647404522525 978.6012081285579" stroke-miterlimit="10" stroke-dasharray=""/></g><g><rect fill="#ffffff" stroke="none" x="786" y="1008" width="55.65625" height="13" transform="matrix(1 0 0 1 -78 -14)"/></g><g><g><path fill="none" stroke="none"/><text fill="#000000" stroke="none" font-family="Arial" font-size="13px" font-style="normal" font-weight="normal" text-decoration="undefined" x="813.828125" y="1014.5" text-anchor="middle" dominant-baseline="central" transform="matrix(1 0 0 1 -78 -14)">«include»</text></g></g><g><path fill="none" stroke="#000000" paint-order="fill stroke markers" d=" M 985 1029 L 458 1084" stroke-miterlimit="10" stroke-dasharray="3"/></g><g><path fill="none" stroke="#000000" paint-order="fill stroke markers" d=" M 467.67082710584236 1078.7583301240059 L 458 1084 L 468.54472774028045 1087.1318871121673" stroke-miterlimit="10" stroke-dasharray=""/></g><g><rect fill="#ffffff" stroke="none" x="775" y="1093" width="55.65625" height="13" transform="matrix(1 0 0 1 -78 -14)"/></g><g><g><path fill="none" stroke="none"/><text fill="#000000" stroke="none" font-family="Arial" font-size="13px" font-style="normal" font-weight="normal" text-decoration="undefined" x="802.828125" y="1099.5" text-anchor="middle" dominant-baseline="central" transform="matrix(1 0 0 1 -78 -14)">«include»</text></g></g><g><path fill="#C0C0C0" stroke="none" paint-order="stroke fill markers" d=" M 977 1073 C 977 1059.7451648 1014.6080767999999 1049 1061 1049 C 1107.3919232 1049 1145 1059.7451648 1145 1073 C 1145 1086.2548352 1107.3919232 1097 1061 1097 C 1014.6080767999999 1097 977 1086.2548352 977 1073 Z" fill-opacity="0.2"/></g><g><path fill="#ffffff" stroke="none" paint-order="stroke fill markers" d=" M 970 1066 C 970 1052.7451648 1007.6080767999999 1042 1054 1042 C 1100.3919232 1042 1138 1052.7451648 1138 1066 C 1138 1079.2548352 1100.3919232 1090 1054 1090 C 1007.6080767999999 1090 970 1079.2548352 970 1066 Z"/></g><g><path fill="none" stroke="#000000" paint-order="fill stroke markers" d=" M 970 1066 C 970 1052.7451648 1007.6080767999999 1042 1054 1042 C 1100.3919232 1042 1138 1052.7451648 1138 1066 C 1138 1079.2548352 1100.3919232 1090 1054 1090 C 1007.6080767999999 1090 970 1079.2548352 970 1066 Z" stroke-miterlimit="10" stroke-dasharray=""/></g><g><g><path fill="none" stroke="none"/><text fill="#000000" stroke="none" font-family="Arial" font-size="13px" font-style="normal" font-weight="bold" text-decoration="undefined" x="1132" y="1081" text-anchor="middle" dominant-baseline="central" transform="matrix(1 0 0 1 -78 -14)">generer ticket pdf</text></g></g><g><path fill="none" stroke="#000000" paint-order="fill stroke markers" d=" M 969 1069 L 458 1089" stroke-miterlimit="10" stroke-dasharray="3"/></g><g><path fill="none" stroke="#000000" paint-order="fill stroke markers" d=" M 467.99026987738785 1084.3962506826547 L 458 1089 L 468.3195299373624 1092.8088452150068" stroke-miterlimit="10" stroke-dasharray=""/></g><g><rect fill="#ffffff" stroke="none" x="765" y="1116" width="55.65625" height="13" transform="matrix(1 0 0 1 -78 -14)"/></g><g><g><path fill="none" stroke="none"/><text fill="#000000" stroke="none" font-family="Arial" font-size="13px" font-style="normal" font-weight="normal" text-decoration="undefined" x="792.828125" y="1122.5" text-anchor="middle" dominant-baseline="central" transform="matrix(1 0 0 1 -78 -14)">«include»</text></g></g><g><path fill="none" stroke="#000000" paint-order="fill stroke markers" d=" M 458 1094 L 937 1119" stroke-miterlimit="10" stroke-dasharray="3"/></g><g><path fill="none" stroke="#000000" paint-order="fill stroke markers" d=" M 926.631733746635 1122.674106000013 L 937 1119 L 927.0705433556906 1114.2665138905052" stroke-miterlimit="10" stroke-dasharray=""/></g><g><rect fill="#ffffff" stroke="none" x="749" y="1084" width="55.65625" height="13" transform="matrix(1 0 0 1 -78 -14)"/></g><g><g><path fill="none" stroke="none"/><text fill="#000000" stroke="none" font-family="Arial" font-size="13px" font-style="normal" font-weight="normal" text-decoration="undefined" x="776.828125" y="1090.5" text-anchor="middle" dominant-baseline="central" transform="matrix(1 0 0 1 -78 -14)">«include»</text></g></g><g><path fill="#C0C0C0" stroke="none" paint-order="stroke fill markers" d=" M 337 1098.5 C 337 1088.835016 365.4299152 1081 400.5 1081 C 435.5700848 1081 464 1088.835016 464 1098.5 C 464 1108.164984 435.5700848 1116 400.5 1116 C 365.4299152 1116 337 1108.164984 337 1098.5 Z" fill-opacity="0.2"/></g><g><path fill="#ffffff" stroke="none" paint-order="stroke fill markers" d=" M 330 1091.5 C 330 1081.835016 358.4299152 1074 393.5 1074 C 428.5700848 1074 457 1081.835016 457 1091.5 C 457 1101.164984 428.5700848 1109 393.5 1109 C 358.4299152 1109 330 1101.164984 330 1091.5 Z"/></g><g><path fill="none" stroke="#000000" paint-order="fill stroke markers" d=" M 330 1091.5 C 330 1081.835016 358.4299152 1074 393.5 1074 C 428.5700848 1074 457 1081.835016 457 1091.5 C 457 1101.164984 428.5700848 1109 393.5 1109 C 358.4299152 1109 330 1101.164984 330 1091.5 Z" stroke-miterlimit="10" stroke-dasharray=""/></g><g><g><path fill="none" stroke="none"/><text fill="#000000" stroke="none" font-family="Arial" font-size="13px" font-style="normal" font-weight="bold" text-decoration="undefined" x="471.5" y="1106.5" text-anchor="middle" dominant-baseline="central" transform="matrix(1 0 0 1 -78 -14)">acheter billet</text></g></g><g><path fill="none" stroke="#000000" paint-order="fill stroke markers" d=" M 612 909 L 1129 851" stroke-miterlimit="10" stroke-dasharray="3"/></g><g><path fill="none" stroke="#000000" paint-order="fill stroke markers" d=" M 1119.3699832067439 856.3162746883137 L 1129 851 L 1118.4313759397912 847.9497237053052" stroke-miterlimit="10" stroke-dasharray=""/></g><g><rect fill="#ffffff" stroke="none" x="918" y="858" width="53.49169921875" height="13" transform="matrix(1 0 0 1 -78 -14)"/></g><g><g><path fill="none" stroke="none"/><text fill="#000000" stroke="none" font-family="Arial" font-size="13px" font-style="normal" font-weight="normal" text-decoration="undefined" x="944.745849609375" y="864.5" text-anchor="middle" dominant-baseline="central" transform="matrix(1 0 0 1 -78 -14)">«extend»</text></g></g><g><path fill="none" stroke="#000000" paint-order="fill stroke markers" d=" M 572 975 L 1033 917" stroke-miterlimit="10" stroke-dasharray="3"/></g><g><path fill="none" stroke="#000000" paint-order="fill stroke markers" d=" M 1023.4422867269654 922.4451920985817 L 1033 917 L 1022.39134387423 914.0920083897711" stroke-miterlimit="10" stroke-dasharray=""/></g><g><rect fill="#ffffff" stroke="none" x="850" y="924" width="53.49169921875" height="13" transform="matrix(1 0 0 1 -78 -14)"/></g><g><g><path fill="none" stroke="none"/><text fill="#000000" stroke="none" font-family="Arial" font-size="13px" font-style="normal" font-weight="normal" text-decoration="undefined" x="876.745849609375" y="930.5" text-anchor="middle" dominant-baseline="central" transform="matrix(1 0 0 1 -78 -14)">«extend»</text></g></g><g><path fill="none" stroke="#000000" paint-order="fill stroke markers" d=" M 1073 470 L 778 706 L 139 956" stroke-miterlimit="10" stroke-dasharray=""/></g><g><path fill="none" stroke="#000000" paint-order="fill stroke markers" d=" M 139 959 L 882 738 L 1067 598" stroke-miterlimit="10" stroke-dasharray=""/></g><g><path fill="none" stroke="#000000" paint-order="fill stroke markers" d=" M 139 961 L 922 778 L 1090 702" stroke-miterlimit="10" stroke-dasharray=""/></g><g><path fill="#C0C0C0" stroke="none" paint-order="stroke fill markers" d=" M 945 1130.5 C 945 1120.835016 979.9217856 1113 1023 1113 C 1066.0782144 1113 1101 1120.835016 1101 1130.5 C 1101 1140.164984 1066.0782144 1148 1023 1148 C 979.9217856 1148 945 1140.164984 945 1130.5 Z" fill-opacity="0.2"/></g><g><path fill="#ffffff" stroke="none" paint-order="stroke fill markers" d=" M 938 1123.5 C 938 1113.835016 972.9217856 1106 1016 1106 C 1059.0782144 1106 1094 1113.835016 1094 1123.5 C 1094 1133.164984 1059.0782144 1141 1016 1141 C 972.9217856 1141 938 1133.164984 938 1123.5 Z"/></g><g><path fill="none" stroke="#000000" paint-order="fill stroke markers" d=" M 938 1123.5 C 938 1113.835016 972.9217856 1106 1016 1106 C 1059.0782144 1106 1094 1113.835016 1094 1123.5 C 1094 1133.164984 1059.0782144 1141 1016 1141 C 972.9217856 1141 938 1133.164984 938 1123.5 Z" stroke-miterlimit="10" stroke-dasharray=""/></g><g><g><path fill="none" stroke="none"/><text fill="#000000" stroke="none" font-family="Arial" font-size="13px" font-style="normal" font-weight="bold" text-decoration="undefined" x="1094" y="1138.5" text-anchor="middle" dominant-baseline="central" transform="matrix(1 0 0 1 -78 -14)">choisir category</text></g></g><g><path fill="#C0C0C0" stroke="none" paint-order="stroke fill markers" d=" M 993 1026.5 C 993 1016.835016 1035.7568016 1009 1088.5 1009 C 1141.2431984 1009 1184 1016.835016 1184 1026.5 C 1184 1036.164984 1141.2431984 1044 1088.5 1044 C 1035.7568016 1044 993 1036.164984 993 1026.5 Z" fill-opacity="0.2"/></g><g><path fill="#ffffff" stroke="none" paint-order="stroke fill markers" d=" M 986 1019.5 C 986 1009.835016 1028.7568016 1002 1081.5 1002 C 1134.2431984 1002 1177 1009.835016 1177 1019.5 C 1177 1029.164984 1134.2431984 1037 1081.5 1037 C 1028.7568016 1037 986 1029.164984 986 1019.5 Z"/></g><g><path fill="none" stroke="#000000" paint-order="fill stroke markers" d=" M 986 1019.5 C 986 1009.835016 1028.7568016 1002 1081.5 1002 C 1134.2431984 1002 1177 1009.835016 1177 1019.5 C 1177 1029.164984 1134.2431984 1037 1081.5 1037 C 1028.7568016 1037 986 1029.164984 986 1019.5 Z" stroke-miterlimit="10" stroke-dasharray=""/></g><g><g><path fill="none" stroke="none"/><text fill="#000000" stroke="none" font-family="Arial" font-size="13px" font-style="normal" font-weight="bold" text-decoration="undefined" x="1159.5" y="1034.5" text-anchor="middle" dominant-baseline="central" transform="matrix(1 0 0 1 -78 -14)">recoi billet par email</text></g></g><g><path fill="#C0C0C0" stroke="none" paint-order="stroke fill markers" d=" M 1465 538.5 C 1465 528.835016 1494.3253456 521 1530.5 521 C 1566.6746544 521 1596 528.835016 1596 538.5 C 1596 548.164984 1566.6746544 556 1530.5 556 C 1494.3253456 556 1465 548.164984 1465 538.5 Z" fill-opacity="0.2"/></g><g><path fill="#ffffff" stroke="none" paint-order="stroke fill markers" d=" M 1458 531.5 C 1458 521.835016 1487.3253456 514 1523.5 514 C 1559.6746544 514 1589 521.835016 1589 531.5 C 1589 541.164984 1559.6746544 549 1523.5 549 C 1487.3253456 549 1458 541.164984 1458 531.5 Z"/></g><g><path fill="none" stroke="#000000" paint-order="fill stroke markers" d=" M 1458 531.5 C 1458 521.835016 1487.3253456 514 1523.5 514 C 1559.6746544 514 1589 521.835016 1589 531.5 C 1589 541.164984 1559.6746544 549 1523.5 549 C 1487.3253456 549 1458 541.164984 1458 531.5 Z" stroke-miterlimit="10" stroke-dasharray=""/></g><g><g><path fill="none" stroke="none"/><text fill="#000000" stroke="none" font-family="Arial" font-size="13px" font-style="normal" font-weight="bold" text-decoration="undefined" x="1601.5" y="546.5" text-anchor="middle" dominant-baseline="central" transform="matrix(1 0 0 1 -78 -14)">gerer le profil</text></g></g><g><path fill="#C0C0C0" stroke="none" paint-order="stroke fill markers" d=" M 393 994.5 C 393 984.835016 434.41365599999995 977 485.5 977 C 536.586344 977 578 984.835016 578 994.5 C 578 1004.164984 536.586344 1012 485.5 1012 C 434.41365599999995 1012 393 1004.164984 393 994.5 Z" fill-opacity="0.2"/></g><g><path fill="#ffffff" stroke="none" paint-order="stroke fill markers" d=" M 386 987.5 C 386 977.835016 427.413656 970 478.5 970 C 529.586344 970 571 977.835016 571 987.5 C 571 997.164984 529.586344 1005 478.5 1005 C 427.413656 1005 386 997.164984 386 987.5 Z"/></g><g><path fill="none" stroke="#000000" paint-order="fill stroke markers" d=" M 386 987.5 C 386 977.835016 427.413656 970 478.5 970 C 529.586344 970 571 977.835016 571 987.5 C 571 997.164984 529.586344 1005 478.5 1005 C 427.413656 1005 386 997.164984 386 987.5 Z" stroke-miterlimit="10" stroke-dasharray=""/></g><g><g><path fill="none" stroke="none"/><text fill="#000000" stroke="none" font-family="Arial" font-size="13px" font-style="normal" font-weight="bold" text-decoration="undefined" x="556.5" y="1002.5" text-anchor="middle" dominant-baseline="central" transform="matrix(1 0 0 1 -78 -14)">laisser commenaire</text></g></g><g><path fill="#C0C0C0" stroke="none" paint-order="stroke fill markers" d=" M 1033 978.5 C 1033 968.835016 1058.743624 961 1090.5 961 C 1122.256376 961 1148 968.835016 1148 978.5 C 1148 988.164984 1122.256376 996 1090.5 996 C 1058.743624 996 1033 988.164984 1033 978.5 Z" fill-opacity="0.2"/></g><g><path fill="#ffffff" stroke="none" paint-order="stroke fill markers" d=" M 1026 971.5 C 1026 961.835016 1051.743624 954 1083.5 954 C 1115.256376 954 1141 961.835016 1141 971.5 C 1141 981.164984 1115.256376 989 1083.5 989 C 1051.743624 989 1026 981.164984 1026 971.5 Z"/></g><g><path fill="none" stroke="#000000" paint-order="fill stroke markers" d=" M 1026 971.5 C 1026 961.835016 1051.743624 954 1083.5 954 C 1115.256376 954 1141 961.835016 1141 971.5 C 1141 981.164984 1115.256376 989 1083.5 989 C 1051.743624 989 1026 981.164984 1026 971.5 Z" stroke-miterlimit="10" stroke-dasharray=""/></g><g><g><path fill="none" stroke="none"/><text fill="#000000" stroke="none" font-family="Arial" font-size="13px" font-style="normal" font-weight="bold" text-decoration="undefined" x="1161.5" y="986.5" text-anchor="middle" dominant-baseline="central" transform="matrix(1 0 0 1 -78 -14)">coisir place</text></g></g><g><path fill="#C0C0C0" stroke="none" paint-order="stroke fill markers" d=" M 369 930.5 C 369 920.835016 424.7405424 913 493.5 913 C 562.2594576 913 618 920.835016 618 930.5 C 618 940.164984 562.2594576 948 493.5 948 C 424.7405424 948 369 940.164984 369 930.5 Z" fill-opacity="0.2"/></g><g><path fill="#ffffff" stroke="none" paint-order="stroke fill markers" d=" M 362 923.5 C 362 913.835016 417.7405424 906 486.5 906 C 555.2594576 906 611 913.835016 611 923.5 C 611 933.164984 555.2594576 941 486.5 941 C 417.7405424 941 362 933.164984 362 923.5 Z"/></g><g><path fill="none" stroke="#000000" paint-order="fill stroke markers" d=" M 362 923.5 C 362 913.835016 417.7405424 906 486.5 906 C 555.2594576 906 611 913.835016 611 923.5 C 611 933.164984 555.2594576 941 486.5 941 C 417.7405424 941 362 933.164984 362 923.5 Z" stroke-miterlimit="10" stroke-dasharray=""/></g><g><g><path fill="none" stroke="none"/><text fill="#000000" stroke="none" font-family="Arial" font-size="13px" font-style="normal" font-weight="bold" text-decoration="undefined" x="564.5" y="938.5" text-anchor="middle" dominant-baseline="central" transform="matrix(1 0 0 1 -78 -14)">consulter historique billets</text></g></g><g><path fill="#C0C0C0" stroke="none" paint-order="stroke fill markers" d=" M 1041 914.5 C 1041 904.835016 1076.3695008 897 1120 897 C 1163.6304992 897 1199 904.835016 1199 914.5 C 1199 924.164984 1163.6304992 932 1120 932 C 1076.3695008 932 1041 924.164984 1041 914.5 Z" fill-opacity="0.2"/></g><g><path fill="#ffffff" stroke="none" paint-order="stroke fill markers" d=" M 1034 907.5 C 1034 897.835016 1069.3695008 890 1113 890 C 1156.6304992 890 1192 897.835016 1192 907.5 C 1192 917.164984 1156.6304992 925 1113 925 C 1069.3695008 925 1034 917.164984 1034 907.5 Z"/></g><g><path fill="none" stroke="#000000" paint-order="fill stroke markers" d=" M 1034 907.5 C 1034 897.835016 1069.3695008 890 1113 890 C 1156.6304992 890 1192 897.835016 1192 907.5 C 1192 917.164984 1156.6304992 925 1113 925 C 1069.3695008 925 1034 917.164984 1034 907.5 Z" stroke-miterlimit="10" stroke-dasharray=""/></g><g><g><path fill="none" stroke="none"/><text fill="#000000" stroke="none" font-family="Arial" font-size="13px" font-style="normal" font-weight="bold" text-decoration="undefined" x="1191" y="922.5" text-anchor="middle" dominant-baseline="central" transform="matrix(1 0 0 1 -78 -14)">donner une note</text></g></g><g><path fill="#C0C0C0" stroke="none" paint-order="stroke fill markers" d=" M 1137 850.5 C 1137 840.835016 1169.6832096 833 1210 833 C 1250.3167904 833 1283 840.835016 1283 850.5 C 1283 860.164984 1250.3167904 868 1210 868 C 1169.6832096 868 1137 860.164984 1137 850.5 Z" fill-opacity="0.2"/></g><g><path fill="#ffffff" stroke="none" paint-order="stroke fill markers" d=" M 1130 843.5 C 1130 833.835016 1162.6832096 826 1203 826 C 1243.3167904 826 1276 833.835016 1276 843.5 C 1276 853.164984 1243.3167904 861 1203 861 C 1162.6832096 861 1130 853.164984 1130 843.5 Z"/></g><g><path fill="none" stroke="#000000" paint-order="fill stroke markers" d=" M 1130 843.5 C 1130 833.835016 1162.6832096 826 1203 826 C 1243.3167904 826 1276 833.835016 1276 843.5 C 1276 853.164984 1243.3167904 861 1203 861 C 1162.6832096 861 1130 853.164984 1130 843.5 Z" stroke-miterlimit="10" stroke-dasharray=""/></g><g><g><path fill="none" stroke="none"/><text fill="#000000" stroke="none" font-family="Arial" font-size="13px" font-style="normal" font-weight="bold" text-decoration="undefined" x="1281" y="858.5" text-anchor="middle" dominant-baseline="central" transform="matrix(1 0 0 1 -78 -14)">telecharger pdf</text></g></g><g><path fill="none" stroke="#000000" paint-order="fill stroke markers" d=" M 115 569 L 138 554 L 289 546" stroke-miterlimit="10" stroke-dasharray=""/></g><g><path fill="#C0C0C0" stroke="none" paint-order="stroke fill markers" d=" M 233 178.5 C 233 168.835016 290.7552608 161 362 161 C 433.2447392 161 491 168.835016 491 178.5 C 491 188.164984 433.2447392 196 362 196 C 290.7552608 196 233 188.164984 233 178.5 Z" fill-opacity="0.2"/></g><g><path fill="#ffffff" stroke="none" paint-order="stroke fill markers" d=" M 226 171.5 C 226 161.835016 283.7552608 154 355 154 C 426.2447392 154 484 161.835016 484 171.5 C 484 181.164984 426.2447392 189 355 189 C 283.7552608 189 226 181.164984 226 171.5 Z"/></g><g><path fill="none" stroke="#000000" paint-order="fill stroke markers" d=" M 226 171.5 C 226 161.835016 283.7552608 154 355 154 C 426.2447392 154 484 161.835016 484 171.5 C 484 181.164984 426.2447392 189 355 189 C 283.7552608 189 226 181.164984 226 171.5 Z" stroke-miterlimit="10" stroke-dasharray=""/></g><g><g><path fill="none" stroke="none"/><text fill="#000000" stroke="none" font-family="Arial" font-size="13px" font-style="normal" font-weight="bold" text-decoration="undefined" x="433" y="186.5" text-anchor="middle" dominant-baseline="central" transform="matrix(1 0 0 1 -78 -14)">creer un demande de match</text></g></g><g><path fill="#C0C0C0" stroke="none" paint-order="stroke fill markers" d=" M 233 218.5 C 233 208.835016 290.7552608 201 362 201 C 433.2447392 201 491 208.835016 491 218.5 C 491 228.164984 433.2447392 236 362 236 C 290.7552608 236 233 228.164984 233 218.5 Z" fill-opacity="0.2"/></g><g><path fill="#ffffff" stroke="none" paint-order="stroke fill markers" d=" M 226 211.5 C 226 201.835016 283.7552608 194 355 194 C 426.2447392 194 484 201.835016 484 211.5 C 484 221.164984 426.2447392 229 355 229 C 283.7552608 229 226 221.164984 226 211.5 Z"/></g><g><path fill="none" stroke="#000000" paint-order="fill stroke markers" d=" M 226 211.5 C 226 201.835016 283.7552608 194 355 194 C 426.2447392 194 484 201.835016 484 211.5 C 484 221.164984 426.2447392 229 355 229 C 283.7552608 229 226 221.164984 226 211.5 Z" stroke-miterlimit="10" stroke-dasharray=""/></g><g><g><path fill="none" stroke="none"/><text fill="#000000" stroke="none" font-family="Arial" font-size="13px" font-style="normal" font-weight="bold" text-decoration="undefined" x="433" y="226.5" text-anchor="middle" dominant-baseline="central" transform="matrix(1 0 0 1 -78 -14)">modifier demande de match</text></g></g><g><path fill="#ffffff" stroke="none" paint-order="stroke fill markers" d=" M 93.222255859375 939.85 C 93.222255859375 934.96227952 97.18005822737499 931 102.062255859375 931 C 106.94445349137501 931 110.902255859375 934.96227952 110.902255859375 939.85 C 110.902255859375 944.73772048 106.94445349137501 948.7 102.062255859375 948.7 C 97.18005822737499 948.7 93.222255859375 944.73772048 93.222255859375 939.85 Z"/></g><g><path fill="none" stroke="#000000" paint-order="fill stroke markers" d=" M 93.222255859375 939.85 C 93.222255859375 934.96227952 97.18005822737499 931 102.062255859375 931 C 106.94445349137501 931 110.902255859375 934.96227952 110.902255859375 939.85 C 110.902255859375 944.73772048 106.94445349137501 948.7 102.062255859375 948.7 C 97.18005822737499 948.7 93.222255859375 944.73772048 93.222255859375 939.85 Z" stroke-miterlimit="10" stroke-dasharray=""/></g><g><path fill="none" stroke="#000000" paint-order="fill stroke markers" d=" M 102.062255859375 948.7 L 102.062255859375 966.3" stroke-miterlimit="10" stroke-dasharray=""/></g><g><path fill="none" stroke="#000000" paint-order="fill stroke markers" d=" M 92.70225585937499 955.3 L 111.42225585937501 955.3" stroke-miterlimit="10" stroke-dasharray=""/></g><g><path fill="none" stroke="#000000" paint-order="fill stroke markers" d=" M 102.062255859375 966.3 L 89.062255859375 984" stroke-miterlimit="10" stroke-dasharray=""/></g><g><path fill="none" stroke="#000000" paint-order="fill stroke markers" d=" M 102.062255859375 966.3 L 115.062255859375 984" stroke-miterlimit="10" stroke-dasharray=""/></g><g><g><path fill="none" stroke="none"/><text fill="#000000" stroke="none" font-family="Arial" font-size="13px" font-style="normal" font-weight="bold" text-decoration="undefined" x="180.562255859375" y="1012.5" text-anchor="middle" dominant-baseline="central" transform="matrix(1 0 0 1 -78 -14)">utilisateur</text></g></g><g><path fill="#ffffff" stroke="none" paint-order="stroke fill markers" d=" M 57.146328125 571.85 C 57.146328125 566.96227952 61.104130492999985 563 65.986328125 563 C 70.86852575700001 563 74.826328125 566.96227952 74.826328125 571.85 C 74.826328125 576.73772048 70.86852575700001 580.7 65.986328125 580.7 C 61.104130492999985 580.7 57.146328125 576.73772048 57.146328125 571.85 Z"/></g><g><path fill="none" stroke="#000000" paint-order="fill stroke markers" d=" M 57.146328125 571.85 C 57.146328125 566.96227952 61.104130492999985 563 65.986328125 563 C 70.86852575700001 563 74.826328125 566.96227952 74.826328125 571.85 C 74.826328125 576.73772048 70.86852575700001 580.7 65.986328125 580.7 C 61.104130492999985 580.7 57.146328125 576.73772048 57.146328125 571.85 Z" stroke-miterlimit="10" stroke-dasharray=""/></g><g><path fill="none" stroke="#000000" paint-order="fill stroke markers" d=" M 65.986328125 580.7 L 65.986328125 598.3" stroke-miterlimit="10" stroke-dasharray=""/></g><g><path fill="none" stroke="#000000" paint-order="fill stroke markers" d=" M 56.626328124999986 587.3 L 75.34632812500001 587.3" stroke-miterlimit="10" stroke-dasharray=""/></g><g><path fill="none" stroke="#000000" paint-order="fill stroke markers" d=" M 65.986328125 598.3 L 52.986328125 616" stroke-miterlimit="10" stroke-dasharray=""/></g><g><path fill="none" stroke="#000000" paint-order="fill stroke markers" d=" M 65.986328125 598.3 L 78.986328125 616" stroke-miterlimit="10" stroke-dasharray=""/></g><g><g><path fill="none" stroke="none"/><text fill="#000000" stroke="none" font-family="Arial" font-size="13px" font-style="normal" font-weight="bold" text-decoration="undefined" x="144.486328125" y="644.5" text-anchor="middle" dominant-baseline="central" transform="matrix(1 0 0 1 -78 -14)">administraeur</text></g></g><g><path fill="none" stroke="#000000" paint-order="fill stroke markers" d=" M 64 169 L 82 98 L 522 98 L 1068 433" stroke-miterlimit="10" stroke-dasharray=""/></g><g><path fill="none" stroke="#000000" paint-order="fill stroke markers" d=" M 64 169 L 82 90 L 602 82 L 1218 442 L 1109 561" stroke-miterlimit="10" stroke-dasharray=""/></g><g><path fill="none" stroke="#000000" paint-order="fill stroke markers" d=" M 63 169 L 90 50 L 682 42 L 1322 426 L 1145 665" stroke-miterlimit="10" stroke-dasharray=""/></g><g><path fill="none" stroke="#000000" paint-order="fill stroke markers" d=" M 91 402 L 578 402 L 1040 561" stroke-miterlimit="10" stroke-dasharray=""/></g><g><path fill="none" stroke="#000000" paint-order="fill stroke markers" d=" M 91 405 L 578 450 L 1089 665" stroke-miterlimit="10" stroke-dasharray=""/></g><g><path fill="none" stroke="#000000" paint-order="fill stroke markers" d=" M 479 116 L 522 114 L 1066 433" stroke-miterlimit="10" stroke-dasharray="3"/></g><g><path fill="none" stroke="#000000" paint-order="fill stroke markers" d=" M 1055.1040593200987 431.4905376122363 L 1066 433 L 1059.3627575481692 424.2280553675017" stroke-miterlimit="10" stroke-dasharray=""/></g><g><rect fill="#ffffff" stroke="none" x="588" y="96" width="55.65625" height="13" transform="matrix(1 0 0 1 -78 -14)"/></g><g><g><path fill="none" stroke="none"/><text fill="#000000" stroke="none" font-family="Arial" font-size="13px" font-style="normal" font-weight="normal" text-decoration="undefined" x="615.828125" y="102.5" text-anchor="middle" dominant-baseline="central" transform="matrix(1 0 0 1 -78 -14)">«include»</text></g></g><g><path fill="none" stroke="#000000" paint-order="fill stroke markers" d=" M 485 170 L 578 170 L 1064 433" stroke-miterlimit="10" stroke-dasharray="3"/></g><g><path fill="none" stroke="#000000" paint-order="fill stroke markers" d=" M 1053.0586670748671 431.86543672657587 L 1064 433 L 1057.0655666777423 424.4610519090955" stroke-miterlimit="10" stroke-dasharray=""/></g><g><rect fill="#ffffff" stroke="none" x="643" y="151" width="55.65625" height="13" transform="matrix(1 0 0 1 -78 -14)"/></g><g><g><path fill="none" stroke="none"/><text fill="#000000" stroke="none" font-family="Arial" font-size="13px" font-style="normal" font-weight="normal" text-decoration="undefined" x="670.828125" y="157.5" text-anchor="middle" dominant-baseline="central" transform="matrix(1 0 0 1 -78 -14)">«include»</text></g></g><g><path fill="none" stroke="#000000" paint-order="fill stroke markers" d=" M 485 206 L 578 202 L 1059 433" stroke-miterlimit="10" stroke-dasharray="3"/></g><g><path fill="none" stroke="#000000" paint-order="fill stroke markers" d=" M 1048.0166476027853 432.39504535823096 L 1059 433 L 1051.661364569273 424.8058295102628" stroke-miterlimit="10" stroke-dasharray=""/></g><g><rect fill="#ffffff" stroke="none" x="641" y="182" width="55.65625" height="13" transform="matrix(1 0 0 1 -78 -14)"/></g><g><g><path fill="none" stroke="none"/><text fill="#000000" stroke="none" font-family="Arial" font-size="13px" font-style="normal" font-weight="normal" text-decoration="undefined" x="668.828125" y="188.5" text-anchor="middle" dominant-baseline="central" transform="matrix(1 0 0 1 -78 -14)">«include»</text></g></g><g><path fill="none" stroke="#000000" paint-order="fill stroke markers" d=" M 555 282 L 610 282 L 1045 433" stroke-miterlimit="10" stroke-dasharray="3"/></g><g><path fill="none" stroke="#000000" paint-order="fill stroke markers" d=" M 1034.0188726924805 433.64408311268664 L 1045 433 L 1036.7797348791516 425.69060595240865" stroke-miterlimit="10" stroke-dasharray=""/></g><g><rect fill="#ffffff" stroke="none" x="670" y="261" width="55.65625" height="13" transform="matrix(1 0 0 1 -78 -14)"/></g><g><g><path fill="none" stroke="none"/><text fill="#000000" stroke="none" font-family="Arial" font-size="13px" font-style="normal" font-weight="normal" text-decoration="undefined" x="697.828125" y="267.5" text-anchor="middle" dominant-baseline="central" transform="matrix(1 0 0 1 -78 -14)">«include»</text></g></g><g><path fill="none" stroke="#000000" paint-order="fill stroke markers" d=" M 475 472 L 1033 453" stroke-miterlimit="10" stroke-dasharray="3"/></g><g><path fill="none" stroke="#000000" paint-order="fill stroke markers" d=" M 1022.9864632156541 457.552920059539 L 1033 453 L 1022.6999595878278 449.13876088442845" stroke-miterlimit="10" stroke-dasharray=""/></g><g><rect fill="#ffffff" stroke="none" x="804" y="440" width="55.65625" height="13" transform="matrix(1 0 0 1 -78 -14)"/></g><g><g><path fill="none" stroke="none"/><text fill="#000000" stroke="none" font-family="Arial" font-size="13px" font-style="normal" font-weight="normal" text-decoration="undefined" x="831.828125" y="446.5" text-anchor="middle" dominant-baseline="central" transform="matrix(1 0 0 1 -78 -14)">«include»</text></g></g><g><path fill="none" stroke="#000000" paint-order="fill stroke markers" d=" M 567 521 L 1033 459" stroke-miterlimit="10" stroke-dasharray="3"/></g><g><path fill="none" stroke="#000000" paint-order="fill stroke markers" d=" M 1023.4812683695059 464.51305252529204 L 1033 459 L 1022.370923490111 456.16755714145427" stroke-miterlimit="10" stroke-dasharray=""/></g><g><rect fill="#ffffff" stroke="none" x="847" y="468" width="55.65625" height="13" transform="matrix(1 0 0 1 -78 -14)"/></g><g><g><path fill="none" stroke="none"/><text fill="#000000" stroke="none" font-family="Arial" font-size="13px" font-style="normal" font-weight="normal" text-decoration="undefined" x="874.828125" y="474.5" text-anchor="middle" dominant-baseline="central" transform="matrix(1 0 0 1 -78 -14)">«include»</text></g></g><g><path fill="none" stroke="#000000" paint-order="fill stroke markers" d=" M 494 580 L 722 562 L 1033 470" stroke-miterlimit="10" stroke-dasharray="3"/></g><g><path fill="none" stroke="#000000" paint-order="fill stroke markers" d=" M 1024.4488900565789 476.91943052104165 L 1033 470 L 1022.0606759289574 468.8462284157129" stroke-miterlimit="10" stroke-dasharray=""/></g><g><rect fill="#ffffff" stroke="none" x="764" y="541" width="55.65625" height="13" transform="matrix(1 0 0 1 -78 -14)"/></g><g><g><path fill="none" stroke="none"/><text fill="#000000" stroke="none" font-family="Arial" font-size="13px" font-style="normal" font-weight="normal" text-decoration="undefined" x="791.828125" y="547.5" text-anchor="middle" dominant-baseline="central" transform="matrix(1 0 0 1 -78 -14)">«include»</text></g></g><g><path fill="none" stroke="#000000" paint-order="fill stroke markers" d=" M 541 634 L 754 618 L 1058 470" stroke-miterlimit="10" stroke-dasharray="3"/></g><g><path fill="none" stroke="#000000" paint-order="fill stroke markers" d=" M 1050.7052528234567 478.23326567227815 L 1058 470 L 1047.0200368162466 470.66363279260315" stroke-miterlimit="10" stroke-dasharray=""/></g><g><rect fill="#ffffff" stroke="none" x="791" y="599" width="55.65625" height="13" transform="matrix(1 0 0 1 -78 -14)"/></g><g><g><path fill="none" stroke="none"/><text fill="#000000" stroke="none" font-family="Arial" font-size="13px" font-style="normal" font-weight="normal" text-decoration="undefined" x="818.828125" y="605.5" text-anchor="middle" dominant-baseline="central" transform="matrix(1 0 0 1 -78 -14)">«include»</text></g></g><g><path fill="none" stroke="#000000" paint-order="fill stroke markers" d=" M 542 700 L 714 690 L 1067 470" stroke-miterlimit="10" stroke-dasharray="3"/></g><g><path fill="none" stroke="#000000" paint-order="fill stroke markers" d=" M 1060.6017024392977 478.94772531567173 L 1067 470 L 1056.1487231598721 471.80271765368417" stroke-miterlimit="10" stroke-dasharray=""/></g><g><rect fill="#ffffff" stroke="none" x="749" y="672" width="55.65625" height="13" transform="matrix(1 0 0 1 -78 -14)"/></g><g><g><path fill="none" stroke="none"/><text fill="#000000" stroke="none" font-family="Arial" font-size="13px" font-style="normal" font-weight="normal" text-decoration="undefined" x="776.828125" y="678.5" text-anchor="middle" dominant-baseline="central" transform="matrix(1 0 0 1 -78 -14)">«include»</text></g></g><g><path fill="none" stroke="#000000" paint-order="fill stroke markers" d=" M 612 913 L 1514 842 L 1117 470" stroke-miterlimit="10" stroke-dasharray="3"/></g><g><path fill="none" stroke="#000000" paint-order="fill stroke markers" d=" M 1127.294086848343 473.87708343458957 L 1117 470 L 1121.5375066287625 480.020530604411" stroke-miterlimit="10" stroke-dasharray=""/></g><g><rect fill="#ffffff" stroke="none" x="1544" y="871" width="55.65625" height="13" transform="matrix(1 0 0 1 -78 -14)"/></g><g><g><path fill="none" stroke="none"/><text fill="#000000" stroke="none" font-family="Arial" font-size="13px" font-style="normal" font-weight="normal" text-decoration="undefined" x="1571.828125" y="877.5" text-anchor="middle" dominant-baseline="central" transform="matrix(1 0 0 1 -78 -14)">«include»</text></g></g><g><path fill="none" stroke="#000000" paint-order="fill stroke markers" d=" M 499 969 L 1075 470" stroke-miterlimit="10" stroke-dasharray="3"/></g><g><path fill="none" stroke="#000000" paint-order="fill stroke markers" d=" M 1070.075168516241 479.83595622482005 L 1075 470 L 1064.5625469156087 473.47268960765734" stroke-miterlimit="10" stroke-dasharray=""/></g><g><rect fill="#ffffff" stroke="none" x="818" y="704" width="55.65625" height="13" transform="matrix(1 0 0 1 -78 -14)"/></g><g><g><path fill="none" stroke="none"/><text fill="#000000" stroke="none" font-family="Arial" font-size="13px" font-style="normal" font-weight="normal" text-decoration="undefined" x="845.828125" y="710.5" text-anchor="middle" dominant-baseline="central" transform="matrix(1 0 0 1 -78 -14)">«include»</text></g></g><g><path fill="none" stroke="#000000" paint-order="fill stroke markers" d=" M 139 1000 L 330 1154 L 1546 1146 L 1524 550" stroke-miterlimit="10" stroke-dasharray=""/></g><g><path fill="none" stroke="#000000" paint-order="fill stroke markers" d=" M 59 169 L 74 34 L 706 26 L 1494 513" stroke-miterlimit="10" stroke-dasharray=""/></g></g></svg>